<?xml version="1.0" standalone="no"?>
<!DOCTYPE svg PUBLIC "-//W3C//DTD SVG 1.1//EN" "http://www.w3.org/Graphics/SVG/1.1/DTD/svg11.dtd">
<svg xmlns="http://www.w3.org/2000/svg">
<metadata>Generated by Fontastic.me</metadata>
<defs>
<font id="suiticons" horiz-adv-x="512">
<font-face font-family="suiticons" units-per-em="512" ascent="480" descent="-32"/>
<missing-glyph horiz-adv-x="512" />

<glyph unicode="&#99;" d="M256 502c68 0 126-24 174-72 48-48 72-106 72-174 0-68-24-125-72-174-48-48-106-72-174-72-68 0-126 24-174 72-48 49-72 106-72 174 0 68 24 126 72 174 48 48 106 72 174 72m58-169c0 0 0 40 0 40 0 0-36 0-36 0-16 0-28-6-38-17-11-11-16-25-16-42 0 0 0-22 0-22 0 0-39 0-39 0 0 0 0-38 0-38 0 0 39 0 39 0 0 0 0-114 0-114 0 0 44 0 44 0 0 0 0 114 0 114 0 0 46 0 46 0 0 0 0 38 0 38 0 0-46 0-46 0 0 0 0 26 0 26 0 10 3 15 10 15 0 0 36 0 36 0"/>
<glyph unicode="&#100;" d="M256 502c68 0 126-24 174-72 48-48 72-106 72-174 0-68-24-125-72-174-48-48-106-72-174-72-68 0-125 24-174 72-48 49-72 106-72 174 0 68 24 126 72 174 49 48 106 72 174 72m100-201c11 8 18 16 24 25-11-4-20-7-28-8 10 7 18 15 22 27-10-5-21-9-31-11-10 9-21 14-36 14-13 0-25-5-34-14-9-10-14-21-14-34 0-1 0-2 1-5 0-3 0-5 0-6-41 2-74 19-99 51-5-8-7-16-7-25 0-17 7-30 22-40-9 0-16 3-22 7 0 0 0-1 0-1 0-12 3-22 10-31 8-9 17-14 29-17-6-1-10-2-13-2-4 0-7 1-9 1 7-22 22-33 45-33-17-14-37-21-60-21 0 0-12 0-12 0 24-14 48-21 74-21 42 0 75 14 100 42 26 28 38 60 38 96 0 0 0 6 0 6"/>
<glyph unicode="&#101;" d="M232 326c3-11 3-20 0-30-3-9-8-14-16-16 0 0-5 0-5 0-14 0-25 10-31 30-2 11-1 20 1 28 4 8 9 13 16 15 0 1 2 1 5 1 15 0 25-9 30-28m24 176c68 0 126-24 174-72 48-48 72-106 72-174 0-68-24-125-72-174-48-48-106-72-174-72-68 0-125 24-174 72-48 49-72 106-72 174 0 68 24 126 72 174 49 48 106 72 174 72m-14-351c20 10 30 26 30 50 0 15-8 30-26 47-9 7-14 13-14 16 0 4 4 9 11 14 11 11 17 25 17 40 0 20-6 34-18 40 0 1 2 2 5 2 3 0 4 0 5 0 14 2 20 5 20 9 0 0 0 2 0 2 0 0-59 0-59 0-4 0-10-1-17-2-7-2-16-7-27-17-11-9-16-22-16-39 0-19 6-32 19-41 8-5 17-8 29-8 0 0 3 0 3 0-2-8 1-17 8-25 0 0-1 0-1 0-47 0-71-16-71-49 0-13 5-24 15-32 9-8 18-12 25-14 7-1 14-2 20-2 0 0 2 0 2 0 0 0 2 0 2 0 13 0 26 3 38 9m130 106c0 0 0 25 0 25 0 0-39 0-39 0 0 0 0 39 0 39 0 0-25 0-25 0 0 0 0-39 0-39 0 0-39 0-39 0 0 0 0-25 0-25 0 0 39 0 39 0 0 0 0-39 0-39 0 0 25 0 25 0 0 0 0 39 0 39 0 0 39 0 39 0m-161-30c11 0 20-3 27-8 6-6 10-14 11-22 1-9-3-17-10-23-7-6-16-9-28-10-12-2-22 0-31 5-9 6-13 13-14 21 0 9 4 18 11 25 7 7 17 11 30 12 0 0 4 0 4 0"/>
<glyph unicode="&#102;" d="M256 502c68 0 126-24 174-72 48-48 72-106 72-174 0-68-24-125-72-174-48-48-106-72-174-72-68 0-126 24-174 72-48 49-72 106-72 174 0 68 24 126 72 174 48 48 106 72 174 72m16-303c28-3 50 8 66 32 16 25 21 53 17 83-3 25-16 44-38 57-21 13-46 17-74 14-23-3-43-12-60-29-18-16-27-36-27-60-2-34 10-54 35-59 4 8 5 13 5 16 0 4-2 8-5 13-3 5-5 9-6 14-4 32 9 57 40 73 32 17 59 14 81-9 17-16 20-42 10-76-9-34-26-49-50-44-13 3-19 12-17 28 3 16 7 30 13 44 5 14 2 24-11 31-14 6-26 0-33-17-8-18-8-33 0-46-1-7-5-21-11-42-5-22-9-37-9-45 0-8 0-25 1-50 17 13 31 42 40 88 15-10 27-16 33-16"/>
<glyph unicode="&#104;" d="M371 280l-120-121c-4-3-8-5-13-5-5 0-10 2-13 5l-84 84c-4 4-6 8-6 13 0 5 2 9 6 13l29 29c4 4 8 5 13 5 5 0 9-1 13-5l42-42 78 79c4 3 8 5 13 5 5 0 9-2 13-5l29-30c4-3 6-7 6-12 0-5-2-10-6-13z m40-24c0 28-7 54-20 78-14 24-33 43-57 57-24 13-50 20-78 20-28 0-54-7-78-20-24-14-43-33-57-57-13-24-20-50-20-78 0-28 7-54 20-78 14-24 33-43 57-57 24-13 50-20 78-20 28 0 54 7 78 20 24 14 43 33 57 57 13 24 20 50 20 78z m64 0c0-40-9-77-29-110-20-34-46-60-80-80-33-20-70-29-110-29-40 0-77 9-110 29-34 20-60 46-80 80-20 33-29 70-29 110 0 40 9 77 29 110 20 34 46 60 80 80 33 20 70 29 110 29 40 0 77-9 110-29 34-20 60-46 80-80 20-33 29-70 29-110z"/>
<glyph unicode="&#106;" d="M183 293l146 0 0 54c0 21-7 38-21 52-15 14-32 22-52 22-20 0-37-8-52-22-14-14-21-31-21-52z m238-28l0-164c0-8-3-15-8-20-6-5-12-8-20-8l-274 0c-8 0-14 3-20 8-5 5-8 12-8 20l0 164c0 8 3 14 8 20 6 5 12 8 20 8l9 0 0 54c0 35 13 66 38 91 25 25 55 37 90 37 35 0 65-12 90-37 25-25 38-56 38-91l0-54 9 0c8 0 14-3 20-8 5-6 8-12 8-20z"/>
<glyph unicode="&#107;" d="M393 293c8 0 14-3 20-8 5-6 8-12 8-20l0-164c0-8-3-15-8-20-6-5-12-8-20-8l-274 0c-8 0-14 3-20 8-5 5-8 12-8 20l0 164c0 8 3 14 8 20 6 5 12 8 20 8l9 0 0 91c0 35 13 65 38 90 25 25 55 38 90 38 35 0 65-13 90-38 25-25 38-55 38-90 0-5-2-9-5-13-4-3-8-5-13-5l-19 0c-5 0-9 2-12 5-4 4-6 8-6 13 0 20-7 37-21 52-15 14-32 21-52 21-20 0-37-7-52-21-14-15-21-32-21-52l0-91z"/>
<glyph unicode="&#108;" d="M288 288l0 128-64 0 0-128-128 0 0-64 128 0 0-128 64 0 0 128 128 0 0 64z"/>
<glyph unicode="&#109;" d="M107 213l192 0 0-96 138 139-138 139 0-96-193 0c-23 0-42-19-42-43 0-24 20-43 43-43z"/>
<glyph unicode="&#110;" d="M461 143l-130 36 0 38c38 29 64 78 64 135 0 88-62 160-139 160-76 0-138-72-138-160 0-56 25-106 63-134l0-39-131-36c-30-11-50-39-50-71l0-72 512 0 0 72c0 32-20 60-51 71z m-205 348c51 0 94-39 110-93-4-4-10-6-18-6-21 1-50 19-61 40l-10 17-9-18c-9-18-25-28-46-32-28-5-58 5-71 11 18 48 59 81 105 81z m-116-139c0 13 1 26 4 38 20-10 52-17 82-12 22 4 39 14 52 30 18-21 46-36 70-37 0 0 1 0 2 0 8 0 15 2 21 5 2-8 2-16 2-24 0-76-52-139-117-139-64 0-116 63-116 139z m350-331l-468 0 0 51c0 23 14 43 34 50l147 41 0 42c16-9 34-13 53-13 19 0 37 4 53 12l0-41 146-41c21-7 35-27 35-50z"/>
<glyph unicode="&#98;" d="M320 512c-106 0-192-86-192-192 0-32 8-63 22-90l-133-133 0 0c-11-11-17-25-17-41 0-31 25-56 56-56 16 0 30 6 41 17l0 0 133 133c27-14 58-22 90-22 106 0 192 86 192 192 0 106-86 192-192 192z m-243-475c-5-5-13-9-21-9-15 0-28 13-28 28 0 8 4 15 9 21l0 0 129 129c11-15 25-29 40-40z m243 123c-88 0-160 72-160 160 0 88 72 160 160 160 88 0 160-72 160-160 0-88-72-160-160-160z m0 272c-62 0-112-50-112-112 0-4 4-8 8-8 4 0 8 4 8 8 0 53 43 96 96 96 4 0 8 4 8 8 0 4-4 8-8 8z"/>
<glyph unicode="&#97;" d="M192 112c0-27-21-48-48-48-27 0-48 21-48 48 0 27 21 48 48 48 27 0 48-21 48-48z m224 0c0-27-21-48-48-48-27 0-48 21-48 48 0 27 21 48 48 48 27 0 48-21 48-48z m62 327c-4 8-13 11-21 7l-64-32c-6-2-9-8-9-14l0-16-314 0-7 21c-3 8-12 13-20 10-8-3-13-12-10-20l0 0 64-192c2-7 8-11 15-11l288 0c4 0 8 2 11 5 3 3 5 7 5 11l0 182 55 28c8 4 11 13 7 21z m-354-215l-43 128 303 0 0-128z"/>
<glyph unicode="&#103;" d="M288 256l143 142c4 5 6 10 6 16 0 12-11 23-23 23-6 0-11-1-16-6l-142-142-142 142c-5 5-10 6-16 6-12 0-23-11-23-23 0-6 2-11 6-16l143-142-143-142c-4-5-6-10-6-16 0-12 11-23 23-23 6 0 11 1 16 6l142 142 142-142c5-5 10-6 16-6 12 0 23 11 23 23 0 6-2 11-6 16z"/>
<glyph unicode="&#105;" d="M256 471c59 0 110-21 152-63 42-42 63-93 63-152 0-59-21-110-63-152-42-42-93-63-152-63-59 0-110 21-152 63-42 42-63 93-63 152 0 59 21 110 63 152 42 42 93 63 152 63m44-215c0 0 79 79 79 79 0 0-44 44-44 44 0 0-79-78-79-78 0 0-78 78-78 78 0 0-45-44-45-44 0 0 79-79 79-79 0 0-79-78-79-78 0 0 45-44 45-44 0 0 78 78 78 78 0 0 79-78 79-78 0 0 44 44 44 44 0 0-79 78-79 78"/>
<glyph unicode="&#111;" d="M411 320c-51 0-92 40-92 92 0 51 41 90 92 90 50 0 91-40 91-91 0-52-41-91-91-91z m0 163c-40 0-72-32-72-71 0-40 32-72 72-72 39 0 71 32 71 72 0 39-31 71-71 71z m-310-163c-50 0-91 40-91 92 0 51 40 90 91 90 52 0 92-40 92-91 0-52-41-91-92-91z m0 163c-39 0-71-32-71-71 0-40 32-72 71-72 40 0 72 32 72 72 0 39-32 71-72 71z m155-473c-50 0-92 41-92 91 0 51 41 92 92 92 51 0 92-40 92-92 0-51-42-91-92-91z m0 163c-39 0-72-32-72-72 0-39 33-71 72-71 39 0 72 32 72 71 0 40-33 72-72 72z m110 169l16-8-81-165-17 8z m-219 1l81-165-17-9-81 165z m35 77l147 0 0-18-147 0z"/>
<glyph unicode="&#112;" d="M150 10c-5 0-10 4-10 10l0 472c0 5 4 10 10 10 6 0 10-4 10-10l0-472c0-6-4-10-10-10z m98 0c-5 0-10 4-10 10l0 472c0 5 4 10 10 10 6 0 10-4 10-10l0-472c-1-6-5-10-10-10z m98 0c-5 0-10 4-10 10l0 472c0 5 4 10 10 10 6 0 9-4 9-10l0-472c0-6-4-10-9-10z m146 327l-472 0c-5 0-10 4-10 10 0 5 4 9 10 9l472 0c5 0 10-4 10-9 0-6-4-10-10-10z m0-99l-472 0c-5 0-10 4-10 10 0 6 4 10 10 10l472 0c5 0 10-4 10-10 0-6-4-10-10-10z m0-97l-472 0c-5 0-10 4-10 10 0 6 4 9 10 9l472 0c5 0 10-3 10-9 0-6-4-10-10-10z"/>
<glyph unicode="&#115;" d="M0 361l512 0 0-24-512 0z m0-186l512 0 0-24-512 0z"/>
<glyph unicode="&#116;" d="M90 301l81 0 0-25-46 0 0-18 36 0 0-24-36 0 0-41-35 0 0 108m105 0l36 0 35-108-35 0-7 22-30 0-6-22-28 0 35 108m23-63l-9 32-9-32z m56 63l34 0 0-108-34 0z m132-60c12 4 19 14 19 29 0 21-14 31-44 31l-54 0 0-108 34 0 0 41 12 0 16-41 37 0z m-29 16l-16 0 0 21 16 0c9 0 14-3 14-10 0-6-5-11-14-11z m-292-89l24 0 12-47 11 47 20 0 12-47 12 47 19 0-22-81-21 0-12 46-11-46-22 0-22 81m116 0l63 0 0-19-39 0 0-12 32 0 0-17-32 0 0-14 39 0 0-19-63 0 0 81m91 0l27 0 26-81-26 0-5 16-22 0-5-16-20 0 25 81m18-47l-7 23-6-23z m100 1c9 4 14 11 14 22 0 16-11 24-32 24l-41 0 0-81 25 0 0 31 9 0 12-31 27 0z m-22 13l-12 0 0 16 12 0c7 0 10-3 10-8 0-5-3-8-10-8z m-298-75l31 0 0-9-18 0 0-7 14 0 0-9-14 0 0-15-13 0 0 40m63-4c-3 4-7 5-12 5-5 0-9-1-12-5-4-3-6-9-6-16 0-6 2-12 6-16 3-3 7-4 12-4 5 0 9 1 12 4 4 4 6 10 6 16 0 7-2 13-6 16z m-12-27c-4 0-6 4-6 11 0 8 2 12 6 12 4 0 6-4 6-12 0-7-2-11-6-11z m45 31l0-25c0-4-2-6-6-6-3 0-5 2-5 5l0 26-11 0 0-26c0-10 5-14 16-14 10 0 15 5 15 14l0 26z m15 0l11 0 13-21-1 21 10 0 0-40-10 0-14 25 1-25-10 0 0 40m39 0l15 0c5 0 8-1 11-2 5-4 8-10 8-18 0-6-3-13-7-16-3-2-7-4-13-4l-14 0 0 40m15-30c4 0 7 4 7 11 0 6-3 10-7 10l-3 0 0-21z m32 30l12 0 12-40-12 0-2 8-10 0-3-8-9 0 12 40m8-23l-3 12-3-12z m14 23l0-9 7 0 0-31 12 0 0 31 8 0 0 9z m30 0l12 0 0-40-12 0z m23-35c-4 3-6 9-6 15 0 7 2 13 6 16 3 4 7 5 12 5 5 0 9-1 12-5 4-3 6-9 6-16 0-6-2-12-6-15-3-4-7-5-12-5-5 0-9 1-12 5m18 15c0 8-2 12-6 12-4 0-6-4-6-12 0-7 2-11 6-11 4 0 6 4 6 11z m17 20l11 0 13-21-1 21 10 0 0-40-10 0-14 25 1-25-10 0 0 40m-166 331l-154-24 6-32 152 31z m57 1c65 70 4 98 4 98-37 12-74-31-74-31l19-19c36 35 45 18 45 18 16-28-37-65-37-65l4-24 175-35 11 34z"/>
<glyph unicode="&#117;" d="M374 360l-120 82-118-83 0-2-3 1 0-133 246 0 0 133-4-2z m-232-7l112 80 114-79-114-73z m111 106l114-79 4 6-118 83-116-83 5-6z m-176-287l-12 0 0-24c0-6 3-7 6-7 2 0 5 1 6 2l0-5c-1-2-5-2-7-2-5 0-10 2-10 11l0 25-9 0 0 5 9 0 0 11 5 0 0-11 12 0 0-5z m8 30l5 0 0-31c3 4 9 7 14 7 10 0 14-6 14-16l0-25-5 0 0 22c0 9-3 14-10 14-2 0-13-1-13-15l0-21-5 0z m76-65c0 2 0 4 0 6l-1 0c-2-4-8-8-13-8-10 0-15 6-15 17l0 25 5 0 0-22c0-9 3-15 11-15 1 0 12 2 12 16l0 21 6 0 0-32c0-2 0-6 0-9l-5 0z m22 51c-2 0-4 2-4 5 0 2 2 4 4 4 2 0 5-2 5-4 0-3-3-5-5-5z m-2-11l5 0 0-40-5 0z m40-10c-2 4-5 6-9 6-4 0-8-2-8-6 0-4 2-5 7-6l6-2c6-1 10-5 10-11 0-8-8-12-16-12-5 0-11 3-15 8l5 4c3-4 6-7 10-7 5 0 10 3 10 7 0 4-4 6-8 7l-5 1c-3 1-10 3-10 11 0 8 7 11 15 11 5 0 10-2 13-7z m17 10l9-32 11 32 6 0 10-32 10 32 6 0-12-40-6 0-11 33-10-33-7 0-13 40z m64 11c-3 0-5 2-5 5 0 2 2 4 5 4 2 0 4-2 4-4 0-3-2-5-4-5z m-3-11l5 0 0-40-5 0z m24 0c1-2 1-4 1-6 3 5 8 7 14 7 9 0 14-5 14-16l0-25-5 0 0 22c0 9-3 15-11 15-1 0-12-2-12-16l0-21-6 0 0 32c0 2 0 6-1 9l6 0z m48-18l19 18 8 0-19-18 22-22-9 0-21 21 0-21-6 0 0 65 6 0z m39-3c1-9 7-15 15-15 6 0 10 4 13 7l4-3c-4-7-10-10-17-10-12 0-21 10-21 22 0 12 9 21 21 21 12 0 19-10 19-20l0-2-34 0z m28 4c0 7-5 13-13 13-8 0-15-6-15-13z m17 42l6 0 0-65-6 0z m-368-98l9-32 1 0 10 32 6 0 11-32 9 32 6 0-12-39-6 0-11 32 0 0-11-32-6 0-12 39z m85-15l0 1c0 7-3 11-10 11-5 0-9-2-12-5l-4 4c4 4 10 6 18 6 7 0 14-4 14-14l0-19c0-2 0-6 0-8l-5 0c-1 2-1 4-1 6-3-6-7-7-14-7-7 0-13 3-13 11 0 13 15 14 25 14l2 0z m-2-5c-6 0-19 0-19-8 0-5 6-7 10-7 7 0 11 6 11 13l0 2z m47 5l0 1c0 7-3 11-10 11-5 0-9-2-13-5l-3 4c4 4 9 6 17 6 8 0 15-4 15-14l0-19c0-2 0-6 0-8l-6 0c0 2 0 4 0 6-3-6-8-7-14-7-7 0-14 3-14 11 0 13 16 14 25 14l3 0z m-3-5c-6 0-18 0-18-8 0-5 4-7 9-7 8 0 12 6 12 13l0 2z m22 8c0 4 0 6-1 12l6 0 0-7c2 5 6 9 13 9 1 0 3 0 4-1l-1-5c0 0-2 0-3 0-9 0-12-7-12-13l0-22-6 0z m28 37l5 0 0-31 1 0c3 5 10 7 15 7 13 0 22-9 22-21 0-12-10-21-22-21-5 0-12 3-15 8l-1 0 0-6-5 0z m21-29c-9 0-16-7-16-16 0-8 7-15 16-15 10 0 15 7 15 15 0 9-6 16-15 16z m50-36c-12 0-21 9-21 20 0 13 9 22 21 22 12 0 21-9 21-22 0-12-9-20-21-20z m0 36c-9 0-15-7-15-16 0-8 6-15 15-15 9 0 15 7 15 15 0 9-6 16-15 16z m32-8c0 4-1 6-1 12l6 0 0-7c2 5 6 9 13 9 2 0 3 0 4-1l0-5c-1 0-2 0-4 0-9 0-13-7-13-13l0-22-5 0z m29-36c4-4 10-7 16-7 11 0 15 7 15 16l0 7 0 0c-4-6-10-7-15-7-12 0-21 8-21 20 0 11 9 20 21 20 4 0 10-1 15-7l0 0 0 6 6 0 0-40c0-8-4-21-21-21-8 0-15 3-19 8z m17 14c7 0 14 6 14 15 0 8-6 16-14 16-9 0-15-8-15-16 0-9 6-15 15-15z"/>
<glyph unicode="&#118;" d="M236 309l25 0 0-25-25 0z m13-1c-7 0-12-5-12-11 0-7 5-12 12-12 6 0 11 5 11 11 0 4-1 7-3 9-2 2-5 3-8 3m-10-29l19 0 0-74-19 0z m0-74l19 0 0 74-19-3 0-71m-73 76l60 0 0-78-60 0z m33-1c-9 0-17-2-25-6l-2-1 5-12 3 2c6 2 12 4 17 4 7 0 10-3 10-10l0-4-11 0c-18 0-29-9-29-24 0-13 11-25 27-25 13 0 24 4 31 11l0 40c0 19-13 25-26 25z m8-61c-2-1-6-2-10-2-7 0-11 5-11 12 1 6 4 12 13 12l8 0 0-22z m152 61l61 0 0-77-61 0z m35-63c-5 0-8 1-11 4-3 4-5 11-4 19l40 0 0 2c-1 26-9 38-29 38-22 0-30-20-30-39-1-12 4-24 12-31 5-4 12-6 20-6 5 0 9 0 13 2 8 2 14 6 14 6l-5 11c-1-1-9-6-20-6z m-4 49c8 0 9-9 9-15l-20 0c1 8 4 15 11 15z m-118 15l45 0 0-76-45 0z m1-15l0-61 19 0 0 57c2 3 7 5 12 5 5 0 8-1 8-1l5 12c-2 1-7 2-13 2-8 0-20-2-31-14m157 34l31 0 0-96-31 0z m28-83c-8 0-9 4-9 9l0 73-19-3 0-68c0-17 9-24 24-24 3 0 7 1 7 1l0 12c0 0-2 0-3 0m-137 83l33 0 0-96-33 0z m20-1l-19-3 0-69c0-15 9-22 24-22 4 0 7 0 7 0l0 12c0 0-1 0-3 0-8 0-9 4-9 9l0 39 12 0 0 14-12 0 0 20m-290-2l90 0 0-92-90 0z m37-90c6 2 10 5 15 8l1 1c4 3 9 6 14 10 10 9 16 18 20 29 1 5 3 13 1 21-2 6-5 11-11 15 0 0-7 5-19 5-11 0-23-4-36-13l-1 0 0 0c0 0-1 0-1-1 0 0-1 0-1 0-3-2-5-4-7-6-6-5-12-14-12-22 0-3 2-6 4-7 2-2 5-3 8-3 7 0 14 4 19 7 1 0 1 0 1 0 1 1 2 1 3 2l1 1c7 4 14 9 22 12 3 1 4 1 6 1 1 0 2 0 3 0 2-1 4-2 5-4 2-4 1-10-1-16-4-8-10-15-18-23-5-3-9-6-12-8l0 0c-2-1-4-2-6-3l0 0c-1 0-1 0-2-1-8-2-3 6-3 6 2 2 4 3 6 5 1 1 2 2 3 4l0 0c2 1 4 3 4 6 0 4-4 6-8 6l0 0c-4 0-7-2-9-3-2-2-4-5-6-7-2-4-7-12-2-20 1-2 5-4 9-4 3 0 6 1 10 2m161 101c-7 0-12-5-12-11 0-7 5-12 12-12 6 0 11 5 11 11 0 4-1 7-3 9-2 2-5 3-8 3m-15 3l29 0 0-29-29 0z m5-106l19 0 0 74-19-3 0-71m-3 77l25 0 0-80-25 0z m-37-2c-9 0-17-2-25-6l-2-1 5-12 3 2c6 2 12 4 17 4 7 0 10-3 10-10l0-4-11 0c-18 0-29-9-29-24 0-13 11-25 27-25 13 0 24 4 31 11l0 40c0 19-13 25-26 25z m8-61c-2-1-6-2-10-2-7 0-11 5-11 12 1 6 4 12 13 12l8 0 0-22z m-43 64l64 0 0-82-64 0z m230-66c-5 0-8 1-11 4-3 4-5 11-4 19l40 0 0 2c-1 26-9 38-29 38-22 0-30-20-30-39-1-12 4-24 12-31 5-4 12-6 20-6 5 0 9 0 13 2 8 2 14 6 14 6l-5 11c-1-1-9-6-20-6z m-4 49c8 0 9-9 9-15l-20 0c1 8 4 15 11 15z m-33 16l65 0 0-81-65 0z m-84-16l0-61 19 0 0 57c2 3 7 5 12 5 5 0 8-1 8-1l5 12c-2 1-7 2-13 2-8 0-20-2-31-14m-3 17l50 0 0-81-50 0z m188-66c-8 0-9 4-9 9l0 73-19-3 0-68c0-17 9-24 24-24 3 0 7 1 7 1l0 12c0 0-2 0-3 0m-31 85l37 0 0-100-37 0z m-86-3l-19-3 0-69c0-15 9-22 24-22 4 0 7 0 7 0l0 12c0 0-1 0-3 0-8 0-9 4-9 9l0 39 12 0 0 14-12 0 0 20m-22 3l37 0 0-100-37 0z m-231-95c6 2 10 5 15 8l1 1c4 3 9 6 14 10 10 9 16 18 20 29 1 5 3 13 1 21-2 6-5 11-11 15 0 0-7 5-19 5-11 0-23-4-36-13l-1 0 0 0c0 0-1 0-1-1 0 0-1 0-1 0-3-2-5-4-7-6-6-5-12-14-12-22 0-3 2-6 4-7 2-2 5-3 8-3 7 0 14 4 19 7 1 0 1 0 1 0 1 1 2 1 3 2l1 1c7 4 14 9 22 12 3 1 4 1 6 1 1 0 2 0 3 0 2-1 4-2 5-4 2-4 1-10-1-16-4-8-10-15-18-23-5-3-9-6-12-8l0 0c-2-1-4-2-6-3l0 0c-1 0-1 0-2-1-8-2-3 6-3 6 2 2 4 3 6 5 1 1 2 2 3 4l0 0c2 1 4 3 4 6 0 4-4 6-8 6l0 0c-4 0-7-2-9-3-2-2-4-5-6-7-2-4-7-12-2-20 1-2 5-4 9-4 3 0 6 1 10 2m-40 92l95 0 0-97-95 0z"/>
<glyph unicode="&#119;" d="M182 280l0-1 0 0z m278-49c4-3-7-12-7-12-11-13-14-16-14-16-3-4-5-5-8-6-3-1-8-1-8-1-161-16-232 8-232 8-18 6-36 15-41 17-3-3-5-4-5-4-24-20-50-22-50-22l-3 1c-2 0-3 0-4 0 2 0 2 0 2 0l3-1-2 0c-17 0-28 8-28 8-12 9-12 23-12 23 1 13 13 22 13 22 11 8 26 7 26 7 17 0 45-13 45-13 2-1 5-2 7-3 7 9 10 16 10 16 5 10 7 17 7 17l-65 0 0 7 31 0 0 17-43 0 0 8 43 0 0 13c0 3 5 4 5 4l5 0 11 0 0-17 45 0 0-8-45 0 0-17 36 0-1-5c-2-8-5-16-5-16-5-9-10-18-16-25 16-5 29-8 29-8 6-2 13-4 20-5l0 63c0 0-8-4-15-7l-3 5c0 0 7 5 15 12 0 0 14 15 14 25 0 0 0 2 6 3l4 1 10 0 0-4-2-9c0 0-3-6-7-11l0-81c15-1 30-2 44-2l0 74-41 0 0 7 41 0 0 22c0 2 6 3 6 3l5 1 11 0 0-26 12 0 0-7-12 0 0-74c16 0 26 0 26 0 13 1 26 2 38 3l0 37-30 0 0 8 30 0 0 19-43 0 0 28c0 3 10 4 10 4l11 0 0-5 22 1 0 8c0 2 5 3 5 3l5 1 12 0 0-11 34 1c10 0 10-9 10-9l-2-13c-1-4-4-4-4-4l-1 0 0-4-37 0 0-19 31 0 0-8-31 0 0-35c45 4 72 10 72 10z m-375-35c-10 2-16 6-16 6-1 0-1 0-1 1 0-1 1-1 1-1 5-4 11-5 16-6z m49 33l-17 9c-5 2-4 1-13 5-9 4-17 2-17 2-1 0-1 0-1 0-21-5-21-19-21-19 0-11 9-17 9-17 8-4 19-4 19-4 15 0 39 22 39 22 0 1 1 2 2 2z m273 60l1 12c0 3-3 3-3 3l-22-1-22-1 0 1-22-1 0-13 68 0z m-154-42c0 0 2-2 5 0l8 8 7 8c0 0 2 2 0 5l-7 8-8 7c0 0-3 2-5 0l-8-7-7-8c0 0-2-3 0-5l7-8z m162 0l-6 6c0 0-2 1-3 0l-7-6-5-6c0 0-1-2 0-3l5-6 7-6c0 0 1-2 3 0l6 6 6 6c0 0 1 1 0 3z"/>
<glyph unicode="&#120;" d="M88 223c-1-2-2-4-2-6-1-2-2-4-2-5-1-2-2-4-3-6-1-3-2-5-4-7-1-2-3-3-6-4-2-1-5-2-7-2-3-1-6-1-9 1-1 0-2 1-3 2 0 1-1 2-1 4 0 1 0 2 0 3 1 2 1 3 2 4 1 3 2 6 3 10 1 3 2 6 3 9 1 1 1 2 2 3 1 0 1 0 2 0 1 0 1 0 1 0 0 0 0 0 1 0 1 0 2 0 2 0 0-1 0-2 0-3-1-3-2-6-3-8-1-3-2-6-3-9-1-1-1-2-1-3 0 0-1-1-1-2 0-2 0-3 1-4 1-1 3-1 4-1 2 0 4 0 5 1 2 1 3 2 4 4 1 2 2 5 3 7 1 3 2 5 3 7 0 2 1 3 1 5 1 1 1 3 2 4 0 0 0 1 0 1 0 0 1 0 1 0 1 1 2 1 3 1 1 0 2 0 3-1 0-2-1-4-1-5z m73 93c-1 0-2 0-2-1-2-1-4-3-6-5-2-2-3-4-4-6-1-1-2-1-3-2-1 0-2 0-3 0-3 0-7 0-11 0-4 0-8 0-12 0-1 0-3 0-4-1-1 0-1-1-2-2-1-1-1-2-1-2 0-1 0-1 0-2 1 0 2-1 2-2 1 0 2-1 3-1 1 0 3-1 4-1 1-1 3-1 4-2 4-1 6-3 7-6 2-3 2-7 1-9-1-3-1-5-2-7-1-3-2-5-3-7-2-2-4-4-6-6-1-1-4-3-6-4-3 0-5-1-7-1-3-1-5-1-8-1-8-1-15-1-23-1-8 0-15 0-23 0-1 0-2 0-2 0-1 0-2 0-3 0 1 2 2 3 2 5 1 1 1 3 2 4 0 1 1 2 1 3 0 2 1 3 1 4 1 0 1 1 1 1 1 1 1 1 2 1 0 0 1 0 1 0 1 0 1 0 2 0 6 0 13 0 20 0 6 0 13 0 20 0 0 0 1 0 2 0 1 0 2 0 2 0 1 1 2 1 3 2 0 1 1 2 1 3 0 1 0 2-1 3 0 1-1 1-2 2-1 0-2 0-3 1-1 0-2 0-3 1-2 0-3 0-5 1-1 1-3 2-4 3-2 1-3 3-4 5 0 2 0 4 0 6 1 3 2 7 4 10 1 3 3 6 5 9 2 1 3 2 5 3 1 1 3 2 5 3 2 0 4 1 6 1 2 0 4 0 6 0 7 0 14 0 20 0 7 0 13 0 20 0 0 0 1 0 1 0 1 0 1 0 1 0l0-1c0 0-1 0-1-1z m-88-83c-1-1-3-1-5 1 0 2 1 3 2 4 1 1 3 1 5 0 0-2-1-4-2-5z m14 5c1-1 1-2 0-3-1-1-1-1-2-2-1 0-2-1-3-1-1 0-1 1-2 1 0 1 0 1 0 2 0 1 1 2 1 3 1 0 2 1 4 1 1 0 2-1 2-1z m28-26c0 0 0-1 0-1 2-1 2-2 3-3 0-1 0-2-1-3-1-3-3-6-5-7-2-2-4-4-7-4-2 0-3 0-4 0-2 0-3 0-5 0-1 0-2 0-3 0-1 0-2 0-3 0-1 0-2 0-2 0 0 1 0 1 0 2 1 2 1 4 2 6 1 1 1 3 2 5 1 3 2 6 4 9 1 4 2 7 3 10 1 1 1 2 2 2 0 1 1 1 3 1 2 0 4 0 5 0 2 0 4 0 6 0 1 0 2 0 3-1 1 0 2-1 2-2 1-1 1-3 1-4 0-1 0-3-1-4-1 0-1-1-2-2 0-1-1-1-2-2 0 0 0 0-1 0 0-1 0-1-1-1 1-1 1-1 1-1z m-14-3c0-1-1-1-1-1-1-1-1-3-2-4 0-1 0-2-1-4 0 0 0-1 0-1 1 0 1 0 2 0 1 0 2 0 3 0 1 0 2 0 3 1 1 0 2 1 3 2 1 0 1 1 1 2 1 2 1 3 0 3 0 1-1 1-2 2-1 0-1 0-2 0-1 0-1 0-2 0-1 0-1 0-2 0z m8 6c2 1 3 2 4 5 0 0 0 0 0 1 0 1-1 2-2 2-1 0-2 0-3 1-1 0-1 0-2 0-1-1-1-1-1-2-1-1-1-2-1-3-1-2-1-3-2-4 2-1 5-1 7 0z m38-5c-1-1-2-1-4-1-1 0-2 0-3 0-1 0-2 0-3 0-1 0-2 0-2-1-1 0-1-1-2-2 0-1 0-2-1-3 0-1-1-3-1-4 3 0 5-1 7 0 2 0 3 0 5-1 1-1 1-2 0-3 0-1-1-1-3-1-2 0-5 0-7 0-3 0-6 0-8 0-1 0-2 0-2 0-1 1-1 2 0 3 1 3 2 6 3 10 1 3 2 6 4 9 0 2 1 4 2 5 0 2 1 3 1 5 1 1 1 2 2 2 1 1 2 1 2 1 3 0 6 0 8 0 3 0 5 0 8 0 1 0 2 0 2 0 0-1 0-2 0-3-1-1-1-2-2-2 0 0-1 0-3 0-1 0-2 0-3 0-1 0-3 0-4 0-1 0-3-1-3-1 0 0-1-1-1-3-1-1-1-2-1-2-1-1-1-2-1-3 2 0 4-1 5 0 2 0 4 0 5-1 1-1 0-3 0-4z m47 109c3-1 5-2 7-3 2-1 3-2 4-3 1-2 1-3 2-5 0-2 1-4 1-6 0-3 0-5 0-8-1-2-1-5-2-8-1-3-2-5-3-8-2-3-3-6-5-9-1-3-3-5-5-8-2-1-3-3-4-4-2-1-3-3-4-4-2-1-4-2-6-3-2-1-4-2-6-2-2-1-3-1-5-1-1-1-3-1-5-1-2 0-5 0-7 1-3 0-5 1-8 2-3 2-5 4-6 7-2 2-2 5-2 8 0 3 0 6 0 8 1 3 1 6 2 8 2 5 3 9 5 12 3 4 5 8 8 11 2 4 5 6 9 9 3 2 7 4 11 5 2 1 4 2 6 2 1 1 3 1 5 0 3 0 6 0 8 0z m-17-90c1 0 3 0 4-1 2 0 3-1 4-2 1-1 1-2 1-4 0-2-1-5-2-6-1-2-3-3-5-4 0-1-1-1-1-1 0 0 0 0-1 0 0-1-1-1-1-1 0-1 0-1 1-2 1-2 1-4 1-6 0-2 1-4 1-7-1 0-1-1-1-1-1-1-2-1-2-1-1 0-2 0-3 0-1 0-1 0-2 1 0 0 0 1 0 2-1 1-1 3-1 4 0 1 0 3 0 4 0 1 0 2-1 2 0 1-1 1-2 2 0 0-1 0-2 0-1 0-1-1-1-2-1-1-1-2-2-3 0-1-1-2-1-3 0-1-1-2-1-3 0-1 0-1-1-2 0-1-1-2-2-2-2 0-3 0-4 1-1 0-1 0-1 1 0 0 0 0 1 1 0 2 1 3 1 5 1 2 2 4 2 6 1 3 2 6 4 9 1 2 2 6 3 9 1 2 1 3 2 4 1 0 2 0 4 0 1 0 1 0 2 0 0 0 1 0 2 0 1 0 2 0 4 0z m-8 33c1 0 2 0 3 1 2 1 3 2 4 3 1 2 2 3 3 5 1 2 2 5 4 8 1 2 2 5 3 8 0 2 1 3 1 5 1 2 1 3 1 5 0 3-1 5-3 6-2 1-4 1-6 1-2-1-4-2-5-4-2-1-3-3-4-4-2-3-3-5-4-7-1-2-2-5-3-7-1-2-2-4-2-7-1-2-1-4-1-6-1-2 0-3 0-4 1-1 2-2 3-3 1 0 1 0 2 0 1 0 2 0 2 0 1 0 2 0 2 0z m1-39c0 0-1-1-1-3-1 0-1-1-1-2-1 0-1-1-1-2 0-1 0-2 0-2 1-1 1-1 3 0 0 0 1 0 1 0 0 0 1 0 1 0 1 0 3 0 4 1 0 1 1 2 2 3 0 1 0 2 0 3-1 1-2 2-3 2 0 0-1 1-1 1-2 0-3-1-4-1z m53-19c0 0 1 1 1 2 2 3 4 6 6 10 2 3 4 7 6 10 1 2 2 3 3 3 1 0 3 0 4 0 0 0 1 0 1-1 0 0 0-1 0-1-1-1-1-1-1-2-1 0-1-1-1-1-3-5-6-10-9-14-3-5-6-9-8-14-2-1-3-2-5-3-2 0-3 0-5 0-1 0-1 1-1 1-1 1-1 1-1 2 1 1 1 3 1 4 0 2 0 4 1 5 0 2 0 3 0 5 0 2 0 3 0 5 0 0-1 0-1 0 0-1 0-1-1-1-2-3-3-6-5-9-1-3-3-6-5-8-1-2-2-3-4-4-2-1-4-1-6 0 0 0-1 1-1 1 0 1 0 1 0 1 0 0 0 1 0 1 0 1 0 1 0 2 0 2 0 5 1 8 0 2 0 5 0 7 1 2 1 4 1 6 0 2 1 4 1 7 0 1 0 2 1 3 0 0 1 0 3 0 2 0 3 0 4 0 0-1 0-2 0-4-1-2-1-4-1-6-1-1-1-3-1-5 0-2-1-4-1-5 0-2 0-4-1-6 1 0 2 0 2 1 1 0 1 1 1 1 2 4 4 7 6 11 2 3 4 7 7 10 0 1 2 2 3 3 2 1 3 1 5 0 0 0 0 0 0-1 1 0 1-1 1-1 0-1 0-2 0-3-1-1-1-2-1-3 0-3-1-6-1-9 0-3-1-5-1-8 0-1 0-1 0-2 1 1 1 1 2 2z m56 112c-1-1-2-2-3-3-1-1-3-3-4-4-2-2-3-3-5-5-1-1-1-1-2-2-1 0-2 0-3 0-3 0-7 0-10 0-3 0-6 0-9 0-1 0-2 0-3-1-1 0-2-1-2-3 0 0-1-1-1-2-1-2-1-3-1-4-1-1-1-1 0-2 0 0 1-1 2-1 2 0 4 0 6 0 2 0 4 0 6 0 1 0 2 0 2 0 1 0 1 0 2 0-1-2-2-5-3-7-1-2-1-4-2-6 0 0-1 0-1 0-1 0-1 0-2 0-2 0-4 0-6 0-3 0-5 0-7 0-2 0-3-1-3-1 0 0-1-1-1-2-2-3-3-7-4-10-1-4-2-7-4-10 0-1 0-1 0-1 0-1 0-1 0-1-1-2-2-3-2-3-1-1-2-1-4-1-3 0-5 0-8 0-3 0-6 0-9 0 1 1 1 3 2 4 0 2 1 3 1 5 1 2 1 3 2 5 1 2 1 3 2 5 1 3 2 5 3 8 1 2 1 4 3 7 0 1 1 3 1 4 1 2 1 3 2 5 0 3 1 5 2 8 1 2 2 5 3 7 2 4 5 7 7 9 3 2 7 3 11 4 2 0 3 0 4 0 2 0 3 0 4 0 6 0 12 0 17 0 6 0 12 0 17 0 1 0 1 0 2 0 0 0 1 0 1 0-1-1-2-2-3-2z m-19-122c0 0-2 0-4 0-2 0-4 0-6 0-3 0-5 0-7 0-2 0-3 0-3 0 0 1 0 2 0 3 2 4 3 7 4 10 1 4 3 7 4 11 1 1 1 3 1 4 1 2 1 3 2 4 0 1 1 2 1 2 1 1 2 1 2 1 3 0 6 0 9 0 3 0 6 0 9 0 0-2 0-3-1-4 0-1-1-1-3-1-1-1-3-1-4-1-2 0-3 0-4 1-1 0-2-1-2-1-1 0-1-1-2-2 0-1 0-2-1-3 0-1 0-2-1-3 1 0 2 0 2 0 1 0 1 0 2 0 0 0 1 0 2 0 1 0 2 0 3 0 1 0 2-1 2-1 0-1 0-1 0-2-1-1-1-2-2-2-1-1-1-1-3-1-1 0-2 0-3 0-1 0-2 0-3 0-1 0-1 0-2-1 0 0-1 0-1-1 0-1-1-2-1-3 0-1 0-2-1-3 0-1 0-1 0-2 0 0 1 0 2 0 1 0 3 0 4 0 1 0 2 0 4 0 0 0 1 0 1 0 1-1 1-1 2-1-1-2-1-3-2-4z m66 96c0-3-1-6-2-9-1-2-2-5-4-7-1-2-2-4-3-6-2-4-5-8-8-10-3-3-6-6-10-8-2-1-4-2-6-2-2-1-5-1-7-2-2 0-4 0-6 0-1 0-3 0-5 0-4 1-7 2-10 4-2 2-4 6-5 10-1 3-1 6-1 9 1 3 1 6 2 9 1 3 2 7 4 10 2 4 4 8 6 11 2 3 5 6 8 9 3 3 7 6 11 8 3 1 7 2 10 3 4 1 7 1 10 0 2 0 3 0 4-1 2 0 3 0 4-1 3-1 6-3 7-6 2-2 2-5 3-9 0 0 0-1 0-1 0 0 0-1 0-2 0-3-1-6-2-9z m-40-61c1 0 1 0 1 0 1 0 1 0 1-1 0 0 0 0 0-1 0 0 0 0 0-1 0 0 0-1 0-1-1-3-2-6-4-9-1-4-2-7-3-10-1-2-1-4-2-5-1-2-1-4-2-5 0-2-1-2-3-3-1 0-2 0-3 0-1 1-1 1-1 2 0 0 0 0 0 1 0 1 1 2 1 3 0 1 0 2 1 3 1 2 2 5 3 8 1 3 2 6 3 9 1 1 1 2 1 3 1 1 1 3 2 4 0 2 1 2 1 3 1 0 2 0 4 0 0 0 0 0 0 0z m-6 39c0-1 0-1 0-2 0-1 0-2 1-3 1-1 2-1 3-1 2 0 4 0 6 0 2 1 4 2 5 4 1 1 3 3 4 6 1 2 2 4 3 6 1 3 2 5 3 8 0 2 1 5 2 7 0 1 0 2 0 3 1 1 1 2 1 3 0 1-1 1-1 2-1 1-1 2-2 2-2 1-3 2-5 1-2 0-3-1-5-2-2-1-3-3-5-4-1-2-2-4-3-6-1-3-2-5-3-7-1-2-1-4-2-5-1-2-1-4-2-5 0-2 0-4 0-6 0 0 0-1 0-1z m33-45c0 0-1 0-2 1-1 0-2 0-4 0-1 0-2-1-3-2-1-1-1-2-1-3 0-1 0-2 1-3 1 0 2-1 2-1 1 0 2-1 2-1 2-1 4-2 4-4 1-1 1-3 0-5 0-2-1-4-3-6-1-1-3-3-5-4-2-1-5-2-7-2-3-1-5 0-8 1-2 0-3 1-3 3 0 1 0 2 2 3 0 1 1 1 1 1 0 0 1 0 1 0 1-1 2-1 2-1 1-1 1-1 2-1 2-1 3-1 5 0 2 0 3 1 4 3 1 1 1 2 1 3 0 0 0 1-1 2-1 0-1 1-2 1 0 0 0 0-1 0 0 0 0 0 0 1-4 2-6 4-6 7 0 2 1 5 3 7 2 3 5 5 8 6 3 1 7 1 11 0 1-1 1-1 2-1 0-1 0-2 0-3-1-1-1-1-1-2 0 0-1-1-2-1 0 0-1 0-2 1z m8 31c1 2 1 4 2 6 1 3 2 6 3 8 0 2 1 5 2 7 1 2 2 3 2 5 1 1 1 3 2 4 1 2 1 4 2 5 0 2 1 3 1 5 1 3 2 6 4 9 1 3 2 6 3 9 0 1 1 2 1 2 0 1 0 2 1 3 0 0 0 1 1 1 0 0 0 0 1 0 1 0 2 0 3 0 1 0 2 0 3 0 4 0 7 0 10 0 3 0 7 0 10 0 2 0 4 0 6 0 3-1 5-2 7-3 2-1 3-3 4-5 1-2 2-4 1-6 0-6-1-10-4-14-3-4-7-7-12-10-1 0-1-1-2-1 0 0-1 0-1-1-1 0-2-1-2-1 0 0 0-1 1-2 1-1 1-3 2-5 0-2 1-3 2-5 0-1 1-2 1-3 0-1 0-3 1-4 0-1 1-3 1-4 0-2 1-4 1-5 0-1 0-1 0-1 0 0 0 0 0 0-1-1-5-1-11-1-6 0-10 0-11 1 0 2-1 4-2 7 0 2-1 5-2 7 0 1 0 2 0 3 0 2-1 3-1 4 0 0 0 0-1 1 0 0 0 0 0 0-1 0-1 0-1 0-1 0-1-1-1-1-1-2-2-4-2-6-1-2-2-5-3-7 0-1-1-2-1-4-1-1-1-2-2-4 0 0 0-1 0-1-1 0-1 0-2 0-3 0-6 0-10 0-3 0-6 0-10 0 1 3 2 5 3 7z m6-61c0 0-1 0-2 0-2 1-4 2-5 4-1 2-1 4 0 6 1 2 1 4 2 6 1 2 1 4 2 7 1 1 2 3 2 5 1 1 1 3 2 5 0 1 1 2 3 3 1 1 3 1 4 0 0-1 1-1 1-1 0 0 0-1 0-1-1-2-2-4-3-6 0-2-1-4-2-6 0-1-1-3-1-4-1-2-1-3-2-5 0-1 0-2-1-3 0-1 1-2 2-3 1 0 2-1 3-1 1 0 2 0 3 0 2 0 3 1 4 2 2 2 3 3 3 5 1 1 2 3 3 5 0 2 1 4 2 6 0 1 1 3 1 5 1 1 2 3 2 4 1 2 2 3 3 3 2 1 3 1 4 0 1-1 1-1 1-1 0-1 0-1 0-1-1-3-2-6-4-9-1-3-2-5-3-8 0-2-1-3-2-5 0-1-1-2-2-4-2-3-4-5-7-6-3-2-6-3-10-3-1 1-2 1-3 1z m36 111c0 0 0 0-1 0 0 0 0 0 0 0-1 0-2 0-3 0-1-1-1-1-1-2-1-3-2-5-3-7-1-2-2-5-3-7 0-1 0-1 0-1 1-1 1-1 2-1 4-1 8 0 11 3 3 2 5 5 5 9 1 1 1 2 0 3 0 1-1 2-2 2-1 1-2 1-2 1-1 0-2 0-3 1z m21-97c0 0 0 0 0 1 1 3 2 6 3 9 1 3 2 6 3 9 1 2 2 3 3 3 1 0 3 0 5-1-1 0-1-1-1-1 0-1 0-1 0-2-1-2-2-4-2-6-1-2-2-5-3-7-1-2-2-4-2-7-1-2-2-5-3-7 0-1 0-1-1-1 0-1 0-1 0-2-1 0-1 0-1-1 0 0-1 0-1 0-1 0-2 0-3 0-2 0-3 0-4 0 0 0-1 0-1 1 0 1 0 1 0 2-1 2-1 4-1 6 0 2-1 3-1 5 0 2 0 3-1 5 0 1 0 2 0 4 0 0 0 0 0 1-1 0-1 0-1 1-1-1-1-2-2-3 0 0 0-1 0-2-1-3-3-6-4-9-1-3-2-6-3-9 0-1-1-2-2-2 0-1-1-1-3-1 0 0-1 0-1 1-1 0-1 1-1 2 1 1 2 3 2 5 1 2 2 3 2 5 1 3 3 6 4 9 1 3 2 6 3 9 0 1 0 2 1 3 0 1 1 1 2 1 1 1 2 1 3 1 2 0 3 0 4-1 0 0 1 0 1 0 0-1 0-1 0-1 1-1 1-1 1-2 0-1 0-2 1-3 0-2 0-4 1-7 0-2 0-4 1-7 0 0 0-1 0-1 0 0 0-1 0-1 1 0 1 0 2 1z m8 46c1 1 2 3 2 5 1 2 2 4 3 7 1 2 1 5 2 7 1 2 1 3 2 5 0 1 1 2 1 4 1 2 2 5 3 7 1 2 2 5 3 7 0 1 0 1 0 2 1 0 1 1 1 1 0 2 0 3 0 3 0 1-1 1-2 1-2 0-3 0-4 0-1 0-2 0-4 0 0 0-1 0-1 0-1 0-1 1-1 1 0 3-1 6-1 8-1 3-3 5-5 7 12 0 23 0 35 0 11 0 23 0 35 0 0 0-1-1-1-1 0 0 0 0 0-1 0-2-1-4-2-6 0-2-1-4-2-6 0-1-1-1-1-2-1 0-2 0-3 0-3 0-6 0-9 0-3 0-6 0-9 0-1 0-1 0-2 0 0 0-1 0-1 0-1 0-1 0-1-1-1 0-1-1-1-1-1-3-2-6-4-9-1-4-2-7-3-10-1-3-2-6-3-9-1-3-2-6-3-9-1-2-2-5-3-7-1-2-2-5-3-7 0-1-1-1-1-1 0-1 0-1-1-1-3 0-6 0-9 0-2 0-5 0-8 0 0 0 0 1-1 1 1 1 2 3 2 5z m28-45c-1 0-1 0-2 0 0 0-1 0-1 1-1 0-1 0-2 0 0 1 0 1 1 2 0 0 0 1 0 1 1 1 1 1 1 1 1 0 1 1 1 1 2 0 4 0 6 0 2 0 3 0 5 0 1 0 1-1 1-1 1 0 1-1 1-2 0 0-1-1-1-1 0-1 0-1 0-1-1-2-2-4-2-6-1-1-1-3-2-5 0-1-1-2-1-2-1-1-2-1-3-2-2 0-3-1-5-1-2 0-4 0-5 0-2 0-3 0-4 0-1 0-3 0-4 1-1 1-2 1-3 3-1 1-2 2-2 4-1 3-1 5 0 8 1 2 2 4 3 7 2 2 4 5 6 7 2 2 5 3 8 5 3 1 5 1 8 2 3 0 6-1 9-2 1 0 2-1 3-3 0-1 0-2-2-3 0-1-1-1-1-1 0 0-1 0-1 0-1 0-2 1-2 1-1 1-2 1-3 1-2 1-5 1-7 0-2 0-4-1-6-3-2-2-4-4-5-6-1-2-2-5-3-8 0-1 0-2 1-4 1-1 2-2 4-2 1-1 2-2 3-1 2 0 3 0 4 1 0 0 1 0 1 0 0 0 0 0 0 0 1 1 2 3 2 4 0 1 1 3 1 4-1 0-1 0-2 0z"/>
<glyph unicode="&#121;" d="M435 354c0-3 0-6-1-9l-41-178c-1-3-2-6-4-9-1-3-4-5-6-8-3-2-6-3-9-4-3-2-6-2-9-2l-270 0c-3 0-6 0-8 2-3 1-5 2-6 4-2 3-3 5-4 8 0 3 0 6 1 9l41 178c1 3 2 6 4 9 1 3 4 6 6 8 3 2 6 4 9 5 3 1 6 1 9 1l270 0c3 0 6 0 8-1 3-1 5-3 6-5 2-2 3-5 4-8z m-264-44l0 1-13 0c0 0-1-3-2-8-2-5-3-13-5-22-1-3-2-6-2-8-1-2-2-4-3-5-1 0-2-1-3-1-1 0-3 0-4 0-3 0-4 0-5 1-1 0-2 2-2 3l0 3 2 7 7 29 0 1c-4 0-8 0-10 0-2 0-4 0-5 0l-1-2-6-29-1-3-1-7c0-1 0-2 0-3 0 0 0-1 0-2l1-2c2-2 4-3 6-4 3-1 7-2 11-2 4 0 8 1 10 1 3 1 5 2 7 3 2 2 3 4 5 6 2 3 3 6 5 10l0 3z m27-22c-1 1-2 1-4 1-2 0-4 0-5 0-1-1-2-1-4-1l-1-2 1 3-1 1c-2-1-4-1-6-2-2 0-4 0-7 0l0-1c0-1 0-2 0-3 0-1 0-3 0-4-1-2-1-4-2-6 0-2 0-4-1-6 0-1 0-2-1-4-1-2-1-4-2-7l13 0 0 1c0 0 0 1 0 1 0 0 0 1 0 1 0 1 0 1 1 1 0 1 0 1 0 2 0 0 0 1 0 2 0 0 0 1 0 2 0 1 0 2 1 3 0 1 0 2 1 4 0 1 0 2 0 3 0 0 0 1 0 1 1 1 1 1 2 1 1 1 2 1 2 1 1 0 2-1 2-1 0-1 1-2 1-2 0-1-1-3-1-4 0-2-1-4-2-6l0-4c0 0 0-1 0-1 0-1-1-1-1-2 0 0 0-1 0-2 0 0 0 0 0-1l11 0 1 1c0 1 0 2 0 3 0 1 0 2 1 3 0 1 0 2 0 3 1 1 1 2 1 3l1 4c1 3 1 5 1 7 0 2 0 4 0 5 0 1-1 1-2 2z m21-5c-1-1-2-1-3-1-1 0-2-1-4-1l-2 0c-1 0-1 0-2 0-1 0-1 0-2 0 0-1 0-1 0-2 0 0 0-1 0-2-1 0-1-1-1-1 0-1 0-1 0-2 0 0 0-1 0-2-1-2-1-3-2-5 0-2 0-3 0-3 0-1-1-2-1-2 0 0 0-1 0-2-1-1-1-2-1-3l12 0 0 1c0 1 1 1 1 2 0 1 0 2 0 2l0 1c1 1 1 2 1 3 1 1 1 2 1 4 0 0 0 0 0 1 0 0 1 1 1 2 0 0 0 1 0 1 0 1 0 1 0 2 0 0 0 0 0 1 1 0 1 1 1 1 1 1 1 2 1 2 0 1 0 1 0 1z m2 7c0 0-1 0-2 1-1 1-2 1-4 1-2 0-4-1-6-2-1-1-2-2-2-3 0-1 0-2 1-3 2-1 3-1 5-1 2 0 4 1 5 1 1 1 1 2 2 2 0 0 1 1 1 2 0 0 0 1 0 2z m10-33c2-1 3-1 4-1 2 0 5 0 7 2 3 1 5 2 7 4 1 2 2 3 3 5 1 2 1 4 1 6 1 3 1 5 1 7-1 2-1 4-2 5-1 1-3 2-4 3-2 0-4 1-6 1-3 0-6-1-8-1-2-1-4-3-6-4-1-1-2-3-3-5-1-1-2-4-3-6-1-4-1-8 0-10 0-3 2-4 5-5 1 0 3-1 4-1z m12-60c-2 0-3 0-3 0-1 1-2 1-2 2l4 9 12 0 2 7-12 0 2 5 11 0 2 8-28 0-3-8 7 0-1-5-7 0-3-7 7 0-3-13c0-1 0-1 0-2 0 0 0-1 0-1l3-1 16 0 2 7z m9 47l-11 0-3-5c-1-1-1-2-1-2-1 0-1-1-2-1l-4 0-2-8 6 0c1 0 2 1 2 1 1 0 2 1 3 2 0 0 0 0 1 0 0 0 0 0 1 0l2 2 15 0 2 7-11 0z m-18 26c0 0 0 1 0 1 0 1 0 1 0 2 0 3 1 5 2 6 1 2 2 2 4 2 1 0 2 0 2-2 1-1 0-3 0-5 0-2-1-4-1-5-1-1-1-2-3-2 0-2 0-2-1-3 0 0-1-1-2-1l-3 4z m30-72l0 3 4 14 20 0c1 0 1 0 2 0 0 0 0 0 1 0l2 2 3 2 8 25-16 0-7-2c-1 0-2-1-3-1-1-1-2-2-3-2l2 5-11 0-13-47c0 0-1-1-1-1 0-1 0-1 0-2 0-1 0-1 1-1 0-1 0-1 1-2l16 0 2 7-8 0z m2 59l0 1c0 0 1 1 1 3 1 2 1 4 1 6 0 1 0 1 0 2 1 1 1 2 1 4 0 2 1 3 1 4 1 0 1 1 1 1 1 1 1 1 2 1 0 1 1 1 1 1 1 0 1-1 2-1 0-1 1-2 1-2 0-1-1-3-1-4-1-2-1-4-2-6l0-4c0 0 0-1 0-1 0-1 0-1 0-2-1 0-1-1-2-2 0 0 0 0 0-1l12 0 0 1c1 1 1 3 2 5 0 2 0 4 1 7l1 4c1 2 1 4 2 6 0 2-1 4-2 6 0 1-1 1-2 2-1 1-2 1-3 1-2 0-3 0-4 0-1 0-3-1-4-1 0-1 0-1-1-1 0 0 0 0 0 0-1 0-1 0-2 0 0-1 0-1 0-1l2 3 0 1c-3-1-5-1-7-2-2 0-4 0-6 0l-1-1c0-1 0-3-1-6 0-3-1-7-2-13 0-1-1-2-1-4-1-2-1-4-2-7l12 0z m4-36l1 4 17 0-1-4z m6 9c-1 0-3-1-4-2l2 8 17 0-1-5-9 0c-2 0-4 0-5-1z m12-16l-1-3 0-1-4 0 0 3-9 0-2-19c0-1 0-1 0-2 1 0 1 0 2 0 0-1 1-1 2-1 1 0 3 0 5 0l7 0 3 7-7 0 0-1-3 2 0 5 7 0c1 0 2 0 2 1 1 0 2 0 3 1 0 1 1 2 1 2 0 1 1 2 1 2l1 4-8 0z m17 43c0 1 0 2 1 4 0 2 0 4 1 7l2 7 1 2 1 0c5 0 10 0 13 1 4 1 7 2 9 3 2 2 4 4 5 6 2 2 3 5 4 8l0 5c0 1 0 3 0 4-1 1-1 1-1 2-1 2-3 3-6 4-3 1-7 1-11 1l-20 0 0-2-4-16-8-36z m28-64l1 7-3 0 12 37 3 0 1 3 0-4c0-2 0-3 1-4 2-1 3-1 6-1l6 0 2 8-2 0c-1 0-1 0-1 0-1 0-1 0-1 1l0 4-11 0c-1 0-2 0-3 0-2 0-4 0-6-1-2 0-4 0-5 0-1 0-2 0-2 0-2 0-3-1-4-1-1-1-2-2-3-2l1 4-10 0-2-7-11-37-2 0-2-7 21 0-1-2 10 0 2 2 3 0z m-22 91l0 2 4 16 0 1 1 0 8-1c2-1 3-2 4-3 0-2 0-3-1-5 0-2 0-3-1-4-1-2-3-3-5-3 0-1-1-1-3-2-1 0-3 0-5 0l-2 0z m13-76l-3-8-8 0 2 8z m3 14l-2-7-4 0c0 0-1 0-1-1-1 0-2 0-4-1l3 9 8 0z m4 8l-6-2c0 0-1 0-1 0-1 0-2-1-3-1l3 10 9 0z m13 0l-2-8 12 0-2-5-12 0-2-7 11 0-8-11c-1 0-1-1-1-1-1 0-1 0-1 0-1 0-1 0-1 0 0 0 0 0 0-1-1 0-1 0-1 0l-3 0-3-6 9 0c1 0 3 0 4 1 2 0 3 2 4 3l5 7 1-7c0-1 1-1 1-2 0 0 1-1 1-1l2-1 7 0 3 7-2 0c-1 0-1 0-1 0-1 1-1 1-1 1 0 0 0 0-1 0 0 0 0 1 0 1l-1 8-5 0 2 2 12 0 2 7-11 0 2 5 11 0 2 8z m-7 49c-1-2-2-4-3-8 0-3 0-7 0-9 1-2 3-4 6-5 0 0 1-1 2-1 1 0 2 0 4 0 1 0 2 0 3 1 1 0 1 1 2 2l0-2 13 0c0 1 1 4 1 7 0 3 1 7 2 11l3 13 0 1c0 0-1 0-2 0-1 0-2-1-3-1-1-1-3-1-4-1-1 0-2 0-3 0l-1-1 0-1c0 1-1 1-1 2-1 0-2 1-3 1-2 1-4 1-6 0-2 0-4-2-6-4-2-1-3-3-4-5z m9-8c1 4 2 6 3 7 1 2 2 3 3 3 2 0 3-1 3-2 1-1 1-2 0-4l0-2-1-3 0-2-1-1c0 0-1-1-1-1 0 0 0-1 0-1 0 0 0-1-1-1-1 0-2-1-3-1l-2 4 0 4z m61 18c-1 0-2 0-2 0-1-1-2-1-3-1-1-1-2-1-3-1-1 0-2 0-3 0l-1 0c-1-2-2-4-2-5-1-2-1-3-2-4 0-1-1-2-1-3 0-1-1-2-1-2l0 1-1 15-1 0c-2 0-4-1-6-1-2-1-4-1-6-1l0-1c0-1 0-2 0-3 1-2 1-3 2-6 0 0 0 0 0-1 0 0 0-1 0-2 0-1 0-2 0-2 0-1 0-1 0-2 1-1 1-3 1-5 0-3 0-5 0-8l-7-14-3-3c0-1 0-1 0-1 0 0 0 0-1 0l-3 0-2-8 7 0c2 0 4 1 5 2 2 0 3 1 3 3l4 8 2 0c1 2 3 7 7 14 5 8 11 18 18 31l-1 0z"/>
<glyph unicode="&#122;" d="M102 262l15 0 3 8 8 0 3-8 29 0 0 6 3-6 15 0 2 7 0-7 72 0 0 13 2 0c1 0 1 0 1 0 0-1 0-1 0-2l0-11 38 0 0 3c4-2 9-3 14-3 6 0 11 0 15 0l4 8 7 0 3-8 30 0 0 8 5-8 24 0 0 50-24 0 0-6-3 6-24 0 0-6-4 6-33 0c-2 0-5 0-7 0-3-1-5-1-7-3l0 3-23 0 0-3c-2 2-3 2-5 3-2 0-3 0-5 0l-84 0-6-12-5 12-27 0 0-6-3 6-22 0-11-24 0 122 308 0 0-159-17 0c-1 0-3-1-5-1-2-1-4-2-5-2l0 3-24 0c-1 0-3-1-5-1-2 0-4-1-5-2l0 3-43 0 0-3c-1 0-3 1-5 2-2 0-4 1-6 1l-28 0 0-3c-1 1-3 2-6 2-2 0-4 1-6 1l-31 0-8-8-6 8-46 0 0-51 45 0 7 8 8-8 28 0 0 12 2 0c2 0 4 0 6 0 2 0 4 1 6 1l0-13 24 0 0 13 1 0c0 0 1 0 1 0 0 0 0-1 0-1l0-12 71 0c2 0 4 0 6 1 2 0 4 1 6 2l0-3 22 0c2 0 4 0 6 0 3 1 5 1 7 2l0-100-308 0z m85 7l0 28-13-28-7 0-13 28 0-28-17 0-4 8-18 0-3-8-10 0 16 36 13 0 15-34 0 34 13 0 12-24 10 24 14 0 0-36z m-63 30l-6-14 12 0z m120-92l-17 0-11 12-10-12-35 0 0 36 35 0 10-12 12 12 27 0c4 0 8-1 11-3 2-1 4-4 4-9 0-7-3-11-10-11-6 0-11-1-16-1l0-12z m-43 29l-21 0 0-7 19 0 0-7-19 0 0-7 21 0 10 10z m1 33l0 36 29 0 0-7-21 0 0-7 20 0 0-7-20 0 0-7 21 0 0-8z m34-30l-14-14 14-15z m34 43c1-1 1-3 1-6l0-7-8 0c0 4-1 7-1 10 0 2-2 3-7 3l-10 0 0-13-8 0 0 36 20 0c4 0 7 0 10-1 3-1 5-4 5-8 0-2-1-4-2-6-1-2-2-3-4-4 2-1 3-2 4-4z m-26-46l0-9 11 0c1 0 3 0 4 1 1 1 2 2 2 3 0 2-1 3-2 4-1 0-2 1-4 1z m1 62l0-8 11 0c2 0 3 0 4 1 1 0 2 1 2 3 0 1-1 3-2 3-1 1-2 1-3 1z m62-78c1-2 1-4 1-6l0-7-9 0 0 6c0 3 0 5-1 6-1 1-3 1-6 1l-10 0 0-13-8 0 0 36 20 0c4 0 7 0 10-1 3-2 5-4 5-9 0-2-1-4-2-5-1-2-3-4-5-4 3-1 4-2 5-4z m-31 49l0 36 9 0 0-36z m6-33l0-8 11 0c2 0 3 0 4 0 2 1 2 2 2 4 0 2 0 3-2 3-1 0-2 1-4 1l-11 0z m93 33l-16 27 0-27-18 0-3 8-18 0-3-8-10 0c-6 0-10 2-13 5-3 3-4 7-4 13 0 6 1 11 4 14 3 3 7 4 14 4l8 0 0-8c-5 0-9 0-12 0-4 0-5-3-5-10 0-3 0-6 1-7 1-2 3-3 7-3l4 0 12 28 13 0 14-34 0 34 13 0 16-25 0 25 8 0 0-36-12 0z m-61-62l0 36 28 0 0-7-20 0 0-7 20 0 0-7-20 0 0-7 20 0 0-8z m15 92l-6-14 12 0z m18-92l0 8 17 0c1 0 2 0 3 0 1 1 2 2 2 3 0 4-4 5-11 3-8-1-11 3-11 12 0 3 1 6 3 8 3 2 5 2 9 2l17 0 0-7-16 0c-1 0-2-1-3-1-1 0-1-1-1-3 0-4 3-5 11-3 7 2 11-2 11-11 0-4-1-7-4-9-3-1-6-2-10-2z m58 1c-3-1-5-1-7-1l-17 0 0 8 17 0c1 0 2 0 3 0 1 1 1 2 1 3 0 4-3 5-11 3-7-1-11 3-11 12 0 3 1 6 4 8 2 2 5 2 8 2l18 0 0-7-16 0c-1 0-2-1-3-1-1 0-2-1-2-3 0-3 3-4 8-3 6 1 10 0 13-4l0-13c-2-2-3-4-5-4z"/>
<glyph unicode="&#65;" d="M137 302l11-51c-7 16-16 29-28 39-13 9-27 16-43 20l0 2 47 0c3 0 6-1 8-2 3-1 4-4 5-8z m13-67l29 77 30 0-45-112-31 0-24 89c9-3 16-9 23-16 7-6 12-14 15-22z m82-36l-29 0 18 113 29 0z m79 115c6 0 11-1 15-2 5-1 8-2 11-3l-4-24-2 1c-3 1-6 2-10 3-3 1-7 1-12 1-6 0-10-1-13-3-2-2-4-4-4-6 0-3 2-5 5-7 3-2 7-5 12-7 8-4 14-9 18-14 4-5 6-10 6-17 0-11-5-21-14-28-9-7-21-10-36-10-7 0-13 1-19 2-6 1-10 2-14 4l4 25 4-2c5-2 9-3 13-4 4-1 9-1 14-1 5 0 9 0 12 2 4 2 6 5 6 8 0 3-1 5-4 7-2 2-6 5-11 7-6 3-11 7-17 11-6 5-9 12-9 20 0 11 5 20 14 27 9 6 21 10 35 10z m78-2l23 0 23-113-27 0c-1 7-2 13-3 17-2 0-9 0-19 0-11 0-17 0-18 0-2-4-4-10-7-17l-30 0 43 103c2 4 4 7 6 8 3 1 6 2 9 2z m-13-73c3 0 7 0 12 0 6 0 10 0 12 0-2 9-4 19-7 33l-2 9c0-2-1-4-2-7-1-2-2-3-1-3-5-12-9-23-12-32z"/>
<glyph unicode="&#66;" d="M59 220c4 3 9 5 13 8 7 5 8 9 5 17-8 20-16 39-24 58 0 2-1 4-2 7 8 0 16 0 24 0 1 0 2-3 3-5 4-14 8-28 12-42 1-1 1-2 2-3 4 15 8 30 11 45 1 4 2 5 6 5 11 0 22 0 33 0 0-14 0-26 0-39 1-3 1-6 1-10 2-6 6-9 11-9 6 0 11 5 12 10 1 6 1 12 1 17 0 10 0 20 0 30 7 0 15 0 22 0 0-24 0-48 0-73-5 0-12 0-18 0-1 3-1 6-2 8-5-3-9-7-15-9-18-6-33 5-34 27-1 5 0 11-2 17-3-8-5-16-8-23-6-13-11-25-18-37-5-9-14-14-23-16-4-1-6-1-7 3-1 5-2 10-3 14z m267 89c5-22 11-44 17-67-7-2-14-3-20-5-1 4-2 7-3 11-5 0-10 0-15 0-1-5-1-12-3-12-6-1-13-1-21-1 2 9 4 17 6 26 4 14 8 29 12 44 0 3 2 4 5 4 7 0 14 0 22 0z m-13-18c0-1-1-1-1-1-1-9-3-18-4-27 3 0 6 0 10 0-2 9-3 18-5 28z m-52-27c6 0 12 0 19 0 3-21-10-33-30-30-16 2-21 8-22 23-1 12 0 23 1 35 1 9 8 15 17 16 7 1 14 1 20-1 11-2 16-13 13-26-6 0-12 0-19 0 0 4 0 7-1 10-1 2-3 5-4 5-2 0-5-2-6-4-1-3-1-6-1-8 0-11 0-21 1-31 0-2 3-5 5-6 4-1 5 2 6 5 0 4 0 8 1 12z m179 19c0 8 0 17 0 26 7 0 13 0 21 0 0-11 0-21 0-32 0-1-2-2-3-2-17-5-33-10-50-15 0 16 0 32 0 49 6 0 13 0 20 0 0-9 0-18 0-26 4 0 8 0 12 0z m-41 4c-6 0-13 0-19 0 0 1 0 3-1 4-1 3-3 6-7 5-4-2-6-5-3-8 1-3 4-5 7-7 4-2 10-3 13-6 5-3 8-8 11-12 1-2 1-5-3-6-5-2-11-3-17-5 0 7-5 9-9 11-4 1-7 2-10 4-10 5-15 13-13 23 2 12 9 18 21 19 3 0 7 0 11 0 12-1 19-9 19-22z m61-16c0-12 0-24 0-36-29 13-60 8-91 6-12-1-24-3-34-4 41 11 83 22 125 34z m-111-27c-1 4-2 8-2 12 7 0 13 0 19 0 1-2 1-4 2-7-6-2-12-3-19-5z m-36 47c2-10 3-19 5-28-4 0-7 0-10 0 1 9 3 18 4 27 0 0 1 0 1 1z"/>
<glyph unicode="&#67;" d="M100 315c0-6 0-12 0-17-2-1-4-1-6-2-10-3-18-10-22-19-4-7-5-15-3-23 1-9 6-17 13-23 8-6 17-9 27-8 10 1 19 6 25 14 4 5 7 10 8 17 0 1 1 1 2 1 5 0 9 0 13 0 2 0 2 0 2-1-2-15-9-27-21-36-8-7-17-10-28-11-11-1-21 1-31 6-11 7-19 16-24 29-2 4-3 9-3 15 0 0-1 0-1 1 0 2 0 4 0 5 0 2 1 4 1 5 2 13 7 23 16 32 7 6 15 11 23 13 3 0 5 1 8 2 0 0 1 0 1 0z m118 0c0-1 0-1 1-1 3-1 5-2 7-3 3-3 4-7 5-11 0-2 0-4 0-7 0-10 0-21 0-32 0-4-1-8-4-11-1-2-3-4-6-4-2-1-5-1-8-1-9 0-17 0-26 0 0 0-1 0-1 0 0 0 0 1 0 1 0 23 0 45 0 68 0 0 0 0 0 0 10 1 21 1 32 1z m-17-13c0-15 0-30 0-45 3 0 5 0 8 0 5 0 6 1 6 7 0 10 0 21 0 32 0 1 0 3 0 4 0 1-1 2-3 2-3 0-7 0-11 0z m99 13c1-1 2-1 4-2 1 0 4-1 5-2 3-2 4-5 4-9 0-5 0-11 0-16 0-6-3-9-9-10-1 0-1-1-3-1 2 0 3 0 4-1 6-1 8-4 8-10 0-6 0-12 0-18 0 0 0-1 0-1-5 0-10 0-15 0 0 1 0 2 0 2 0 6 0 11 0 17 0 3-1 4-4 4-4 1-7 0-10 0 0-7 0-15 0-23-5 0-10 0-16 0 0 1 0 1 0 2 0 22 0 44 0 65 0 1 0 2 0 2 11 1 21 1 32 1z m-16-34c3 0 7 0 10 0 2 0 4 2 4 5 0 4 0 8 0 12 0 2-2 4-4 4-3 0-7 0-10 0 0-7 0-14 0-21z m116 34c1-1 3-1 4-2 2 0 3-1 5-2 2-1 3-3 3-6 0-5 0-9 0-14-5 0-10 0-15 0 0 2 0 5 0 7 0 3-1 4-3 5-3 1-5 1-7 0-3-1-4-2-4-5 0-7 0-15 0-22 0-5 0-10 0-15 0-3 1-5 4-5 2 0 4 0 7 0 2 0 3 2 3 4 0 4 0 7 0 10 5 0 10 0 15 0 0-1 0-2 0-3 0-3 0-7 0-11-1-6-3-10-10-11-9-1-17-1-26 1-4 1-7 4-8 9 0 2 0 3 0 5 0 13 0 26 0 39 0 2 0 5 1 7 1 4 4 6 8 7 0 1 1 1 2 2 7 0 14 0 21 0z m-40 0c0-5 0-9 0-13-7 0-14 0-21 0 0-5 0-10 0-15 6 0 11 0 16 0 0-4 0-8 0-12-2 0-5 0-8 0-2 0-4 0-7 0 0 0-1 0-1-1 0-6 0-11 0-16 0 0 0-1 0-1 8 0 15 0 22 0 0-4 0-8 0-12 0 0-1 0-1 0-6 0-11 0-16 0-6 0-13 0-19 0 0 0-1 0-2 0 0 1 0 1 0 2 0 22 0 44 0 66 0 0 0 1 0 2 13 0 25 0 37 0z m-201 0c0-18 0-36 0-53-6 0-11 0-17 0 0 12 0 24 0 36-12 0-24 0-36 0 0 5 0 11 0 17 18 0 35 0 53 0z m302-13c-5 0-9 0-14 0 0-1 0-1 0-2 0-18 0-36 0-53 0-2 0-3-2-2-4 0-8 0-12 0 0 0-1 0-2 0 0 19 0 38 0 57-4 0-9 0-13 0 0 4 0 8 0 13 14 0 28 0 43 0 0-5 0-9 0-13z m-203 13c0-24 0-47 0-70-6 0-11 0-16 0 0 1 0 1 0 2 0 22 0 44 0 66 0 0 0 1 0 2 5 0 10 0 16 0z m-158-60c10 0 20 0 30 0-1-9-12-20-27-19-12 1-22 11-22 24-1 14 9 24 19 26 0-5 0-10 0-15 0-5 0-10 0-16z m31 7c-8 0-17 0-25 0 0 8 0 16 0 24 8 0 17 0 25 0 0-8 0-16 0-24z m280-55c-2 0-3 0-5 0 0 3 0 7 0 11 0 1 0 2-2 3-1 1-3 0-4-1-1-1-1-2-1-3 0-4 0-7 0-10-2 0-3 0-5 0 0 6 0 12 0 18 2 0 3 0 5 0 0-1 0-2 0-3 1 3 4 4 7 3 2 0 3-1 4-3 1 2 3 4 6 3 4 0 6-1 6-5 1-4 0-9 0-13-1 0-2 0-4 0 0 2 0 4 0 6 0 2 0 4 0 5 0 2-1 3-3 3-1 1-3 0-4-2 0-1 0-2 0-3 0-3 0-6 0-9z m-139 29c1 0 2 0 4 0 0-6 0-12 0-19 1 2 3 3 4 4 0 1 0 1 0 1 3 3 4 4 9 3-3-3-5-6-8-8 3-4 6-7 9-10-3 0-4 0-6 0-1 0-1 0-1 1-3 2-5 5-7 8 0-3 0-6 0-9-1 0-3 0-4 0 0 9 0 19 0 29z m-10-11c-3 1-5 0-7-3 0 1 0 2 0 3-2 0-3 0-4 0 0-6 0-12 0-18 1 0 3 0 4 0 0 3 0 6 0 8 0 2 0 3 1 4 0 1 2 2 3 2 2 0 3-1 3-2 1-2 1-3 1-4 0-3 0-6 0-8 1 0 3 0 4 0 0 4 0 8 0 12 0 4-2 6-5 6z m-156 37c8 0 17 0 25 0 0 8 0 16 0 24-8 0-17 0-25 0 0-8 0-16 0-24z m-6 9c0 5 0 10 0 15-10-2-20-12-19-26 0-13 10-23 22-24 15-1 26 10 27 19-10 0-20 0-30 0 0 6 0 11 0 16z m189-46c-5 1-6 0-9-3 0 0 0 0 0-1-1-1-3-2-4-4 0 7 0 13 0 19-1 0-3 0-4 0 0-10 0-20 0-29 1 0 3 0 4 0 0 3 0 6 0 9 2-3 5-6 7-8 0-1 0-1 1-1 2 0 3 0 6 0-3 3-6 6-9 10 3 2 5 5 8 8z m133-5c0 4-2 5-6 5-3 1-5-1-6-3-1 2-2 3-4 3-3 1-6 0-7-3 0 1 0 2 0 3-2 0-3 0-5 0 0-6 0-12 0-18 2 0 3 0 5 0 0 3 0 6 0 10 0 1 0 2 1 3 1 1 3 2 4 1 2-1 2-2 2-3 0-4 0-8 0-11 2 0 3 0 5 0 0 3 0 6 0 9 0 1 0 2 0 3 1 2 3 3 4 2 2 0 3-1 3-3 0-1 0-3 0-5 0-2 0-4 0-6 2 0 3 0 4 0 0 4 1 9 0 13z m-131-13c2 0 3 0 5 0 0 6 0 12 0 18-2 0-3 0-5 0 0-6 0-12 0-18z m76 13c1 1 2 2 3 3-4 4-11 3-14-1-4-4-3-10 1-13 4-4 11-3 13 0-1 1-2 2-3 3-3-2-5-2-7 0-2 2-2 5 0 8 1 2 4 2 7 0z m-20-8c-1 0-3-1-3-3 0-1 2-3 3-3 2 0 3 2 3 3 0 2-1 3-3 3z m34 13c-6 0-10-4-10-9 0-6 4-10 10-10 6 0 10 4 10 10 0 5-4 9-10 9z m0-15c-3 0-5 3-5 6 0 3 2 5 5 5 3 0 5-2 5-5 0-3-2-6-5-6z m-65 11c0 3-2 4-5 4-2 1-5 0-6-3-1 2-1 2-1 3-1 0-2 0-4 0 0-6 0-12 0-18 2 0 3 0 5 0 0 3 0 6 0 9 0 1 0 2 0 3 1 2 2 2 4 2 2 0 3-1 3-2 0-1 0-2 0-4 0-2 0-5 0-8 2 0 3 0 5 0 0 2 0 5 0 7 0 2 0 5-1 7z m-23 13c-1 0-2-1-2-3 0-1 1-2 2-2 2-1 3 1 3 2 0 2-1 3-3 3z m-72-9c-3 1-6 1-9-2 0 4 0 8 0 12-1 0-3 0-4 0 0-9 0-19 0-28 1 0 3 0 4 0 0 1 0 1 0 2 4-3 9-4 12-1 4 3 5 9 2 14-1 1-3 3-5 3z m-3-15c-3 0-6 3-6 6 0 3 3 5 6 5 3 0 5-2 5-5 0-3-2-6-5-6z m-20 15c-5 1-10-1-11-6-2-4 0-10 4-12 5-2 10-1 13 3-2 1-3 2-4 2-2-2-4-3-7-1-2 0-2 1-2 3 4 0 9 0 13 0 1 6-2 10-6 11z m-7-7c0 2 2 4 4 4 3 0 5-2 5-4-3 0-6 0-9 0z m55 1c0 3-1 5-4 6-3 1-6 1-8-1-1 0-2-1-3-1 1-1 1-2 2-3 3 2 5 3 8 1 1 0 2-2 1-3-1 0-3 0-4 0-2 0-4-1-5-1-3-1-3-3-3-6 0-2 1-3 3-4 3-1 7-1 9 2 0-1 0-2 0-2 2 0 3 0 4 0 0 4 0 8 0 12z m-5-8c-2-1-4-2-5-1-1 1-2 1-2 2 0 1 1 2 2 2 2 1 4 1 6 1 0-2 0-4-1-4z m59 14c2 0 3 0 4 0 0-1 0-1 1-3 1 3 4 4 6 3 3 0 5-1 5-4 1-2 1-5 1-7 0-2 0-5 0-7-2 0-3 0-5 0 0 3 0 6 0 8 0 2 0 3 0 4 0 1-1 2-3 2-2 0-3 0-4-2 0-1 0-2 0-3 0-3 0-6 0-9-2 0-3 0-5 0 0 6 0 12 0 18z m-33-18c-1 0-3 0-4 0 0 2 0 5 0 8 0 1 0 2-1 4 0 1-1 2-3 2-1 0-3-1-3-2-1-1-1-2-1-4 0-2 0-5 0-8-1 0-3 0-4 0 0 6 0 12 0 18 1 0 2 0 4 0 0-1 0-2 0-3 2 3 4 4 7 3 3 0 5-2 5-6 0-4 0-8 0-12z m100 5c1-1 2-2 3-3-2-3-9-4-13-1-4 4-5 10-1 14 3 4 10 5 14 1-1-1-2-2-3-3-3 2-6 2-7 0-2-3-2-6 0-8 2-2 4-2 7 0z m-71-5c-2 0-3 0-5 0 0 6 0 12 0 18 2 0 3 0 5 0 0-6 0-12 0-18z m54 2c0-1-1-3-3-3-1 0-3 2-3 3 0 2 2 3 3 3 2 0 3-1 3-3z m-57 25c2 0 3-1 3-3 0-1-1-3-3-3-1 1-2 2-2 3 0 2 1 3 2 3z m47-10c0 0 0 1 0 1-2 0-3 0-4 0 0-1 0-2 0-2-4 3-9 3-13 1-3-4-4-10-1-14 1-2 3-3 5-3 3-1 6 0 8 2 0-3 0-6-2-6-3-2-7-1-10 1-1-1-2-2-3-4 3-1 5-2 7-3 1 0 3 0 5 0 1 1 3 1 4 2 3 2 4 6 4 9 0 5 0 11 0 16z m-10-13c-3 0-5 2-5 5 0 3 2 5 5 5 3 0 6-2 6-5 0-3-3-6-6-5z"/>
<glyph unicode="&#68;" d="M213 168c-15 0-29 0-43 0-14 0-29 0-43 0-15 0-29 0-43 0-5 0-10 1-14 3-4 1-8 4-11 8-2 3-4 6-6 10-1 4-2 8-2 12 0 15 0 30 0 45 0 15 0 30 0 46 0 3 0 6 0 10 0 3 0 6 0 10 0 5 1 10 3 15 3 4 6 8 10 11 3 2 6 3 9 4 3 1 6 2 9 2 1 0 1 0 2 0 0 0 1 0 1 0 28 0 57 0 85 0 29 0 57 0 86 0 29 0 57 0 86 0 28 0 57 0 85 0 3 0 5 0 8-1 2 0 5-1 7-2 6-3 10-7 14-11 3-5 5-11 5-18 0-6 0-12 0-19 0-6 0-13 0-19 0-12 0-25 0-37 0-12 0-25 0-37 0-5-1-10-4-15-2-4-5-8-10-11-2-2-5-4-8-5-3-1-7-1-10-1-8 0-16 0-24 0-8 0-16 0-23 0-21 0-42 0-63 0-21 0-42 0-63 0-14 0-29 0-43 0z m50 163c0 0-1 0-1 0-15 0-30 0-44 0-15 0-29 0-44 0-14 0-29 0-43 0-15 0-30 0-44 0 0 0-1 0-1 0-1 0-1 0-2 0-2 0-4 0-7-1-2-1-4-2-6-4-2-1-4-4-5-6-1-3-2-6-2-10 0-11 0-22 0-33 0-12 0-23 0-34 0-7 0-14 0-21 0-7 0-14 0-21 0-4 1-7 2-9 2-3 4-5 6-7 2-2 4-3 6-3 3-1 5-1 7-1 14 0 27 0 41 0 14 0 27 0 41 0 16 0 32 0 48 0 15 0 31 0 47 0 1 0 1 0 2 0 0 0 1 0 1 0 0 12 0 25 0 37 0 13 0 25 0 38 0 13 0 25 0 38 0 12 0 25 0 37 0 0-1 0-2 0z m-142-57c0 1 0 3 0 4 2 0 5 0 7 0 2 0 4 0 6 0 0-1 0-1 1-1 0 0 0-1 0-1 0-6 0-12 0-18 0-7 0-13 0-18 0-2 0-4-1-6 0-2 0-3 0-5-1-3-3-6-5-8-2-2-4-3-7-4-1 0-3-1-4-1-2 0-3 0-5 0-3-1-6-1-9-1-3 1-6 1-10 2 0 0 0 0-1 0 0 1 0 1-1 1 0 0 0 0 0 0 0 0-1 0-1 0 0 2 1 4 1 6 0 2 0 4 0 6 1 0 1 0 1-1 0 0 1 0 1 0 2-1 5-2 7-2 3-1 5-1 8-1 3 1 6 2 8 3 2 2 3 5 3 8 1 1 1 1 1 2 0 1 0 2 0 3-1-1-1-1-1-1-1 0-1-1-1-1-4-5-9-6-16-6-7 1-12 5-15 12-2 4-2 7-2 11 0 4 1 8 2 11 2 7 7 10 14 11 8 1 13-1 17-7 0 0 1 0 1 0 0-1 1-1 1-1l0 0c0 1 0 2 0 3z m-19-20c0-1 0-2 0-3 2-3 4-5 7-5 3-1 5 0 8 2 2 2 3 5 3 8 0 3 0 6-2 8-1 2-2 3-4 3-2 1-3 1-5 1-2-1-3-1-4-2-1-1-2-2-3-4 0-1 0-2 0-3 0-1-1-1-1-2 0-1 1-2 1-3z m51 32c-3 0-5 0-7 0 0 1 0 2-1 2 0 1 0 2 0 3 0 1 0 2 0 3 0 0 0 1 0 2 2 1 4 1 8 1 4 0 6 0 7-1 0-1 0-3 0-5 0-2 0-4 0-5-2 0-4 0-7 0z m0-8c2 0 5 0 7 0 0-1 0-8 1-21 0-13 0-21-1-23-2 0-4 0-7 0-2 0-5 0-7 0 0 1 0 8-1 21 0 14 0 21 1 23 2 0 5 0 7 0z m18-22c0 8 0 15 0 22 2 0 5 0 7 0 2 0 4 0 6 0 0-1 0-3 0-4 0-1 0-2 0-4 1 1 2 2 3 3 1 1 1 2 2 3 1 1 2 1 3 2 1 1 3 1 4 1 1 0 2 0 3 0 2 0 3 0 4 0 0-2 0-4 0-6-1-2-1-4-1-7-1 0-2 0-3 1-1 0-1 0-2-1-2 0-4 0-6-1-1-1-3-3-3-5-1-1-1-2-1-3-1-2-1-3-1-4 0-3 0-6 0-9 0-3 0-7 0-10-1 0-2 0-4 0-1 0-2 0-3 0-2 0-3 0-4 0-1 0-2 0-4 0 0 7 0 15 0 22z m65 23c3-1 5-2 7-3 5-2 8-5 10-10 2-4 3-8 2-13-1-6-3-10-7-13-3-4-8-6-13-6-3-1-6-1-9-1-4 1-7 2-10 3-4 2-7 5-9 9-2 4-3 8-3 13 1 6 3 11 6 14 4 4 9 6 14 7 1 0 2 0 3 0 1 0 1 0 2 0 2 0 5 0 7 0z m3-19c0 1 0 3-1 4-1 1-2 3-3 4-2 0-4 1-5 1-2 0-4-1-5-1-2-1-3-2-4-4-1-3-1-5-1-8 0-2 0-5 1-7 1-2 2-3 4-4 1-1 3-1 5-1 1 0 3 0 5 1 1 1 2 2 3 4 1 1 1 2 1 3 0 1 1 3 1 4 0 1-1 3-1 4z m59-24c1-1 2-2 4-2 4-1 8-1 13 0 4 2 8 5 10 10 1 2 2 4 2 6 1 2 1 4 1 7 0 3 0 6-1 8-1 3-2 5-4 7-4 5-9 8-15 7-6 0-11-2-14-7-1-1-1-1-2-1 0 1 0 2 0 4 0 1 0 2 0 3-2 0-4 0-7 0-2 0-4 0-7 0 0-10 0-20 0-31 0-10 0-21 0-31 3 0 6 0 8 0 3 0 5 0 8 0 0 4 0 8 0 12 0 4 0 8 0 12 1-2 2-3 4-4z m-4 24c1 1 1 3 2 4 2 2 4 4 7 4 3 0 6-2 7-4 2-3 2-5 2-8 0-3-1-5-2-8-2-2-4-3-6-3-3 0-5 0-7 2-1 2-2 3-3 4 0 2 0 4 0 6 0 1 0 2 0 3z m46 11c0-1 0-3 0-5 2 1 4 1 6 2 2 0 3 1 5 1 1 0 3 0 4 0 1 0 3 0 4-1 2 0 3-1 4-2 1-1 1-3 1-4 0 0-1 0-1 0 0 0 0 0-1 0-1 0-3 0-5 0-2 0-4 0-6 0-2-1-4-1-6-2-2 0-3-1-5-2-3-3-5-6-5-11-1-4 1-8 4-11 4-3 8-4 13-3 5 1 9 3 12 6 0 0 0 1 1 1 0 0 0 1 0 1 0-2 1-3 1-4 0-1 0-2 0-3 2 0 4 0 7 0 2 0 4 0 6 0 0 3 0 7 0 10 0 4 0 7 0 10 0 1 0 3 0 4 0 1 0 3 0 4 0 4-1 8-3 11-2 2-6 4-10 5-3 1-6 2-9 1-3 0-6 0-9-1-1 0-3 0-4-1-1 0-3 0-4-1 0-1 0-3 0-5z m21-26c-3-2-5-2-8-1-1 0-2 0-3 1 0 1-1 2-1 3 0 1 0 2 1 3 0 1 1 1 2 2 1 0 1 0 2 0 0 0 1 1 2 1 1 0 2 0 4 0 1 0 3 0 4 0 0-4-1-7-3-9z m23 32c0-1 0-1 0-1 1-3 2-5 3-6 1-2 1-4 2-6 2-5 4-10 6-15 2-5 4-9 6-14 0-1 0-2 0-3 0 0 0-1-1-2-1-1-2-1-3-2-1-1-2-1-3-1-1 0-2 0-3 0-1 0-2 0-3 1-1-2-1-4-1-6 0-2 0-4 0-6 2 0 3 0 5-1 2 0 4 0 5 0 4 0 7 1 9 3 2 1 4 3 6 6 1 1 1 2 2 3 0 1 1 2 1 3 3 8 6 16 9 24 3 7 6 15 10 23 0 0 0 0 0 0 0 1 0 1 0 1-3 0-5 0-8 0-2 0-5 0-7 0-2-5-3-9-5-14-1-5-3-10-4-15-2 5-4 10-5 15-2 5-3 9-5 14-3 0-6 0-8 0-3 0-6 0-8 0 0 0 0-1 0-1z"/>
<glyph unicode="&#69;" d="M424 184c-8-21-20-37-35-50-14-11-29-20-46-26-18-5-38-8-60-8l-206 0 0 312 206 0c22 0 42-3 60-9 17-6 32-15 46-28 8-6 15-14 21-22 5-8 10-17 13-26 4-10 7-21 9-32 2-12 3-25 3-38 0-28-4-53-11-73z m-19 133c-7 18-17 32-30 44-11 10-25 18-41 23-16 5-34 8-54 8l-182 0 0-271 182 0c45 0 79 11 101 34 22 22 33 56 33 102 0 23-3 43-9 60z m-272-3c-4-2-7-4-10-7-3-3-6-7-7-10-2-4-3-8-3-13 0-4 1-9 3-12 1-4 4-8 7-11 3-3 6-6 10-7 4-2 8-2 13-2 4 0 8 0 12 2 4 1 8 4 11 7 3 3 6 7 7 11 2 3 3 8 3 12 0 5-1 9-3 13-1 3-4 7-7 10-3 3-7 5-11 7-4 2-8 2-12 2-5 0-9 0-13-2z m41-173l0 96-58 0 0-96z m222 112c0-37-11-65-32-84-21-19-52-28-94-28l-69 0 0 112 7 0c3 0 5 0 7 0 2 0 3 1 4 1 2 1 4 2 5 2 2 1 2 2 3 2 1 2 3 3 4 5 1 2 2 4 2 6 1 1 2 3 2 5 0 2 0 4 0 7 0 1 0 2 0 3 0 1 0 2 0 4-1 1-1 3-1 3 0 1-1 2-1 2 0 1 0 2-1 3 0 1-1 2-2 3 0 0-1 1-1 2 0 1 0 2 0 2-2 2-4 3-6 4-2 1-3 1-4 1-1 1-2 1-4 1-2 1-4 1-7 1l-7 0 0 56 69 0c40 0 70-8 91-25 21-17 33-42 35-76l-26 0 0 45-15 0 0-57z m-176 19l-2-4c-1-1-2-2-3-2-1-1-1-1-2-1l-12 0 0 32 11 0c1 0 2 0 3 0 1-1 2-1 3-3 0 0 0-1 0-1 1-1 1-1 2-2l0-19z m38-7l0 11 27 0 0 12-27 0 0 9 30 0 0 13-44 0 0-57 45 0 0 12-31 0z m71 45l-16 0-21-57 15 0 4 12 20 0c0 0 0-1 1-4 1-2 2-4 3-8l15 0z m-10-25c0 1 0 3 1 4 0 1 0 2 0 3 2-4 3-7 4-9 1-3 1-4 1-6l-9 0z"/>
<glyph unicode="&#70;" d="M252 195l4 0 0-24-4 0z m9-8l4 0 0-2 0 0c0 1 2 2 5 2 4 0 5-3 5-6l0-10-4 0 0 8c0 2 0 5-3 5-2 0-3-2-3-4l0-9-4 0 0 16z m21 8c1 0 2-1 2-3 0-1-1-2-2-2-2 0-3 1-3 2 0 2 1 3 3 3z m-2-8l4 0 0-16-4 0z m19-5c-1 1-2 2-3 2-3 0-4-2-4-5 0-2 1-5 4-5 1 0 3 1 3 2l3-3c-2-2-4-2-6-2-5 0-8 3-8 8 0 5 3 8 8 8 2 0 4 0 6-2z m7 13c2 0 3-1 3-3 0-1-1-2-3-2-1 0-2 1-2 2 0 2 1 3 2 3z m-2-8l4 0 0-16-4 0z m17-4c-1 1-2 1-3 1-1 0-2 0-2-1 0-3 8-1 8-7 0-4-3-5-6-5-3 0-5 0-7 2l3 3c1-1 2-2 4-2 1 0 2 0 2 2 0 3-8 0-8 6 0 4 3 5 6 5 2 0 5 0 6-2z m-133 16l6 0 0-12 10 12 8 0-12-13 13-15-8 0-11 13 0-13-6 0z m50-26c-3-2-7-2-11-2-9 0-15 5-15 14 0 9 6 14 15 14 4 0 8-1 11-3l-5-5c-1 2-3 3-6 3-5 0-9-4-9-9 0-5 4-9 9-9 2 0 4 1 5 1l0 5-4 0 0 6 10 0 0-15z m118 183l0-200-200 0 0 110-54 0 0-164 256 0c29 0 52 23 52 52l0 256-256 0c0 0 0 0 0 0-29 0-52-23-52-52l0-2z m-242-19l0-52-12 0 0 52z m10-52l0 52 14 0 11-19c3-5 6-12 9-18l0 0c-1 7-1 14-1 22l0 15 11 0 0-52-13 0-11 20c-3 6-6 12-9 19l0 0c0-7 0-15 0-23l0-16-11 0z m66 52l0-52-12 0 0 52z m10 0c4 0 9 1 16 1 7 0 12-2 16-5 3-2 6-7 6-12 0-5-2-9-5-12-4-4-10-6-17-6-2 0-3 1-4 1l0-19-12 0z m12-24c1 0 2 0 4 0 6 0 10 3 10 8 0 5-4 8-9 8-3 0-4 0-5-1z m41-15l-4-13-12 0 16 52 15 0 16-52-12 0-4 13z m13 9l-3 11c-1 3-2 7-3 10l0 0c-1-3-2-7-3-10l-3-11z m30-22l0 21-17 31 14 0 5-12c2-4 3-7 4-10l1 0c1 3 2 6 3 10l6 12 13 0-17-30 0-22z"/>
<glyph unicode="&#71;" d="M77 169c0 16 0 31 0 47 0 0 0 0 1 0 4-1 8-2 11-3 4 0 8-1 11-1 5-1 10-1 15-1 4-1 9-1 14-1 4 1 9 1 14 2 4 1 9 2 14 4 2 1 5 2 8 3 2 2 4 4 6 7 2 2 4 4 5 7 1 2 1 5 2 8 0 1 0 3 0 4 0 2 0 3 0 5 0 8 0 16 0 24 0 7 0 15 0 23 0 0 0 1 0 1 0 0 0 1 0 1-6 0-12 0-19 0-6 0-13 0-20 0 0 0 0-1 0-1 0 0 0 0 0 0 0-9 0-17 0-26 0-8 0-17 0-25 0-2 0-5-1-7 0-2-1-4-3-7-2-2-4-3-6-5-2-1-4-2-7-2-2-1-4-1-6-1-2 0-4 0-6 1-6 0-12 1-17 3-5 1-10 4-16 6l0 0c0 0 0 1 0 1 0 0 0 0 0 1 0 18 0 36 0 54 0 18 0 36 0 54 0 11 3 19 8 27 6 8 13 13 23 16 3 2 5 2 8 2 3 0 6 1 9 1 4 0 8 0 11 0 4 0 8 0 11 0 7 0 13 0 19 0 6 0 13 0 19 0 0 0 1 0 1 0 0 0 1 0 1 0 0-1 0-1 0-2 0 0 0 0 0-1 0-18 0-36 0-55 0-18 0-37 0-55 0-19 0-37 0-56 0-18 0-37 0-55 0-5-1-11-2-16-2-4-5-9-8-13-4-4-8-8-12-10-5-3-10-5-15-5-1-1-2-1-4-1-1 0-3-1-4-1-11 0-21 0-32 0-10 0-21 0-31 0 0 0-1 0-1 0 0 0-1 0-1 0 0 16 0 32 0 48z m124 55c4-2 8-5 12-6 4-2 8-4 13-5 5-1 11-2 16-2 5-1 11-1 16-1 5 1 10 1 15 2 5 0 10 1 15 1 1 1 3 1 5 1 1 1 3 1 4 2 0 0 1 0 1 0 0 0 1 0 1 0 0 3 0 6 0 10 0 3 0 6 0 9 0 0-1 0-1 0 0 0-1-1-1-1-4-1-7-3-11-4-3-2-7-3-11-3-3-1-6-2-10-2-3 0-6 0-8 0-3 0-6 1-9 1-2 1-5 2-7 3-3 2-6 4-8 7-3 3-4 6-5 10-1 3-2 7-2 10 0 4 1 7 2 11 1 4 3 8 6 11 3 3 7 6 11 7 4 1 7 2 10 2 3 0 6 0 9 0 6 0 12-1 17-3 6-1 11-4 17-6l1 0c0 3 0 6 0 9 0 3 0 6 0 9-1 0-2 1-3 1 0 0-1 0-2 1-3 0-7 0-10 1-4 1-7 1-11 2-4 0-8 1-13 1-4 0-9 0-13 0-4-1-8-1-11-1-4-1-7-1-11-2-4-1-8-2-11-4-4-1-7-3-10-5 0-1-1-1-1-1-1-1-1-1-2-1 0 0 0 0 0 1 0 9 0 18 0 28 0 9 0 19 0 28 0 10 2 19 8 26 5 8 12 13 21 17 3 1 5 2 8 2 3 0 5 1 8 1 11 0 22 0 32 0 11 0 21 0 32 0 0 0 0 0 0 0 1 0 1 0 1 0 0-1 0-1 0-2l0-1c0-18 0-37 0-55 0-18 0-36 0-55 0-18 0-36 0-55 0-18 0-37 0-55 0-3 0-7-1-10 0-3-1-7-2-10-4-7-8-12-14-17-5-4-12-7-20-9-1 0-2 0-3 0-2 0-3-1-4-1-11 0-22 0-32 0-11 0-22 0-33 0 0 0-1 0-1 0 0 18 0 35 0 52 0 17 0 34 0 51l0 0z m124 76c0 0 0 1 0 1 0 8 0 15 0 22 0 7 0 14 0 22 0 7 1 13 4 19 2 6 6 11 12 16 3 3 6 5 10 7 4 2 9 3 13 3 1 0 2 1 4 1 1 0 2 0 3 0 11 0 21 0 31 0 11 0 21 0 31 0 0 0 1 0 1 0 1 0 1 0 1 0 0-1 0-1 0-1 0-1 0-1 0-2 0-18 0-36 0-55 0-18 0-37 0-55 0-19 0-37 0-56 0-18 0-37 0-55 0-7-1-13-3-19-3-6-7-11-12-15-3-3-7-6-11-7-3-2-7-3-12-3-1-1-2-1-4-1-1 0-3-1-4-1-11 0-21 0-31 0-10 0-21 0-31 0 0 0-1 0-1 0 0 0-1 0-1 0 0 16 0 31 0 46 0 15 0 30 0 46 1 0 2 0 2 0 1 0 2 0 3 0 2 0 4 0 5 0 2 0 4 0 6 0 8 0 17 0 26 0 9 0 17 0 26 0 3 0 6 0 8 0 3 1 5 2 8 3 2 1 4 2 6 3 1 1 3 3 4 5 3 4 4 9 4 14-1 6-3 10-8 13-2 2-4 3-7 4-2 1-4 1-6 2-1 0-2 0-2 0-1 0-1 0-2 1 1 0 3 0 4 1 2 0 3 1 4 1 3 2 6 4 8 6 2 2 3 5 4 9 0 4 0 8-2 11-1 4-4 7-8 9-2 1-4 2-6 3-2 0-5 1-7 1-2 0-4 0-5 0-2 0-3 0-5 0-10 0-20 1-29 0-10 0-19 0-29 0 0 0-1 0-1 0 0 0-1 0-1 0 0 0 0 1 0 1z m22-25c0 3 0 7 0 10 0 0 1 0 1 0 0 0 0 0 0 0 4 0 8 0 11 0 4 0 8 0 12 0 1 0 2 0 4 0 1 0 2-1 3-2 2-2 3-3 3-5 1-3 1-5 0-7-1-2-2-4-4-5-1-1-3-2-5-2-4 0-8 0-12 0-4 0-8 0-13 0l0 0c0 4 0 7 0 11z m0-36c0 4 0 7 0 11 0 1 1 1 1 1 0 0 0 0 0 0 4 0 8 0 13 0 4 0 8 0 12 0 3 0 5-1 8-3 2-2 3-4 4-7 0-3 0-6-2-9-2-2-4-4-7-4 0 0-1 0-2-1 0 0-1 0-1 0-5 0-9 0-13 0-4 0-8 0-12 0 0 0-1 0-1 0 0 4 0 8 0 12z"/>
<glyph unicode="&#72;" d="M384 254c0-16 0-32 0-49 0-3-1-4-5-4-4 0-9 0-13 0-4 0-4 0-4 4 0 16 0 31 0 47 0 3-1 6-1 8-1 4-3 6-7 7-7 1-13-1-18-5-1 0-1-2-1-3 0-13 0-26 0-40 0-5 0-10 0-15 0-2-1-3-3-3-5 0-10 0-15 0-3 0-4 1-4 4 0 25 0 50 0 75 0 3 1 4 3 4 5 0 9 0 14 0 3 0 3-1 3-4 0-1 1-2 1-3 1 1 2 1 3 2 9 6 18 7 29 5 9-1 14-8 16-17 1-4 1-8 2-13z m-140 6c1-19 1-37 1-56 0-2-1-3-3-3-5 0-9 0-14 0-3 0-4 0-4 4 0 0 0 1 0 1-3-1-5-2-7-3-8-4-16-4-24-2-7 2-12 7-14 15-1 5-1 10 0 16 2 8 7 13 15 15 8 2 15 2 23 2 6 0 6 0 6 6 0 1 0 3 0 4-1 5-4 8-9 8-9 0-17-1-25-1-4 0-5 0-5 4 0 3 0 6 0 9 0 1 1 2 2 3 13 3 26 5 39 1 12-2 19-11 19-23z m-21-38c0 2 0 4 0 6 0 3 0 5 0 8 0 0-1 1-1 1-5 0-10 0-15-1-3 0-6-2-6-5-1-3-1-6-1-9 0-3 3-5 6-6 5-1 10 0 14 2 3 1 4 2 3 4z m238 33c0-17 0-33 0-50 0-4-1-4-4-4-4 0-8 0-13 0-3 0-3 0-4 4 0 0 0 0 0 1 0 0 0 0 0 0-1 0-1 0-2 0-5-4-12-6-19-7-13-1-24 8-24 22 0 3-1 7 0 10 1 8 6 13 14 15 5 2 11 3 17 3 4 1 7 0 11 0 1 0 2 1 2 2 0 3 0 5 0 8-1 5-4 8-9 8-9 0-17-1-26-1-4 0-4 0-4 4 0 3 0 6 0 8 0 2 1 3 3 4 9 2 19 3 29 3 4 0 9-1 12-3 10-3 15-10 17-19 0-3 0-5 0-8z m-22-33c0 2 0 4 0 6 0 2 0 5 0 7 0 2 0 2-2 2-3 0-6 1-9 0-10 0-12-4-12-13 0-4 2-7 6-8 5-1 11 1 15 3 2 0 2 1 2 3z m-276 91c-4 0-9 0-14 0-3 0-4-1-4-4 0-17 0-35 0-52 0-17 0-35 0-53 0-2 1-3 4-3 4 0 9 0 13 0 5 0 5 1 5 5 0 29 0 59 0 88 0 5 0 10 0 15 0 3 0 4-4 4z m137-28c-6 0-12-2-17-6-1 0-1-1-2-2 0 2 0 2 0 3 0 3-1 4-5 4-4 0-8 0-13 0-4 0-4-1-4-4 0-12 0-23 0-34 0-14 0-27 0-41 0-3 1-4 4-4 5 0 9 0 14 0 4 0 4 1 4 4 0 18 0 36 0 54 0 2 1 3 2 4 6 2 11 4 17 4 2 0 4 1 3 3 0 4 0 8 0 12 0 2-1 3-3 3z m-229 28c-4 0-8 0-13 0-4 0-7-3-7-7 0-17 0-34 0-50 0-17 0-34 0-51 0-3 1-3 4-3 4 0 8 0 13 0 4 0 7 2 7 6 0 34 0 68 0 101 0 3-1 4-4 4z m48-76c-9 9-21 15-33 16-4 0-4 0-4-3 0-1 0-2 0-3 2-15 10-27 22-36 8-6 17-9 26-10 3 0 4 0 4 3-1 12-6 23-15 33z m12 76c-1-1-3-1-4-1-12-2-23-7-32-17-8-9-12-19-13-31 0-3 0-3 3-4 4 2 9 2 13 4 22 8 33 23 36 46 0 3 0 3-3 3z"/>
<glyph unicode="&#73;" d="M328 363c15 0 29-2 42-8 13-6 24-13 34-23 9-9 17-21 23-34 5-13 8-27 8-42 0-15-3-29-8-42-6-13-14-24-23-34-10-9-21-17-34-23-13-6-27-8-42-8-14 0-27 2-39 7-13 5-23 12-33 20-10-8-20-15-33-20-12-5-25-7-39-7-15 0-29 2-42 8-13 6-24 14-34 23-9 10-17 21-23 34-5 13-8 27-8 42 0 15 3 29 8 42 6 13 14 25 23 34 10 10 21 17 34 23 13 6 27 8 42 8 14 0 27-2 39-7 13-5 23-11 33-20 10 9 20 15 33 20 12 5 25 7 39 7z m-207-133l11 0 9 52-17 0-12-32 0 32-15 0-9-52 10 0 7 39 0-39 8 0 15 39z m50 11c0 2 0 4 1 6 0 1 0 3 0 6 1 1 1 2 1 4 1 1 1 3 1 4 0 4-2 7-4 9-3 2-6 3-11 3-2 0-4 0-6-1-2 0-4-1-7-2 0-1-1-3-1-5 0-1 0-2-1-4 3 1 5 1 7 2 2 0 3 0 5 0 2 0 4 0 5-1 1 0 2-1 2-2l0-3-4 0c-3 0-6-1-9-1-2-1-5-2-6-3-2-1-3-3-4-5-1-2-1-4-1-7 0-2 0-3 1-5 0-1 1-3 2-4 1-1 2-1 3-2 1 0 2 0 4 0 2 0 5 0 7 1 2 1 3 2 4 4l0-5 9 0 0 3c0 1 1 2 1 3 0 2 1 3 1 5z m-21 2c0 2 1 3 2 4 1 1 4 2 7 2l2 0c0-2 0-3 0-5-1-1-2-2-2-3-1-1-2-2-3-2-1 0-2-1-3-1-1 0-2 1-2 1-1 1-1 2-1 4z m53 19l2 10c-1 0-3 0-4 1-2 0-4 0-7 0-5 0-9-1-12-4-3-2-4-6-4-10 0-3 1-5 2-7 1-2 3-4 6-5 1 0 2 0 2-1 1 0 2-1 3-1 0-1 0-1 0-1 0-1 0-1 0-2 0-1 0-2-1-3-1 0-3-1-5-1-1 0-2 1-4 1-1 0-3 0-6 1 0-2 0-4 0-5-1-2-1-3-1-5 1 0 2 0 4 0 2 0 5 0 7 0 6 0 10 1 13 3 2 2 4 6 4 11 0 2-1 4-2 6-1 2-3 4-6 5l-3 2c-1 0-1 1-1 1 0 1 0 1 0 2 0 1 0 2 1 2 1 1 2 1 4 1 2 0 3 0 5 0 1 0 2 0 3-1z m23-1l1 11-5 0 0 6-10 0-5-28c0-2-1-4-1-6 0-2 0-4 0-6 0-3 0-5 2-6 1-2 3-2 6-2 2 0 4 0 5 0 1 0 3 0 3 0l2 10c0 0-1 0-2-1 0 0-1 0-1 0-2 0-3 0-3 1-1 1-1 2-1 3l0 3c0 1 1 1 1 2 0 0 0 1 0 2 0 1 1 2 1 2 0 1 0 1 0 1 0 2 0 3 0 4 0 2 0 3 0 4l7 0z m35-14c0 2 0 3 0 5 0 2 0 4 0 6 0 2 0 4-1 6 0 2-1 3-2 5-2 1-3 2-5 3-2 0-4 1-7 1-2 0-5-1-7-2-2-1-4-3-6-5-2-2-3-5-4-8-1-3-2-6-2-10 0-6 2-11 5-14 4-3 8-4 14-4 3 0 5 0 7 0 2 0 3 1 5 1l1 11c-2-1-4-2-6-3-1 0-3-1-5-1-2 0-3 1-5 1-1 0-2 1-3 2-1 0-1 1-1 2 0 2-1 3-1 4l23 0z m-11 15c0 0 0 0 0-1 0 0 1 0 1 0l0-2 0-3-12 0c1 3 2 4 3 5 1 2 2 2 4 2l2 0c0 0 1 0 1 0 0-1 0-1 1-1z m28-7c1 2 2 3 3 4 1 1 2 1 4 1 1 3 2 6 2 8 1 2 1 4 2 4-1 1-2 1-3 1-1-1-2-1-3-2-1 0-1-1-2-2-1 0-2-2-3-3l1 6-10 0c-1-5-2-10-3-17-1-6-2-14-3-22l-1-3 12 0c0 5 1 10 2 14 1 4 1 8 2 11z m40-24l2 12c-2-1-4-2-5-2-2-1-3-1-5-1-1 0-3 0-4 1-1 0-2 1-3 3-1 1-1 2-2 3 0 2-1 3-1 6 0 3 1 5 1 8 1 2 2 4 3 6 1 2 2 3 4 4 2 1 4 1 6 1 2 0 4 0 5-1 2 0 3-1 5-2l2 11c-3 1-5 1-7 2-2 1-4 1-6 1-3 0-7-1-10-2-3-2-5-4-7-7-2-3-4-6-5-10-2-4-2-8-2-12 0-4 0-7 1-10 1-2 2-4 4-6 2-2 4-4 6-5 3-1 5-1 8-1 2 0 4 0 6 0 2 0 3 1 4 1z m40 26c0 1 0 2 0 2 0 1 0 1 0 2 0 4-1 7-4 9-2 2-6 3-11 3-2 0-4 0-6-1-2 0-4-1-7-2 0-1-1-3-1-5 0-1 0-2 0-4 2 1 4 1 6 2 2 0 4 0 5 0 3 0 4 0 6-1 1 0 2-1 2-2 0-1-1-1-1-2 0 0 0-1-1-1l-4 0c-3 0-5-1-8-1-2-1-4-2-6-3-2-1-3-3-3-5-1-2-1-4-1-7 0-2 0-3 0-5 1-1 1-3 2-4 1-1 2-1 3-2 1 0 3 0 4 0 3 0 5 0 7 1 2 1 3 2 5 4l0-5 8 0c1 1 1 2 1 4 1 2 1 4 1 6 1 3 1 5 1 7 1 2 1 4 1 6 0 0 0 1 0 2 0 0 0 1 1 2z m-24-14c0 2 1 3 2 4 2 1 4 2 7 2l2 0c0-2 0-3 0-5-1-1-1-2-2-3-1-1-1-2-2-2-1 0-2-1-4-1-1 0-2 1-2 1-1 1-1 2-1 4z m41 12c1 2 2 3 3 4 1 1 2 1 3 1 0 2 1 5 2 7 0 2 1 4 2 5 0 0-1 0-2 0-1 0-2 0-3-1-1 0-2-1-2-2-1 0-2-2-3-3 0 1 0 2 0 3 1 1 1 2 1 3l-11 0c0-6-1-13-2-19-1-7-2-13-3-20l-1-3 11 0c1 7 2 12 3 16 1 5 1 7 2 9z m30-25l10 0 9 52-11 0-2-15c-2 2-3 3-5 4-2 1-4 1-6 1-2 0-4-1-7-2-2-1-3-3-5-5-2-2-4-5-5-8-1-3-1-7-1-11 0-2 0-4 1-6 1-2 2-4 3-6 1-2 3-3 4-3 2-1 4-1 6-1 2 0 4 0 6 1 1 0 3 1 4 3z m-3 32c2 0 4 0 5-2 1-1 1-3 1-6 0-2 0-4 0-6-1-2-1-3-2-4-1-2-2-3-3-3-1-1-2-1-3-1-2 0-3 1-4 2-1 2-2 4-2 6 0 3 1 5 1 6 0 2 1 3 1 4 1 2 2 3 3 3 1 1 2 1 3 1z"/>
<glyph unicode="&#74;" d="M216 166l-47 0c-7 0-13 6-13 13l0 139c0 7 6 12 13 12l47 0c1 0 1 0 2 0l0 10c0 3 2 6 5 6 3 0 6-3 6-6l0-17c0-1 0-1-1-2 1-1 1-2 1-3l0-139c0-7-6-13-13-13z m-37 146l27 0c9 0 16-7 16-16l0-46c0-8-7-16-16-16l-27 0c-9 0-16 8-16 16l0 46c0 9 7 16 16 16z m61-3l30 0c11-1 16-9 16-21-1-13-8-18-19-19l-11 0 0-33-16 0z m16-7c8 1 13-1 14-13 0-11-6-13-14-13z m58 8l19 0 0-8-15 0c-9-2-7-11-7-18l20 1 0-10-19 0-1-24c1-7 5-10 10-10l11 0 3 0 0-8-3 0-21 0c-7 0-12 4-15 15l-1 47c1 10 7 15 19 15z m26-21c-1 16 8 20 19 21 12 1 20-5 22-18l-15 0c-1 7-6 9-11 6-7-8 14-23 21-28 11-9 9-33-8-38l-11 0c-10-1-16 6-18 18l15 1c1-6 3-9 8-9 7 2 9 8 4 17-11 9-24 18-26 30z m-263 23l16 0 0-4c9 4 16 7 24 0 13 6 24 5 29-6l0-66-16 0 0 63c-1 5-5 6-10 6l0-69-16 0 0 63c-2 5-6 6-11 6l0-69-16 0z m312-78l17 0 0 40 13 0 0-40 16 0 0 58c0 11-9 19-22 19-15 0-23-7-24-19z m17 62c0 4 2 6 6 6 5 0 7-3 7-7l0-12-13 0z m-230-15c2-6 6-9 10-9-7-6-14-9-22-11-5 0-10 2-14 3 11 2 20 8 26 17z m30 16l33-16c-17-22-45-23-75-20 20 5 34 17 42 36z"/>
<glyph unicode="&#75;" d="M100 311c6 0 10-1 14-3 4-1 7-3 10-6 2-2 3-5 4-9 0-3 0-7 0-11-2-10-6-18-12-23-6-5-14-8-25-8l-10 0c-1 0-2 0-3-1 0 0-1-1-1-2l-3-22c-1-1-1-2-2-3-1-1-2-1-3-1l-15 0c-1 0-1 0-2 1-1 0-1 1-1 2l13 82c0 1 1 2 2 2 0 1 1 2 2 2z m4-30c0 2 0 4 0 5 0 1-1 3-2 3-1 2-3 3-5 3-3 1-6 1-9 1l-2 0c0 0-1 0-1-1-1 0-1-1-1-1l-4-22 5 0c4 0 8 1 12 2 4 1 6 4 7 10z m92 0c0 0 1 0 2-1 0-1 0-1 0-2l-8-52c0-1-1-2-2-3 0-1-1-1-2-1l-14 0c-1 0-1 0-2 1-1 0-1 1-1 2l1 4c-7-5-15-8-21-8-4 0-8 0-11 1-3 2-6 4-8 6-3 3-5 7-6 11-1 4-1 8 0 13 1 9 5 16 12 22 6 6 13 9 22 9 4 0 7-1 11-2 3-1 5-2 7-5l1-1 1 4c0 0 0 1 1 1 0 1 1 1 1 1l16 0z m-22-30c1 3 1 5 0 6 0 2-1 4-2 5-1 2-3 3-5 3-1 1-3 1-5 1-5 0-8-1-12-4-3-2-5-6-6-11 0-1 0-3 1-5 0-2 1-4 2-5 1-1 2-2 4-3 2-1 4-1 6-1 4 0 8 1 11 4 4 2 6 6 6 10z m103 30c1 0 2 0 2-1 1-1 1-2 0-3l-51-74c-1 0-1-1-2-1 0 0-1-1-2-1l-15 0c-1 0-2 1-2 2-1 1-1 2 0 2l16 23-17 49c0 1 0 2 0 3 1 1 2 1 2 1l16 0c0 0 1 0 2-1 1 0 1-1 2-2l9-30 21 31c0 1 1 1 1 1 1 1 2 1 3 1l15 0z m51 30c5 0 10-1 14-3 4-1 7-3 9-6 2-2 3-5 4-9 1-3 1-7 0-11-2-10-6-18-12-23-6-5-14-8-24-8l-11 0c-1 0-2 0-2-1-1 0-2-1-2-2l-4-23c0-1 0-2-1-2 0-1-1-1-1-1l-17 0c-1 0-1 0-2 1 0 0-1 1-1 2l13 82c0 1 1 2 2 2 1 1 2 2 3 2z m3-30c0 2 0 4 0 5 0 1-1 3-1 3-2 2-4 3-6 3-3 1-5 1-8 1l-2 0c-1 0-2 0-2-1-1 0-1-1-1-1l-3-22 4 0c5 0 9 1 12 2 4 1 6 4 7 10z m92 0c1 0 1 0 2-1 0-1 1-1 1-2l-9-52c0-1-1-2-1-3-1-1-2-1-3-1l-14 0c-1 0-1 0-2 1 0 0-1 1-1 2l1 4c-7-5-14-8-21-8-4 0-8 0-11 1-3 2-6 4-8 6-3 3-4 7-5 11-1 4-2 8-1 13 2 9 5 16 12 22 6 6 14 9 22 9 4 0 7-1 11-2 3-1 6-2 7-5l1-1 1 4c0 0 0 1 1 1 0 1 1 1 2 1l15 0z m-21-30c0 3 0 5-1 6 0 2-1 4-2 5-1 2-3 3-4 3-2 1-4 1-6 1-4 0-8-1-11-4-4-2-6-6-6-11-1-1-1-3 0-5 0-2 1-4 2-5 1-1 3-2 5-3 1-1 3-1 5-1 5 0 8 1 12 4 3 2 5 6 6 10z m39 57c0 1 0 2 1 2 0 0 1 1 2 1l14 0c1 0 1-1 2-1 1-1 1-2 1-3l-13-81c0-1-1-2-2-3 0-1-1-1-2-1l-14 0c0 0-1 0-2 1 0 0 0 1 0 2z"/>
<glyph unicode="&#76;" d="M102 410l308 0 0-308-308 0z m79-51c7 0 13 5 13 12 0 7-6 13-13 13-7 0-13-6-13-13 0-7 6-12 13-12m151-1c7 0 13 6 13 13 0 7-6 13-13 13-7 0-13-6-13-13 0-7 6-13 13-13m-76-68c-44 0-80 36-80 80l9 0c0-39 32-71 71-71 39 0 71 32 71 71l9 0c0-44-36-80-80-80z m102-154l0 42-5 0 0 7 13 0 0-42 6 0 0-7z m-16 0l0 3 0 25-6 0 0 8 13 0 0-29 6 0 0-7z m6 42c-1-1-2-2-3-2-2 0-3 1-4 2-1 1-1 2-1 3 0 1 0 2 1 3 1 1 2 2 4 2 1 0 2-1 3-2 1-1 1-2 1-3 0-1 0-2-1-3m-23-28c-1 1-2 1-3 1-1 1-2 1-4 1-1 0-2 0-3 0-1-1-1-1-2-2-1-1-1-2-1-3 0-1 0-2 1-3 0-1 1-1 1-1 1 0 2 0 3 0 1 0 3 0 4 1 2 0 3 1 4 2z m0-14l0 3c-1-1-3-2-4-3-2 0-4 0-5 0-4 0-6 1-9 3-2 2-3 5-3 8 0 3 1 6 4 9 1 1 3 1 4 2 2 0 4 1 6 1 1 0 3 0 5-1 0 0 0 0 1 0 0 0 1 0 1-1l0 4c0 1 0 2 0 2-1 1-1 1-1 2-1 0-2 0-2 0-1 1-2 1-3 1-1 0-1 0-2-1-1 0-2 0-3 0 0 0-1-1-2-1 0 0-1 0-1 0l-3 5c2 1 3 1 4 2 1 0 2 1 4 1 1 0 2 0 3 0 2 0 4 0 5 0 2-1 3-1 5-2 1-1 2-2 3-4 0-1 1-3 1-5l0-18 5 0 0-7-13 0z m-24 28c-2 0-3 0-5 0-1-1-2-1-3-2-1-1-2-2-2-3 0-1-1-2-1-4l0-12 7 0 0-7-14 0 0 28-6 0 0 8 13 0 0-4c0 0 1 0 1 1 1 0 2 0 2 1 2 0 3 1 4 1 2 0 3 0 4 0l4 0 0-7z m-34-29c-1 0-2 1-3 1-1 0-2 1-3 2 0 0-1 1-1 2 0 1 0 2 0 3l0 21-6 0 0 8 6 0 0 6 7 1 0-7 7 0 0-8-7 0 0-20c0-1 0-1 0-1l1 0 6 1 0-7z m-22 29l-16-42-7 0 6 17-11 25-6 0 0 8 11 0 2-5 7-18 6 15-4 0 0 8 17 0 0-8z m-45-14c-1 1-2 1-3 1-1 1-3 1-4 1-1 0-2 0-3 0-1-1-2-1-2-2-1-1-2-2-2-3 0-1 1-2 2-3 0-1 0-1 1-1 1 0 1 0 2 0 2 0 3 0 5 1 1 0 3 1 4 2z m0-14l0 3c-2-1-3-2-5-3-1 0-3 0-5 0-3 0-6 1-8 3-2 2-3 5-3 8 0 3 1 6 4 9 1 1 2 1 4 2 2 0 3 1 5 1 2 0 4 0 5-1 1 0 1 0 1 0 1 0 1 0 2-1l0 4c0 1-1 2-1 2 0 1 0 1-1 2 0 0-1 0-2 0 0 1-1 1-3 1 0 0-1 0-2-1 0 0-1 0-2 0-1 0-1-1-2-1-1 0-1 0-2 0l-2 5c1 1 3 1 4 2 1 0 2 1 3 1 2 0 3 0 4 0 2 0 3 0 5 0 2-1 3-1 4-2 2-1 3-2 3-4 1-1 1-3 1-5l0-18 5 0 0-7-12 0z m-30 38c0 1-1 1-1 2-1 1-2 1-3 1-1 1-3 1-5 1l-7 0 0-16 7 0c2 0 4 0 5 0 1 1 2 1 3 2 0 0 1 1 1 2 1 1 1 2 1 3 0 2 0 4-1 5m8-10c-1-2-2-4-4-5-1-2-3-3-5-3-2-1-4-1-6-1l-9 0 0-19-13 0 0 7 6 0 0 35-6 0 0 7 21 0c2 0 5 0 7-1 2-1 4-2 5-3 2-1 3-3 4-5 0-2 1-4 1-6 0-2-1-5-1-6"/>
<glyph unicode="&#77;" d="M256 461c-113 0-205-92-205-205 0-113 92-205 205-205 113 0 205 92 205 205 0 113-92 205-205 205z m20-108l12 0 0-48c0-1 0-2 1-3 0 0 1-1 2-1 1 0 2 1 3 2 1 0 3 1 4 3l0 47 11 0 0-62-11 0 0 7c-2-3-5-5-7-6-2-1-4-2-7-2-2 0-4 1-6 3-1 2-2 4-2 8z m-26 1c5 0 9-1 12-4 3-3 5-7 5-12l0-32c0-5-2-9-5-12-3-3-7-5-12-5-5 0-9 2-12 5-3 3-5 7-5 13l0 32c0 4 2 8 5 11 3 3 7 4 12 4z m-46 21l8-34 1 0 8 34 13 0-15-49 0-35-13 0 0 33-16 51z m146-199c0-15-13-27-28-27-21-1-43-1-66-1-22 0-44 0-66 1-15 0-27 12-27 27-1 12-1 24-1 35 0 12 0 24 1 36 0 15 12 27 27 27 21 1 42 1 63 1 1 0 2 0 3 0 1 0 2 0 4 0 21 0 42 0 62-1 15 0 28-12 28-27 1-12 1-24 1-36 0-11 0-23-1-35z m-68 57c-2 0-4 0-6-1-1-1-3-3-5-5l0 27-11 0 0-83 11 0 0 4c2-2 4-3 5-4 2-1 4-1 6-1 4 0 6 1 8 3 2 3 3 6 3 10l0 35c0 5-1 9-3 11-2 3-5 4-8 4z m-1-48c0-2 0-3-1-4-1-1-2-1-3-1-1 0-2 0-3 0-1 1-2 1-3 2l0 39c1 1 2 1 3 2 1 0 1 0 2 0 2 0 3 0 4-1 1-1 1-3 1-5l0-32z m-65 69l-40 0 0-12 14 0 0-71 13 0 0 71 13 0z m21-68c-1-2-2-3-3-4-2-1-3-1-4-1-1 0-2 0-2 1 0 1-1 2-1 3l0 47-11 0 0-51c0-4 0-7 2-8 1-2 3-3 6-3 2 0 4 0 6 2 3 1 5 3 7 5l0-6 12 0 0 61-12 0 0-46z m82 48c-5 0-9-2-13-5-3-3-5-8-5-13l0-28c0-6 2-11 5-14 3-3 7-5 12-5 6 0 10 2 13 5 3 3 4 8 4 14l0 5-12 0 0-5c0-3 0-6-1-7 0-1-2-1-4-1-2 0-3 0-4 2 0 1-1 3-1 6l0 12 22 0 0 16c0 6-1 10-4 13-3 3-7 5-12 5z m4-24l-10 0 0 6c0 3 1 4 1 5 1 2 3 2 4 2 2 0 3 0 4-2 1-1 1-2 1-5z m-73 90c1 0 3 1 4 2 0 0 1 2 1 3l0 34c0 1-1 3-1 3-1 1-3 2-4 2-2 0-3-1-4-2 0 0-1-2-1-3l0-34c0-1 1-3 1-4 1 0 2-1 4-1z"/>
<glyph unicode="&#78;" d="M225 231l60 31-60 32z m28 234c-114 0-205-92-205-205 0-113 91-205 205-205 113 0 204 92 204 205 0 113-91 205-204 205z m116-213c0-18-5-36-5-36 0 0-3-16-10-22-9-9-19-9-23-10-31-2-78-2-78-2 0 0-58 0-76 2-5 1-16 1-24 10-7 6-8 22-8 22 0 0-2 18-2 36l0 16c0 18 2 36 2 36 0 0 1 16 8 22 8 9 18 9 22 10 31 2 78 2 78 2l0 0c0 0 46 0 77-2 5-1 14-1 23-10 6-6 11-22 11-22 0 0 5-18 5-36z m-144-21l0 63 60-32z"/>
<glyph unicode="&#79;" d="M215 317c1 1 1 5 0 6 0 12-13 18-21 10-10-8-5-30 9-30 8 1 11 7 12 14m82-131c-8 0-17 0-25 0-1 0-1 0-2 0 0-2 0-5 0-7 0-3 2-4 4-4 7 0 14 0 21 0 2 0 4 1 4 3 0 2 0 4 0 7 0 1 0 1-2 1z m-2 25c1-2 2-2 4-2l0 18-4 0c0-1 0-1 0-2 0-4 0-8 0-13 0 0 0-1 0-1z m-39 250c-113 0-205-92-205-205 0-113 92-205 205-205 113 0 205 92 205 205 0 113-92 205-205 205z m34-119c0 9 17 9 17 0l0-16c2 1 4 4 6 6 2 1 3 3 5 4 2 3 5 6 8 8 3 7 16 7 17-2 1-11-15-16-18-22 4-6 15-11 18-17 4-7 0-15-10-13-4 1-8 7-12 11-4 4-9 7-13 11-2 3-1-3-1-6l0-10c-1-4-3-6-6-7l-5 0c-4 1-6 3-6 7z m-150-76c-24-2-6 25-3 34-5 10-12 22-19 33-2 5-10 15-2 20 2 2 8 2 11 0 8-6 13-24 20-32 3 5 5 11 8 17 2 5 4 13 8 15 5 4 14 1 15-5 1-7-5-16-8-22-7-15-12-27-19-42-3-7-5-15-11-18z m112-85c0-2-1-4-1-7-2-4-5-7-9-7-6-1-12-1-18 0-5 1-8 4-8 9 0 6 0 12 0 18 0 9 0 18 0 28l0 2c-2 0-3 0-3-2-1-20-9-38-23-53-1-1-3-2-4-3-3 2-5 4-9 6l0-6-11 0 0 45c0 0 0 0-1 0-2-3-4-6-6-9-3 3-6 5-9 8 12 15 20 31 25 49 4-1 7-3 11-4-1-5-3-10-5-15 0-2-1-4-2-6-1-2-2-5-2-8 0-16 0-33 0-50l0-2c15 13 24 30 25 50l-20 0 0 10c1 0 1 0 2 0 5 0 11 0 16 0 2 0 2 0 2 2l0 23c3 0 5 0 7 0 2 0 4 0 4 0 1-1 1-3 1-4 0-7 0-13 0-19 0-2 0-2 1-2 11 0 22 0 33 0l2 0 0-10-22 0c0-1-1-1-1-2 0-14 0-27 0-41 0-4 2-6 6-6 0 0 1 0 1 0 4 1 6 2 7 6 0 4 0 8 1 12 0 1 0 1 0 2 4-1 7-2 11-3 0-4 0-7-1-11z m-29 70c2 2 4 5 6 7 7-4 13-9 19-14-2-3-5-5-7-8-6 5-12 10-18 15z m10 62c0 1 0 4 0 5l-1 0c-2-18-11-27-27-29-25-2-40 24-28 47 4 9 13 15 24 16 18 0 29-12 32-31 0 6 0 14 0 21-1 11 18 11 16 0 1-10 0-22 1-32 1-10 21-10 21 2 1 9 0 21 0 31-1 10 18 9 17 0l0-31c-2-14-11-21-25-22l-6 0c-14 1-23 8-24 23z m76-66l-14 0c0-2 0-3 0-5 0-2 0-3 0-5 2 0 4-1 6-1 3 0 5 0 8 0 0 0 0-1 0-1 0-20 0-39 0-58 0-1 0-2 0-2 0-6-3-8-9-9-2 0-4 0-6 0-8 0-17 0-25 0 0 0-1 0-1 0-6 1-8 4-8 9 0 19 0 37 0 55l0 6 15 0 0 11-15 0 0 9 49 0 0-9z m49-71c0 0 0-1 0-1 0-6-2-9-8-9-9 0-17 0-26 0-6 0-8 3-8 9-1 8 0 17 0 26l0 6 42 0c0-1 0-2 0-2l0-29z m3 37c-1 0-1 0-2 0-15 0-30 0-44 0-2 0-3 0-2 1 0 2 0 4 0 6-1 1 0 2 1 2 6 0 11 0 16 0 2 0 2 0 2 2 0 4 0 7 0 11l-9 0c-1-3-2-6-3-10-3 1-6 1-9 2 2 9 3 19 5 28 3 0 6 0 10-1-1-3-1-6-1-9 2 0 4 0 7 0 0 0 0 1 0 1 0 4 0 7 0 11l0 2 11 0 0-14c1 0 2 0 2 0 4 0 8 0 11 0 1 0 2-1 2-2 0-2 0-5 0-7l-15 0 0-14 18 0 0-9z m38 99c-1-14-10-21-24-22l-7 0c-14 1-23 8-24 23l0 29c0 0 0 0 0 0-1 10 17 11 16 1 1-10 0-21 1-31-1-12 21-13 21 0 1 9 0 21 1 31 0 10 17 10 16-1z m-115-65l3 0 0-11-3 0z m-14-51l29 0c0 1 0 2 0 3 0 2 0 3-2 3-7 0-10 4-10 10 0 4 0 8 0 13 0 0 0 1 0 2l-3 0c-1-10-2-19-7-28-2 2-4 3-7 5z m0 9c0 0 0 0 1 0 4 7 4 14 4 22l-5 0 0-22z m57-8c0-6 0-12 0-18 0-2 1-4 3-4 5 0 9 0 14 0 2 0 3 2 3 4l0 19c-6 0-13 0-20 0 0 0 0-1 0-1z"/>
<glyph unicode="&#80;" d="M256 461c-113 0-205-92-205-205 0-113 92-205 205-205 113 0 205 92 205 205 0 113-92 205-205 205z m-23-322c-60 0-121 29-121 77 0 25 15 54 43 81 36 36 78 53 94 37 7-7 8-19 4-34-3-7 6-3 6-3 30 12 56 13 65-1 5-7 4-17 0-28-2-6 0-6 5-8 16-5 35-17 35-39 0-36-53-82-131-82z m108 152c2 6 1 13-4 18-4 5-11 7-17 5l0 0c-5-1-10 2-11 8-1 5 2 10 7 11 13 3 26-1 36-12 9-10 11-24 7-36-1-5-7-8-12-6-5 1-7 7-6 12l0 0z m56-18c0 0 0 0 0 0-2-6-8-9-14-7-6 2-9 8-7 14l0 0c5 18 2 38-12 53-13 15-33 21-51 17-6-2-12 2-14 8-1 6 3 12 9 13l0 0c26 6 54-2 73-23 19-21 24-50 16-75z m-164-53c-3 1-6 0-8-3-1-3-1-6 2-7 3-1 7 0 9 3 1 3 0 6-3 7z m-11 50c-48-5-84-34-81-66 3-31 44-53 92-48 48 5 84 34 81 66-3 31-45 53-92 48z m42-74c-10-22-38-34-62-26-23 7-33 30-23 50 10 20 36 32 59 26 23-6 35-29 26-50z m-49 17c-7 3-17 0-22-8-4-7-2-15 5-19 8-3 18 0 22 7 5 8 2 16-5 20z"/>
<glyph unicode="&#81;" d="M176 335c-10-3-13-19-4-25 8-7 22-2 24 8 3 11-9 21-20 17z m105-75c-8-2-10-14-4-19 5-6 16-4 19 4 4 9-6 19-15 15z m-37 50c9-8 24-1 24 11 1 10-11 18-20 14-10-3-13-19-4-25z m12 151c-113 0-205-92-205-205 0-113 92-205 205-205 113 0 205 92 205 205 0 113-92 205-205 205z m-77-253c-12-6-23-13-35-19 3 11 7 21 10 31-18 12-34 30-39 52-5 20-1 42 10 59 11 19 30 33 51 41 32 11 70 9 99-8 23-12 41-34 46-59-28 2-57-6-78-26-12-11-21-26-24-42-1-12 0-24 3-35-14-1-29 1-43 6z m213-12c-6-12-16-22-27-30 3-8 6-16 8-25-9 5-18 11-28 15-17-5-35-7-52-3-24 4-47 18-59 39-9 14-12 31-9 47 5 22 21 39 41 49 28 15 63 15 91 1 16-8 29-21 37-38 7-17 7-38-2-55z m-51 65c-6 0-9-6-11-12 1-3 2-6 4-8 6-6 16-4 19 3 5 8-3 18-12 17z"/>
<glyph unicode="&#82;" d="M256 461c-113 0-205-92-205-205 0-113 92-205 205-205 113 0 205 92 205 205 0 113-92 205-205 205z m95-157c0-2 0-4 0-6 0-63-47-134-134-134-27 0-51 7-72 21 3-1 7-1 11-1 22 0 42 8 59 20-21 1-39 14-45 33 3-1 6-1 9-1 5 0 9 1 13 2-22 4-38 23-38 46 0 0 0 0 0 1 6-4 14-6 21-6-12 8-21 23-21 39 0 9 3 17 7 24 23-29 58-48 97-50-1 4-1 8-1 11 0 26 21 47 47 47 13 0 26-5 34-14 11 2 21 6 30 11-3-11-11-20-20-26 9 1 18 4 27 7-7-9-15-18-24-24z"/>
<glyph unicode="&#83;" d="M256 459c-112 0-203-91-203-203 0-112 91-203 203-203 112 0 203 91 203 203 0 112-91 203-203 203z m69-300c-10-4-18-8-26-9-8-2-16-3-25-3-10 0-16 1-24 4-7 2-14 6-19 11-6 4-10 9-12 15-2 5-3 13-3 23l0 78-30 0 0 31c9 3 19 7 25 12 6 5 11 12 15 19 4 7 6 17 8 28l31 0 0-51 51 0 0-39-51 0 0-57c0-13 0-20 1-24 1-4 5-7 9-10 4-3 10-4 16-4 12 0 23 4 34 11z"/>
<glyph unicode="&#84;" d="M257 372l-1 0c-64 0-116-52-116-116 0-64 52-116 116-116l0 0c64 0 116 52 116 115 0 31-12 61-34 83-22 22-51 34-81 34z m-18-105c-2 1-4 2-6 2-4 2-9 4-13 5-2 0-4 1-5 1-2 1-5 1-8 1-3-2-12-12-16-31 2 3 5 5 9 5 5 0 10-5 10-10 0-5-3-9-8-10 5-1 8-6 8-11 0-5-5-10-10-10-5 0-9 4-10 8-1-4-5-8-10-8-6 0-11 5-11 10 0 5 4 10 9 11-5 1-9 5-9 10 0 5 5 10 11 10 4 0 7-2 9-5 0 1 1 20 11 32-11 0-22-2-32-7l-1 0 0 1c1 16 17 31 36 31 20 0 36-15 36-35l0 0z m106 3l0 0c-11 4-22 7-33 7-12 0-25-4-38-10l0-1 0 1c-1 7 1 14 6 20 6 9 15 14 25 15 1 0 3 0 4 0 19 0 35-14 36-32z m-159-41c0-2 1-4 4-4 2 0 4 2 4 4 0 3-2 4-4 4-3 0-4-1-4-4z m70 232c-113 0-205-92-205-205 0-113 92-205 205-205 113 0 205 92 205 205 0 113-92 205-205 205z m101-306c-27-27-63-42-101-42l0 0c-38 0-74 15-101 42-27 27-42 63-42 101 0 39 15 74 42 101 27 27 63 42 102 42l0 0c38 0 74-15 100-42 27-27 42-63 42-101 0-38-15-74-42-101z"/>
<glyph unicode="&#85;" d="M256 215c22 0 41 19 41 41 0 9-3 17-8 24-7 10-19 17-33 17-14 0-26-7-33-17-5-7-8-15-8-24 0-22 19-41 41-41z m89 91l0 39-5 0-34 0 0-39z m-89 153c-112 0-203-91-203-203 0-112 91-203 203-203 112 0 203 91 203 203 0 112-91 203-203 203z m116-179l0-95c0-25-20-45-45-45l-142 0c-25 0-45 20-45 45l0 142c0 25 20 45 45 45l142 0c25 0 45-20 45-45z m-53-24c0-35-28-63-63-63-35 0-63 28-63 63 0 8 1 16 4 24l-34 0 0-95c0-12 10-22 22-22l142 0c12 0 22 10 22 22l0 95-34 0c3-8 4-16 4-24z"/>
<glyph unicode="&#86;" d="M256 461c-113 0-205-92-205-205 0-113 92-205 205-205 113 0 205 92 205 205 0 113-92 205-205 205z m52-203l-32 0 0-117-48 0 0 117-25 0 0 40 25 0 0 24c0 32 13 52 52 52l32 0 0-40-20 0c-15 0-16-6-16-16l0-20 36 0z"/>
<glyph unicode="&#87;" d="M109 152c7 8 16 10 26 8 9-2 17-6 25-9 6-2 12-4 17-6 4-1 8-1 11 1 3 2 6 4 10 5-2 5-4 9-5 14-8 18-16 36-26 53-2 2-3 5-4 6-2 2-4 3-5 4-3 1-5 3-6 6 0 3 2 5 5 6 6 4 13 6 20 7 3 0 6 0 10 1 0 1 0 2 0 3 0 24 0 49 0 73 0 5 1 6 6 6 2 0 4 0 6 0 0 3 0 6 0 9 0 1-1 2-1 3-3 2-6 5-9 8-2 2-3 3-2 6 1 2 3 2 5 2 14 0 28 0 42 0 1 0 2 0 4 0 0 1 0 2 0 3 0 7 0 13 0 20 0 3 1 5 4 5 2 0 4-2 4-5 0-6 0-13 0-19 0-1 0-2 0-3 4 0 8 0 12 0 0 0 0 1 0 2 0 14 0 27 0 40 0 2 1 4 3 5 1 0 2 0 3 0 2-1 2-3 2-5 0-13 0-26 0-39 0-1 0-2 0-3 2 0 3 0 4 0 19 0 39 0 59 0 2 0 4-1 5-3 0-1-1-3-2-5-2-3-6-6-8-9-1-1-2-2-2-4 0-2 0-5 0-8 2 0 4 0 6 0 5 0 6-1 6-6 0-24 0-48 0-73 0-3 0-3 4-4 7-1 14-2 21-4 3 0 5-2 7-3 4-4 3-9-1-11-5-2-8-6-10-10-11-18-19-37-27-56-2-3-3-7-4-11 9-3 18-7 27-10 5-2 10 0 14 2 6 2 12 5 18 7 5 2 11 4 16 5 9 2 17-2 24-7 1-1 1-2 2-2 0-1 0-2 0-3-4-4-4-4-9-1-3 2-6 4-9 5-7 1-13-1-19-4-10-4-19-10-30-11-2 0-4 0-6 0-6 2-12 3-17 5-7 3-14 7-21 10-11 4-22 4-33-3-6-5-13-6-20-5-6 1-10 4-14 7-11 9-23 10-36 3-7-4-14-8-21-12-3-2-7-2-11-2-8 1-15 4-22 7-7 3-15 6-22 9-7 2-14 1-19-4-3-2-5-1-7 2 0 1 0 1 0 2z m217 170c-44 0-87 0-131 0 0-25 0-49 0-74 1 1 2 1 2 1 2 0 3 0 5 1 19 4 36 11 54 19 4 2 6 2 10 0 16-7 32-14 50-18 3-1 6-2 10-3 0 25 0 49 0 74z m33-87c-2 0-2 1-3 1-7 1-13 3-20 4-6 1-13 1-19 2-17 4-33 11-49 17-1 1-2 1-3 2 0-38 0-76 0-113 2 0 3-1 4 0 4 1 7 2 10 4 8 5 17 8 27 6 3 0 7-1 11-2 0 1 1 2 1 3 7 18 14 36 24 53 4 8 9 16 17 23z m-196 0c11-11 18-25 24-38 6-14 12-28 18-42 18 12 35 9 51-5 0 37 0 74 0 111-1-1-2-1-2-2-10-3-19-7-29-10-11-4-21-8-33-9-5 0-11-1-16-1-5-1-9-3-13-4z m44 95c36 0 71 0 107 0 0 3 0 5 0 8-36 0-71 0-107 0 0-3 0-5 0-8z m-6 20c2-3 5-4 8-4 35 0 70 0 104 0 4 0 5 2 7 4-40 0-79 0-119 0z m59-33c7 0 14 0 20 0 3 0 5-1 5-3 0-3-2-5-5-5-13 0-26 0-39 0-3 0-5 2-5 5 0 2 2 3 4 3 7 1 14 0 20 0z m-47-8c-3 0-6 0-9 0-3 0-5 2-5 4 0 3 2 4 5 4 6 1 13 1 19 0 3 0 5-1 5-4 0-2-2-3-5-4-3 0-6 0-10 0z m95 8c3 0 6 1 10 0 2 0 4-1 4-3 0-3-2-4-4-5-7 0-14 0-20 0-3 0-5 2-5 4 0 3 2 4 5 4 3 1 6 0 10 0z"/>
<glyph unicode="&#88;" d="M205 346c0 1 1 2 2 4 0 2 1 4 0 6 0 1-1 1-1 2-1 1-2 2-3 2-1 1-2 1-3 2-1 0-2 0-3-1-1 0-2-1-3-1-1-1-2-2-3-3l0 0c-1-2-1-2-2-3 0 0 0 0 0 0 0 0 0 0-1 0-1-1-1-2-1-3 0-1 1-1 2-1 1 0 1 0 2 1 1 0 1 1 2 1 0 1 1 2 1 3 1 1 1 1 2 2 1 0 1 0 2 1 1 0 1 0 2 0 1 0 1 0 1-1 1 0 2-1 2-1 0 0 0-1 1-1 0-1 0-1 0-2 0 0-1-1-1-2 0-1 0-1-1-2 0-1 0-1-1-2 0-1 0-2 0-3-1-1 0-3 0-5 0 0 1-1 1-2l4 1c-1 1-1 2-1 3-1 1-1 2-1 3 0 0 0 1 0 1 1 0 1 1 1 1z m14-18c0 0 0 0 0 0l64-7c1 0 2-1 3-2l37-140c0-1 0-2-1-3l-140-37c0 0 0 0-1 0-1 0-1 0-2 1l-37 140c0 1 0 3 1 3l51 39c1 0 1 0 2 0 1 0 1 0 2 0 0 0 4-4 9-4 0 0 1 0 2 0 5 2 8 9 8 9 0 1 1 1 2 1m0 6c-3 0-6-2-7-5-1-2-3-5-5-6 0 0 0 0 0 0-2 0-5 2-6 3-2 1-3 1-5 1-2 0-3 0-5-1l-51-39c-3-2-4-5-3-8l37-140c1-3 4-5 7-5 1 0 2 0 2 0l140 37c2 1 3 2 4 4 1 1 2 3 1 5l-37 140c-1 3-4 5-7 6l-64 7c0 1-1 1-1 1z m59-32l-126-34m147 33l76 0m-70-21l63 0m-57-20l46 0m-39-23l31 0m-25-19l16 0"/>
<glyph unicode="&#89;" d="M256 125c-67 0-122 55-122 123 0 67 55 122 122 122 67 0 122-55 122-122 0-68-55-123-122-123z m0 237c-63 0-114-51-114-114 0-63 51-114 114-114 63 0 114 51 114 114 0 63-51 114-114 114z m6-115c-1 0-2 1-2 2l0 85c0 2 1 3 2 3 1 0 2-1 2-3l0-85c0-1-1-2-2-2z m-47-52c-1 0-1 0-2 1-1 1-1 2 0 3l43 43c1 1 3 1 4 0 1-1 1-2 0-3l-43-43c-1-1-1-1-2-1z"/>
<glyph unicode="&#90;" d="M353 268l0 7c0 48-39 87-87 87-48 0-87-39-87-87l0-7c-13-1-31-7-31-24l0-32c0-19 23-24 35-24 2 0 4 1 4 4l0 51c0 3-2 4-4 4-2 0-4-1-4-4l0-47c-8 1-23 4-23 16l0 31c0 17 27 17 27 17 2 0 4 2 4 4l0 10c0 44 35 79 79 79 43 0 79-35 79-79l0-10c0-2 2-4 4-4 0 0 27 0 27-17l0-31c0-12-16-15-23-16l0 47c0 3-2 4-4 4-2 0-4-2-4-4l0-52c0-13-5-45-44-47l0 6c0 6-4 14-15 14l-41 0c-13 0-20-9-20-19 0-10 7-20 20-20l41 0c3 0 4 2 4 4 0 2-1 4-4 4l-41 0c-8 0-12 6-12 12 0 6 4 11 12 11l41 0c6 0 7-4 7-6l0-10c0-3 2-4 4-4 20 0 35 6 44 19 9 10 11 23 12 33 12 1 31 7 31 24l0 31c0 18-19 24-31 25z"/>
<glyph unicode="&#48;" d="M256 512c-4 0-7 0-11 0-140-6-245-114-245-251 0-144 115-261 255-261 142 0 257 115 257 257 0 141-115 255-256 255z m-234-266l118 0c2-35 10-71 23-106l-109 0c-18 31-30 67-32 106z m117 22l-117 0c1 39 11 75 29 106l106 0c-12-34-18-70-18-106z m40 106l155 0c12-34 19-70 19-106l-193 0c0 36 6 72 19 106z m-19-128l192 0c-3-35-11-71-25-106l-142 0c-14 35-22 71-25 106z m212 0l118 0c-1-38-12-75-31-106l-109 0c12 35 20 71 22 106z m1 22c0 36-6 72-17 106l103 0c18-31 30-68 31-106z m72 128l-97 0c-14 32-32 63-56 92 63-10 117-44 153-92z m-183 95c27-30 48-62 63-95l-138 0c15 33 36 65 63 95 2 0 4 0 6 0 2 0 4 0 6 0z m-42-3c-24-29-42-60-55-92l-101 0c36 49 91 83 156 92z m-152-370l103 0c13-31 31-63 52-94-63 9-119 44-155 94z m183-97c-24 33-43 65-57 97l124 0c-14-32-33-64-57-97-2 0-4 0-6 0-1 0-3 0-4 0z m38 3c22 31 39 63 52 94l104 0c-36-50-92-85-156-94z"/>
<glyph unicode="&#49;" d="M256 213c-12 0-21-9-21-21 0-8 4-15 10-18l0-57c0-6 5-10 11-10 6 0 11 4 11 10l0 57c6 3 10 10 10 18 0 12-9 21-21 21z m128 107l0 64c0 71-57 128-128 128-71 0-128-57-128-128l0-64-64 0 0-320 384 0 0 320z m-235 64c0 59 48 107 107 107 59 0 107-48 107-107l0-64-214 0z m278-363l-342 0 0 278 342 0z"/>
<glyph unicode="&#50;" d="M271 256l238 237c5 4 5 11 0 15-4 5-11 5-15 0l-238-237-237 238c-4 5-11 5-15 0-5-4-5-11 0-15l237-238-238-237c-5-4-5-11 0-15 2-2 4-4 7-4 3 0 6 2 8 4l238 237 237-238c2-2 5-3 8-3 3 0 5 1 7 3 5 4 5 11 0 15z"/>
<glyph unicode="&#51;" d="M501 427l-54 0c-11 0-20-8-21-19l-8-57c0-6-5-10-10-10l-365 0c-14 0-27-6-35-17-8-11-10-25-6-38l33-107c6-18 22-30 41-30l308 0c6 0 11-4 11-10 0-6-5-11-11-11l-299 0c-6 0-10-5-10-11 0-6 4-10 10-10l299 0c18 0 32 14 32 32 0 17-14 32-32 32l-308 0c-9 0-18 6-20 15l-34 106c-2 7-1 14 3 19 4 6 11 9 18 9l365 0c16 0 30 12 32 28l7 57 54 0c6 0 11 5 11 11 0 6-5 11-11 11z m-96-138l-10-96c-1-6 3-11 9-12 1 0 1 0 1 0 6 0 10 4 11 10l11 96c0 6-4 11-10 12-6 0-11-4-12-10z m-277-204c-24 0-43-19-43-42 0-24 19-43 43-43 24 0 43 19 43 43 0 23-19 42-43 42z m0-64c-12 0-21 10-21 22 0 11 9 21 21 21 12 0 21-10 21-21 0-12-9-22-21-22z m235 64c-24 0-43-19-43-42 0-24 19-43 43-43 23 0 42 19 42 43 0 23-19 42-42 42z m0-64c-12 0-22 10-22 22 0 11 10 21 22 21 11 0 21-10 21-21 0-12-10-22-21-22z"/>
<glyph unicode="&#52;" d="M490 102c-16 31-70 51-144 78-8 3-17 7-26 10l0 51c9 8 29 29 32 63 5 4 8 11 11 20 3 15 1 33-9 44 0 1 1 3 2 5 8 20 23 59 17 89-7 37-60 50-102 50-33 0-74-8-86-31-13-2-23-7-30-16-18-25-5-69 3-93 0-1 0-3 1-4-11-10-13-28-10-44 3-9 6-16 11-20 3-34 23-55 32-63l0-51c-9-3-18-7-26-10-74-27-128-47-144-78-22-44-22-89-22-91 0-6 5-11 11-11l490 0c6 0 11 5 11 11 0 2 0 47-22 91z m-468-81c1 15 6 44 20 71 11 24 67 45 131 68 11 4 22 8 33 13 5 1 7 5 7 10l0 64c0 3-1 6-4 8-1 1-28 19-28 56 0 4-3 9-8 10-2 3-5 13-4 23 1 5 3 9 6 10 4 2 6 6 6 10 0 3-1 6-3 14-5 17-18 58-5 74 3 5 10 8 19 8 5 0 9 3 10 8 3 11 29 23 69 23 37 0 77-12 81-33 5-24-9-59-16-77-4-10-5-13-5-17 0-4 2-8 6-10 3-1 5-5 6-10 1-10-2-20-4-23-5-1-8-6-8-10 0-37-27-55-28-56-3-2-4-5-4-8l0-64c0-5 2-9 7-10 11-5 22-9 33-13 64-23 120-44 131-68 14-27 19-56 20-71z"/>
<glyph unicode="&#53;" d="M511 262c0 0 0 0 0 0 1 2 1 3 1 5 0 1 0 3-1 4 0 0 0 0 0 1-1 1-2 2-2 2-1 1-1 1-1 1l-266 234c-5 4-11 4-15-1-4-4-4-11 1-15l245-216-462 0c-6 0-11-4-11-10 0-6 5-11 11-11l462 0-245-216c-5-4-5-11-1-15 2-2 5-4 8-4 2 0 5 1 7 3l266 235c0 0 0 0 1 0 0 1 1 2 2 3z"/>
<glyph unicode="&#54;" d="M506 266l-491 245c-3 2-7 1-10-1-3-2-5-5-5-9l0-490c0-4 2-7 5-9 2-1 4-2 6-2 1 0 3 0 4 1l491 245c4 2 6 6 6 10 0 4-2 8-6 10z m-485-238l0 456 456-228z"/>
<glyph unicode="&#55;" d="M96 128l49 0 72-61c2-2 5-3 7-3 2 0 3 0 4 1 4 2 7 5 7 10l0 192c0 4-3 8-7 9-3 2-8 1-11-1l-72-62-49 0c-6 0-11-4-11-10l0-64c0-6 5-11 11-11z m11 64l42 0c3 0 5 1 7 3l57 48 0-145-57 49c-2 1-4 2-7 2l-42 0z m-107 181l0-320c0-29 24-53 53-53l267 0 0 341-267 0c-17 0-32 15-32 32 0 18 15 32 32 32l267 0 0 22-267 0c-29 0-53-24-53-54z m53-53l246 0 0-299-246 0c-17 0-32 15-32 32l0 278c9-7 20-11 32-11z m0 64c-6 0-10-5-10-11 0-6 4-10 10-10l235 0c6 0 11 4 11 10 0 6-5 11-11 11z m362-108c-4 4-11 4-15 0-4-4-4-11 0-15 24-24 37-56 37-91 0-34-13-66-37-90-4-4-4-11 0-15 2-2 5-3 7-3 3 0 6 1 8 3 28 28 44 66 44 105 0 40-16 78-44 106z m41 30c-4 4-11 4-15 0-4-4-4-11 0-15 32-32 50-75 50-121 0-45-18-88-50-120-4-4-4-11 0-15 2-2 4-3 7-3 3 0 6 1 8 3 36 36 56 84 56 135 0 52-20 100-56 136z m-82-60c-4 4-11 4-15 0-4-4-4-11 0-15 16-16 25-38 25-61 0-22-9-44-25-60-4-4-4-11 0-15 2-2 5-3 8-3 2 0 5 1 7 3 20 20 31 47 31 75 0 29-11 56-31 76z"/>
<glyph unicode="&#56;" d="M501 384c6 0 11 5 11 11l0 106c0 6-5 11-11 11l-106 0c-6 0-11-5-11-11 0-6 5-10 11-10l81 0-220-220-219 220 81-1c0 0 0 0 0 0 6 0 11 5 11 11 0 6-5 11-11 11l-107 0c0 0 0 0 0 0-3 0-6-1-8-3-2-2-3-5-3-8l0-106c0-6 5-11 11-11 6 0 10 5 10 11l0 81 220-220-220-219 0 81c0 6-4 11-10 11-6 0-11-5-11-11l0-106c0 0 0 0 0 0l0-1c0-6 5-11 11-11l106 0c6 0 11 5 11 11 0 6-5 10-11 10l-81 0 220 220 219-220-80 0c-6 0-11-4-11-10 0-6 5-11 11-11l106 0c6 0 11 5 11 11l0 106c0 6-5 11-11 11-6 0-10-5-10-11l0-81-220 220 220 219 0-80c0-6 4-11 10-11z"/>
<glyph unicode="&#57;" d="M224 512l-107 0c-6 0-10-5-10-11l0-490c0-6 4-11 10-11l107 0c6 0 11 5 11 11l0 490c0 6-5 11-11 11z m-11-491l-85 0 0 470 85 0z m182 491l-107 0c-6 0-11-5-11-11l0-490c0-6 5-11 11-11l107 0c6 0 10 5 10 11l0 490c0 6-4 11-10 11z m-11-491l-85 0 0 470 85 0z"/>
<glyph unicode="&#33;" d="M509 18l-192 192c0 0 0 0 0 0 28 32 46 74 46 121 0 100-82 181-182 181-100 0-181-81-181-181 0-100 81-182 181-182 47 0 89 18 121 46 0 0 0 0 0 0l192-192c2-2 5-3 7-3 3 0 6 1 8 3 4 4 4 11 0 15z m-328 153c-88 0-160 71-160 160 0 88 72 160 160 160 89 0 160-72 160-160 0-89-71-160-160-160z"/>
<glyph unicode="&#34;" d="M245 512c-135 0-245-110-245-245 0-65 25-127 72-173 46-47 107-73 173-73 0 0 0 0 0 0 135 0 245 110 246 245 0 135-110 246-246 246z m0-469l0-11 0 11c-60 0-116 23-158 66-43 42-66 98-66 158 1 123 101 224 225 224 123-1 224-101 223-225 0-123-100-223-224-223z m99 322c-5 4-11 4-16 0l-83-83-82 83c-5 4-11 4-16 0-4-4-4-11 0-15l83-83-83-83c-4-4-4-11 0-15 2-2 5-3 8-3 2 0 5 1 7 3l83 83 83-84c2-2 5-3 8-3 2 0 5 1 7 3 4 5 4 11 0 15l-83 84 84 82c4 5 4 11 0 16z"/>
<glyph unicode="&#35;" d="M245 174l0-57c0-6 5-10 11-10 6 0 11 4 11 10l0 57c6 3 10 10 10 18 0 12-9 21-21 21-12 0-21-9-21-21 0-8 4-15 10-18z m139 146l0 64c0 71-57 128-128 128-71 0-128-57-128-128l21 0c0 59 48 107 107 107 59 0 107-48 107-107l0-64-299 0 0-320 384 0 0 320z m43-299l-342 0 0 278 342 0z"/>
<glyph unicode="&#36;" d="M245 174l0-57c0-6 5-10 11-10 6 0 11 4 11 10l0 57c6 3 10 10 10 18 0 12-9 21-21 21-12 0-21-9-21-21 0-8 4-15 10-18z m139 146l0 64c0 71-57 128-128 128-71 0-128-57-128-128l21 0c0 59 48 107 107 107 59 0 107-48 107-107l0-64-299 0 0-320 384 0 0 320z m43-299l-342 0 0 278 342 0z"/>
<glyph unicode="&#37;" d="M480 277l-224 0 0 224c0 6-4 11-10 11 0 0 0 0 0 0-6 0-11-5-11-11l0-224-224 0c-6 0-11-4-11-10 0-6 5-11 11-11l224 0 0-224c0-6 4-11 10-11 6 0 11 5 11 11l0 224 224 0c6 0 11 5 11 11 0 6-5 10-11 10z"/>
<glyph unicode="&#38;" d="M271 490c-4 2-9 1-12-2l-146-147-70 0c-24 0-43-19-43-42l0-64c0-24 19-43 43-43l70 0 146-146c2-2 5-3 8-3 1 0 2 0 4 0 4 2 6 6 6 10l0 427c0 4-2 8-6 10z m-15-411l-131 131c-2 2-5 3-8 3l-74 0c-12 0-22 10-22 22l0 64c0 11 10 21 22 21l74 0c3 0 6 1 8 3l131 131z m178 366c-5 4-11 4-15-1-4-4-4-11 1-15 45-39 71-98 71-162 0-64-26-124-71-163-5-4-5-11-1-15 2-2 5-4 8-4 2 0 5 1 7 3 49 43 78 109 78 179 0 70-29 135-78 178z m-54-42c-4 4-11 3-15-2-4-4-3-11 2-15 36-30 60-77 60-119 0-43-24-90-60-120-5-4-6-11-2-15 2-3 5-4 8-4 3 0 5 1 7 2 41 35 68 88 68 137 0 48-27 102-68 136z m-43-53c-5 3-11 2-15-2-3-5-2-12 2-15 18-13 39-35 39-66 0-32-21-54-39-66-4-4-5-11-2-15 2-3 5-5 9-5 2 0 4 1 6 2 30 22 47 52 47 84 0 31-17 61-47 83z"/>
<glyph unicode="&#39;" d="M501 277l-170 0c-6 0-11-4-11-10 0-6 5-11 11-11l170 0c6 0 11 5 11 11 0 6-5 10-11 10z m-230 213c-4 2-9 1-12-2l-146-147-70 0c-24 0-43-19-43-42l0-64c0-24 19-43 43-43l70 0 146-146c2-2 5-3 8-3 1 0 2 0 4 0 4 2 6 6 6 10l0 427c0 4-2 8-6 10z m-15-411l-131 131c-2 2-5 3-8 3l-74 0c-12 0-22 10-22 22l0 64c0 11 10 21 22 21l74 0c3 0 6 1 8 3l131 131z"/>
<glyph unicode="&#40;" d="M256 281c-29 0-53-24-53-53 0-30 23-54 53-54 0 0 0 0 0 0 29 0 53 24 53 54 0 14-5 27-15 37-10 10-24 16-38 16z m0-85l0-11 0 11c-18 0-32 14-32 32 0 17 14 32 32 32 9 0 17-4 23-10 6-6 9-14 9-22 0-18-14-32-32-32z m253 39l-128 118c-3 3-8 3-12 2-4-2-6-6-6-10l-1-235c0-4 3-8 7-10 1 0 3 0 4 0 3 0 5 0 7 2l129 117c2 2 3 5 3 8 0 3-1 6-3 8z m-125-101l0 187 102-94z m-241 221c-4 2-8 1-11-2l-129-117c-2-2-3-5-3-8 0-3 1-6 3-8l128-117c2-2 5-3 7-3 2 0 3 0 5 1 4 2 6 5 6 10l1 234c0 5-3 8-7 10z m-15-220l-102 93 102 93z"/>
<glyph unicode="&#41;" d="M509 360l-75 74c-4 4-11 4-15 0l-259-259-67 67c-4 4-11 4-15 0l-75-74c-4-5-4-11 0-16l149-149c3-2 5-3 8-3 3 0 5 1 8 3l341 341c4 5 4 11 0 16z m-349-334l-134 134 59 60 67-68c5-4 11-4 16 0l259 260 59-60z"/>
<glyph unicode="&#42;" d="M271 490c-4 2-9 1-12-2l-146-147-70 0c-24 0-43-19-43-42l0-64c0-24 19-43 43-43l70 0 146-146c2-2 5-3 8-3 1 0 2 0 4 0 4 2 6 6 6 10l0 427c0 4-2 8-6 10z m-15-411l-131 131c-2 2-5 3-8 3l-74 0c-12 0-22 10-22 22l0 64c0 11 10 21 22 21l74 0c3 0 6 1 8 3l131 131z m124 324c-4 4-11 3-15-2-4-4-3-11 2-15 36-30 60-77 60-119 0-43-24-90-60-120-5-4-6-11-2-15 2-3 5-4 8-4 3 0 5 1 7 2 41 35 68 88 68 137 0 48-27 102-68 136z m-43-53c-5 3-11 2-15-2-3-5-2-12 2-15 18-13 39-35 39-66 0-32-21-54-39-66-4-4-5-11-2-15 2-3 5-5 9-5 2 0 4 1 6 2 30 22 47 52 47 84 0 31-17 61-47 83z"/>
<glyph unicode="&#43;" d="M256 512c-141 0-256-115-256-256 0-141 115-256 256-256 141 0 256 115 256 256 0 141-115 256-256 256z m0-491c-129 0-235 106-235 235 0 129 106 235 235 235 129 0 235-106 235-235 0-129-106-235-235-235z m122 245l-192 96c-3 1-7 1-10-1-3-2-5-5-5-9l0-192c0-4 2-7 5-9 1-1 3-2 5-2 2 0 4 1 5 1l192 96c4 2 6 6 6 10 0 4-2 8-6 10z m-186-89l0 158 157-79z"/>
<glyph unicode="&#44;" d="M508 404c-4 4-11 4-15-1l-237-271-237 271c-4 5-11 5-15 1-5-4-5-10-1-15l245-280c2-3 5-4 8-4 3 0 6 1 8 4l245 280c4 5 4 11-1 15z"/>
<glyph unicode="&#45;" d="M245 512c-135 0-245-110-245-245 0-136 110-246 245-246 136 0 246 110 246 246 0 135-110 245-246 245z m0-469c-123 0-224 100-224 224 0 123 101 224 224 224 124 0 224-101 224-224 0-124-100-224-224-224z m64 85l-53 0 0 181c0 6-5 11-11 11l-42 0c-6 0-11-5-11-11 0-6 5-10 11-10l32 0 0-171-54 0c-6 0-10-5-10-11 0-6 4-10 10-10l128 0c6 0 11 4 11 10 0 6-5 11-11 11z m-85 256c12 0 21 10 21 21 0 12-9 22-21 22-12 0-21-10-21-22 0-11 9-21 21-21z m0 21l0-10 0 10z"/>
<glyph unicode="&#46;" d="M510 241c-5 6-115 143-254 143-139 0-249-137-254-143-3-4-3-9 0-13 5-6 115-143 254-143 139 0 249 137 254 143 3 4 3 9 0 13z m-254-134c-112 0-208 101-231 128 23 27 119 128 231 128 112 0 208-101 231-128-23-27-119-128-231-128z m0 224c-53 0-96-43-96-96 0-53 43-96 96-96 53 0 96 43 96 96 0 53-43 96-96 96z m0-171c-41 0-75 33-75 75 0 41 34 74 75 74 41 0 75-33 75-74 0-42-34-75-75-75z"/>
<glyph unicode="&#47;" d="M280 104l-67-68 0 273c0 6-4 11-10 11-6 0-11-5-11-11l0-273-67 68c-4 4-11 4-15 0-4-5-4-11 0-16l85-85c1-1 2-2 4-2 1-1 2-1 4-1 1 0 2 0 4 1 1 0 2 1 3 2l86 85c4 5 4 11 0 16-5 4-11 4-16 0z m122 320l-85 85c-1 1-2 2-4 2-2 1-5 1-8 0-1 0-2-1-3-2l-86-85c-4-5-4-11 0-16 5-4 11-4 16 0l67 68 0-273c0-6 4-11 10-11 6 0 11 5 11 11l0 273 67-68c2-2 5-3 8-3 2 0 5 1 7 3 4 5 4 11 0 16z"/>
<glyph unicode="&#58;" d="M416 192c-10 0-20-2-29-4l-75 150c24 18 40 46 40 78 0 53-43 96-96 96-53 0-96-43-96-96 0-32 16-60 40-78l-75-150c-9 2-19 4-29 4-53 0-96-43-96-96 0-53 43-96 96-96 49 0 90 37 95 85l130 0c5-48 46-85 95-85 53 0 96 43 96 96 0 53-43 96-96 96z m-235 224c0 41 34 75 75 75 41 0 75-34 75-75 0-41-34-75-75-75-41 0-75 34-75 75z m37-88c12-5 25-8 38-8 13 0 26 3 38 8l74-149c-26-15-44-41-47-72l-130 0c-3 31-21 57-47 72z m-122-307c-41 0-75 34-75 75 0 41 34 75 75 75 41 0 75-34 75-75 0-41-34-75-75-75z m320 0c-41 0-75 34-75 75 0 41 34 75 75 75 41 0 75-34 75-75 0-41-34-75-75-75z"/>
<glyph unicode="&#59;" d="M256 384c35 0 64 29 64 64 0 35-29 64-64 64-35 0-64-29-64-64 0-35 29-64 64-64z m0 107c24 0 43-19 43-43 0-24-19-43-43-43-24 0-43 19-43 43 0 24 19 43 43 43z m120-139l-74 21c-5 1-11-1-13-6l-33-66-33 66c-2 5-8 7-13 6l-74-21c-5-2-8-6-8-11l0-160c0-6 5-10 11-10l32 0 21-162c1-5 5-9 11-9l106 0c6 0 10 4 11 9l21 162 32 0c6 0 11 4 11 10l0 160c0 5-3 9-8 11z m-13-160l-32 0c-5 0-10-4-10-9l-21-162-88 0-21 162c0 5-5 9-10 9l-32 0 0 141 59 17 38-77c4-8 16-8 20 0l38 77 59-17z"/>
<glyph unicode="&#60;" d="M181 320c-11 0-21-10-21-21 0-12 10-22 21-22 12 0 22 10 22 22 0 11-10 21-22 21z m107-171c0-11-10-21-21-21-12 0-22 10-22 21 0 12 10 22 22 22 11 0 21-10 21-22z m-139-53c0-12-9-21-21-21-12 0-21 9-21 21 0 12 9 21 21 21 12 0 21-9 21-21z m-64 107c0-12-9-22-21-22-12 0-21 10-21 22 0 11 9 21 21 21 12 0 21-10 21-21z m171-107c0-12-10-21-21-21-12 0-22 9-22 21 0 12 10 21 22 21 11 0 21-9 21-21z m64 107c0-12-10-22-21-22-12 0-22 10-22 22 0 11 10 21 22 21 11 0 21-10 21-21z m107 170c0-11-10-21-22-21-11 0-21 10-21 21 0 12 10 22 21 22 12 0 22-10 22-22z m0-106c0-12-10-22-22-22-11 0-21 10-21 22 0 11 10 21 21 21 12 0 22-10 22-21z m42 182c0 0 0 0 0 0 0 3-1 5-3 7 0 0-1 0-1 0 0 0 0 1 0 1-1 0-2 1-3 1 0 0 0 0 0 0l-171 54c-2 0-4 0-6 0l-171-54c0 0 0 0 0 0-1 0-2-1-3-1 0 0 0-1 0-1-1 0-1 0-1 0-2-2-3-4-3-7 0 0 0 0 0 0 0-1 0-1 0-1l0-108-100-31c0 0 0 0 0 0-1-1-2-1-2-2-1 0-1 0-1 0 0 0 0 0 0 0-2-2-3-4-4-7 0 0 0 0 0-1 0 0 0 0 0 0l0-214c0-4 3-8 6-9l171-75c0 0 0 0 1 0 1-1 2-1 3-1 2 0 3 0 4 1 0 0 0 0 1 0l170 75c4 1 7 5 7 9l0 100 100 40c4 1 6 5 6 10l0 213c0 0 0 0 0 1z m-181 41l138-43-138-52-138 52z m-107-244l-137 52 137 43 138-43z m-53 187l149-56 0-44-92 29c-3 1-5 1-7 0l-50-15z m-107-150l150-56 0-200-150 65z m320-191l-149-65 0 200 149 56z m107 150l-85-34 0 91c0 0 0 0 0 0 0 1 0 1-1 1 0 3-1 5-3 7 0 0 0 0 0 0-1 0-1 0-1 0-1 1-2 1-3 2 0 0 0 0 0 0l-56 17 0 51 149 56z m-160 185c12 0 21 9 21 21 0 12-9 21-21 21-12 0-21-9-21-21 0-12 9-21 21-21z"/>
<glyph unicode="&#61;" d="M416 341l-405 0c-6 0-11-4-11-10l0-320c0-6 5-11 11-11l405 0c6 0 11 5 11 11l0 320c0 6-5 10-11 10z m-11-320l-384 0 0 299 384 0z m-288 342c6 0 11 4 11 10l0 32c0 47 38 86 85 86 47 0 86-39 86-86l0-32c0-6 4-10 10-10 6 0 11 4 11 10l0 32c0 59-48 107-107 107-58 0-106-48-106-107l0-32c0-6 4-10 10-10z m363 83l-45 45c-2 2-5 3-8 3-2 0-5-1-7-3l-76-76c-2-2-3-4-3-7l0-45c0-6 5-11 11-11l45 0c3 0 6 1 8 3l75 76c4 4 4 10 0 15z m-87-73l-30 0 0 30 64 65 31-30z"/>
<glyph unicode="&#62;" d="M381 125c-4 4-11 4-15 0l-89-89 0 465c0 6-4 11-10 11-6 0-11-5-11-11l0-465-88 89c-5 4-11 4-16 0-4-4-4-11 0-15l107-107c1-1 2-2 4-2 1-1 2-1 4-1 1 0 2 0 4 1 1 0 2 1 3 2l107 107c4 4 4 11 0 15z"/>
<glyph unicode="&#63;" d="M511 263c1 2 1 5 0 8 0 1-1 2-2 3l-107 107c-4 4-11 4-15 0-4-4-4-11 0-15l89-89-465 0c-6 0-11-4-11-10 0-6 5-11 11-11l465 0-89-88c-4-5-4-11 0-16 2-2 5-3 8-3 2 0 5 1 7 3l107 107c1 1 2 2 2 4z"/>
<glyph unicode="&#64;" d="M509 123l-245 280c-4 5-12 5-16 0l-245-280c-4-5-4-11 1-15 4-4 11-4 15 1l237 271 237-271c2-3 5-4 8-4 3 0 5 1 7 3 5 4 5 10 1 15z"/>
<glyph unicode="&#91;" d="M403 19l-271 237 271 237c5 4 5 11 1 15-4 5-10 5-15 1l-280-245c-3-2-4-5-4-8 0-3 1-6 4-8l280-245c2-2 5-3 7-3 3 0 6 1 8 4 4 4 4 11-1 15z"/>
<glyph unicode="&#93;" d="M403 264l-280 245c-5 4-11 4-15-1-4-4-4-11 1-15l271-237-271-237c-5-4-5-11-1-15 2-3 5-4 8-4 2 0 5 1 7 3l280 245c3 2 4 5 4 8 0 3-1 6-4 8z"/>
<glyph unicode="&#113;" d="M511 506c-2 4-6 6-10 6l-490 0c-4 0-8-2-10-6-2-4-1-8 1-11l211-255 0-229c0-5 3-9 7-10 1-1 3-1 4-1 3 0 6 1 8 3l64 64c2 2 3 5 3 8l0 165 211 255c2 3 3 7 1 11z m-231-256c-2-2-3-4-3-7l0-164-42-43 0 207c0 3-1 5-3 7l-199 241 446 0z"/>
</font>
</defs>
</svg>
