<?xml version="1.0" standalone="no"?>
<!DOCTYPE svg PUBLIC "-//W3C//DTD SVG 1.1//EN" "http://www.w3.org/Graphics/SVG/1.1/DTD/svg11.dtd" >
<svg xmlns="http://www.w3.org/2000/svg">
<metadata></metadata>
<defs>
<font id="pill_gothic_300mgsemibd" horiz-adv-x="1103" >
<font-face units-per-em="2048" ascent="1638" descent="-410" />
<missing-glyph horiz-adv-x="446" />
<glyph unicode="&#xdf;" horiz-adv-x="1150" d="M84 852v152h92v223q0 129 74 209t205 80q55 0 125.5 -23t121.5 -51l-81 -156q-29 10 -68 26.5t-72 16.5q-72 0 -90 -45t-18 -117v-163h639v-130l-176 -262h18q98 -14 148.5 -68.5t50.5 -158.5v-170q0 -57 -21.5 -101t-59.5 -72t-88 -42t-108 -14q-92 0 -164.5 34.5 t-117.5 118.5l127 111q14 -39 55 -72t82 -33q49 0 72.5 22.5t23.5 76.5v106q0 59 -17.5 88t-76.5 29h-160v131l174 252h-395v-850h-203v852h-92z" />
<glyph unicode="&#xfb01;" horiz-adv-x="1058" d="M37 850v154h158v241q0 74 23.5 126t65.5 86t100 50.5t128 16.5q51 0 110.5 -13.5t116 -34t104.5 -46t77 -48.5l-91 -168q-31 18 -67.5 40t-76.5 40.5t-83 31.5t-88 13q-59 0 -85 -29.5t-26 -82.5v-223h168v-154h-170v-850h-206v850h-158zM702 0v1004h209v-1004h-209z" />
<glyph unicode="&#xfb02;" horiz-adv-x="1179" d="M37 848v156h162v227q0 150 90 222.5t237 72.5q39 0 93.5 -6.5t110.5 -17.5t108.5 -26.5t85.5 -31.5h77v-1444h-206v1296q-20 10 -58.5 18.5t-78.5 12.5t-75.5 6t-56.5 2q-121 0 -120 -108v-223h180v-156h-180v-848h-209v848h-160z" />
<glyph horiz-adv-x="2048" />
<glyph horiz-adv-x="2048" />
<glyph unicode="&#xd;" horiz-adv-x="446" />
<glyph unicode=" "  horiz-adv-x="446" />
<glyph unicode="&#x09;" horiz-adv-x="446" />
<glyph unicode="&#xa0;" horiz-adv-x="446" />
<glyph unicode="!" horiz-adv-x="493" d="M147 1393h234l-25 -906h-184zM156 0v254h223v-254h-223z" />
<glyph unicode="&#x22;" horiz-adv-x="604" d="M100 1389h164l-12 -453h-139zM342 1389h162l-10 -453h-138z" />
<glyph unicode="#" horiz-adv-x="1128" d="M84 266v133h233l68 424h-233v131h251l43 291h146l-43 -291h162l47 291h137l-41 -291h190v-131h-208l-68 -424h209v-133h-229l-37 -266h-146l37 266h-162l-39 -266h-141l37 266h-213zM461 399h166l63 424h-164z" />
<glyph unicode="$" horiz-adv-x="978" d="M86 254l145 115q25 -51 49.5 -85t54.5 -54.5t68.5 -30t92.5 -9.5q94 0 138 52.5t44 146.5v103l-557 315v231q0 162 85 249t226 106v235h174v-239q47 -6 92 -26t83 -50.5t68 -68.5t48 -79l-141 -123q-49 86 -103.5 123t-132.5 37q-39 0 -73.5 -7t-59.5 -26.5t-39 -52.5 t-14 -84v-100l557 -318v-243q0 -147 -80 -250t-223 -125v-244h-174v246q-113 10 -203 79.5t-125 176.5z" />
<glyph unicode="%" horiz-adv-x="1312" d="M117 1016v184q0 55 19.5 95t53 65.5t79.5 39t100 13.5q111 0 178 -54t67 -159v-184q0 -119 -67.5 -166t-177.5 -47q-111 0 -181.5 53t-70.5 160zM139 0l791 1393h176l-780 -1393h-187zM295 1047q0 -37 20.5 -57.5t53.5 -20.5t49 20.5t16 48.5v140q0 31 -19.5 49t-45.5 18 q-35 0 -54.5 -19.5t-19.5 -47.5v-131zM692 197v176q0 55 19.5 95t54.5 66.5t82 40t100 13.5q113 0 180.5 -56.5t67.5 -160.5v-178q0 -117 -68.5 -165t-179.5 -48q-117 0 -186.5 53t-69.5 164zM879 223q0 -78 69 -78q33 0 50.5 20.5t17.5 49.5v139q0 31 -20.5 49.5 t-47.5 18.5q-35 0 -52 -20.5t-17 -49.5v-129z" />
<glyph unicode="&#x26;" horiz-adv-x="1224" d="M84 346q0 68 26.5 127t68.5 113.5t92.5 104.5t97.5 97l-150 179v190q0 125 82 190.5t207 65.5q145 0 221 -79t76 -222q0 -57 -13.5 -102t-36 -84t-52 -76t-64.5 -80l188 -252l164 213l144 -123l-181 -241l215 -258l-151 -142l-187 230q-76 -98 -157.5 -152.5 t-198.5 -54.5q-88 0 -159.5 21.5t-123 65.5t-80 110.5t-28.5 158.5zM307 352q0 -96 43 -130t127 -34q35 0 69 16.5t62.5 41t53 55.5t43.5 61l-211 285q-33 -29 -66 -65.5t-59.5 -76.5t-44 -79t-17.5 -74zM424 1022l92 -119q43 47 69.5 94t26.5 109q0 61 -22.5 96t-75.5 35 t-69.5 -23.5t-16.5 -58.5z" />
<glyph unicode="'" horiz-adv-x="468" d="M131 1434h207l-21 -488h-165z" />
<glyph unicode="(" horiz-adv-x="661" d="M156 242v628q0 111 17 216.5t55 196.5t98.5 165t146.5 125l66 -98q-43 -27 -81 -79.5t-67 -129t-45 -176t-16 -220.5v-628q0 -207 53 -362.5t156 -239.5l-66 -101q-141 98 -229 270.5t-88 432.5z" />
<glyph unicode=")" horiz-adv-x="700" d="M119 1493l69 78q86 -49 146.5 -124t98.5 -167t55.5 -197.5t17.5 -216.5v-620q0 -260 -88 -433t-230 -272l-65 82q102 82 154.5 247t52.5 376v620q0 121 -17.5 224.5t-46 184.5t-66.5 136t-81 82z" />
<glyph unicode="*" horiz-adv-x="733" d="M84 1176l47 131l164 -72v205h141v-205l166 70l45 -129l-178 -70l123 -184l-119 -74l-106 166l-109 -166l-115 76l121 182z" />
<glyph unicode="+" horiz-adv-x="1001" d="M53 713v190h340v387h213v-387h342v-190h-342v-426h-213v426h-340z" />
<glyph unicode="," horiz-adv-x="421" d="M39 -209q35 45 56.5 104.5t21.5 147.5v145h182v-53q0 -80 -14.5 -144.5t-38 -113.5t-54 -87t-61.5 -64z" />
<glyph unicode="-" horiz-adv-x="624" d="M84 504v190h457v-190h-457z" />
<glyph unicode="." horiz-adv-x="468" d="M117 0v252h237v-252h-237z" />
<glyph unicode="/" horiz-adv-x="702" d="M37 -174l452 1567h187l-455 -1567h-184z" />
<glyph unicode="0" horiz-adv-x="1116" d="M131 377v627q0 197 113.5 303t312.5 106t312.5 -106.5t113.5 -302.5v-623q0 -195 -116.5 -298t-309.5 -103q-199 0 -312.5 100t-113.5 297zM344 377q0 -207 213 -207t213 211v623q0 106 -52 162.5t-161 56.5t-161 -57.5t-52 -161.5v-627z" />
<glyph unicode="1" horiz-adv-x="825" d="M127 1202v191h465v-1393h-213v1202h-252z" />
<glyph unicode="2" horiz-adv-x="970" d="M98 1202q66 98 169.5 157.5t242.5 59.5q182 0 276.5 -92t94.5 -244q0 -70 -9.5 -125t-36 -106t-71.5 -103.5t-119 -113.5q-57 -49 -111.5 -95t-96.5 -98.5t-67.5 -113t-25.5 -138.5h551v-190h-764v111q0 104 13.5 184t47 149.5t91 133t145.5 135.5q59 47 104.5 81.5 t75 70.5t45 78t15.5 101q0 100 -51.5 142.5t-141.5 42.5q-39 0 -74.5 -16.5t-66.5 -41t-55.5 -53t-42.5 -53.5z" />
<glyph unicode="3" horiz-adv-x="1024" d="M100 268l174 70q6 -33 29 -63.5t54.5 -54t67.5 -37t71 -13.5q84 0 142 26.5t58 100.5v195q0 37 -17 61.5t-46 39.5t-63.5 24.5t-71.5 11.5h-148v184h142q80 0 136 28.5t56 102.5v146q0 78 -53 105.5t-135 27.5q-39 0 -75 -13.5t-64.5 -37t-48 -53t-27.5 -60.5l-160 82 q14 66 52 117t91 85.5t115.5 52t126.5 17.5q180 0 285.5 -82t105.5 -241v-146q0 -45 -15.5 -79t-42 -60.5t-58 -47t-66.5 -36.5q76 -37 135 -93.5t59 -135.5v-195q0 -82 -31.5 -142.5t-87 -99.5t-128 -57t-154.5 -18q-76 0 -143.5 19t-121 56t-90 90.5t-53.5 122.5z" />
<glyph unicode="4" horiz-adv-x="1001" d="M55 391v148l404 854h317v-811h187v-191h-187v-391h-213v391h-508zM291 582h272l2 622h-10z" />
<glyph unicode="5" horiz-adv-x="999" d="M106 301l205 55q4 -25 17.5 -57.5t38 -61t61.5 -48t90 -19.5q90 0 128 35t38 114v197q0 86 -53 120t-137 34h-342l63 723h612v-191h-419l-33 -340h133q180 0 281.5 -90t101.5 -256v-197q0 -88 -31 -151.5t-84 -105.5t-124.5 -62t-155.5 -20q-152 0 -260.5 81.5 t-129.5 239.5z" />
<glyph unicode="6" horiz-adv-x="1028" d="M131 328v766q0 80 32 139t85 98t122.5 58.5t147.5 19.5q111 0 179.5 -35t136.5 -112l-123 -146q-33 43 -82 74t-111 31q-82 0 -131 -31t-49 -96v-293q53 66 108 89t121 23q174 0 259 -80.5t85 -252.5v-252q0 -86 -29.5 -149.5t-83 -106.5t-125 -64.5t-155.5 -21.5 q-176 0 -281.5 89t-105.5 253zM338 328q0 -82 51 -118t129 -36q88 0 136 38t48 116v223q0 84 -43 121t-122 37q-86 0 -142.5 -53.5t-56.5 -131.5v-196z" />
<glyph unicode="7" horiz-adv-x="835" d="M12 1202v191h781l-390 -1393h-223l340 1202h-508z" />
<glyph unicode="8" horiz-adv-x="1042" d="M131 305v166q0 39 15.5 77t42 71.5t59.5 60.5t69 43q-78 39 -121.5 102.5t-43.5 147.5v137q0 74 30.5 128t80.5 90t116.5 54.5t138.5 18.5q172 0 271.5 -80t99.5 -238v-116q0 -37 -15.5 -75t-39 -71t-52 -58.5t-57.5 -39.5q37 -16 70.5 -44t58.5 -61.5t40 -70.5t15 -74 v-174q0 -80 -31.5 -139.5t-85 -99.5t-124 -60t-150.5 -20q-186 0 -286.5 77.5t-100.5 247.5zM338 311q0 -80 49 -110.5t131 -30.5q84 0 133 31.5t49 103.5v115q0 90 -38.5 146.5t-129.5 56.5h-22q-98 -4 -135 -59.5t-37 -141.5v-111zM360 967q0 -74 42 -113t110 -41h18 q152 10 152 154v116q0 72 -47 100.5t-117 28.5q-76 0 -117 -32.5t-41 -96.5v-116z" />
<glyph unicode="9" horiz-adv-x="1030" d="M117 827v258q0 84 29.5 146.5t82 104.5t123 63.5t154.5 21.5q88 0 160.5 -22.5t124 -65.5t80 -105.5t28.5 -142.5v-759q0 -86 -30.5 -149.5t-83 -105.5t-124 -63.5t-155.5 -21.5q-102 0 -198.5 38.5t-162.5 112.5l119 156q49 -45 114.5 -84t125.5 -39q86 0 135 38t49 118 v241q-43 -45 -106.5 -64.5t-120.5 -19.5q-180 0 -262 89.5t-82 254.5zM326 827q0 -82 49 -117.5t129 -35.5q86 0 135 50t49 130v231q0 80 -51 115t-131 35q-180 0 -180 -150v-258z" />
<glyph unicode=":" horiz-adv-x="540" d="M166 0v272h227v-272h-227zM166 735v269h227v-269h-227z" />
<glyph unicode=";" horiz-adv-x="653" d="M139 -209q35 45 56.5 104.5t21.5 147.5v145h182v-53q0 -80 -14 -144.5t-37.5 -113.5t-54.5 -87t-62 -64zM223 721v258h178v-258h-178z" />
<glyph unicode="&#x3c;" horiz-adv-x="1054" d="M84 496l793 581l73 -121l-590 -450l611 -404l-90 -131z" />
<glyph unicode="=" horiz-adv-x="1067" d="M84 412v163h899v-163h-899zM84 842v162h899v-162h-899z" />
<glyph unicode="&#x3e;" horiz-adv-x="1042" d="M92 922l76 141l790 -537l-790 -575l-72 143l594 418z" />
<glyph unicode="?" horiz-adv-x="780" d="M45 1235q59 76 151.5 127t196.5 51q154 0 228.5 -58.5t74.5 -205.5v-115q0 -109 -71 -190q-39 -43 -71 -78t-53.5 -72t-32.5 -76.5t-11 -93.5v-71h-201v174q0 35 7 63.5t21.5 55t38 54t54.5 60.5q14 18 33.5 39t36 42.5t28.5 44t12 44.5v80q0 63 -22.5 88t-87.5 25 q-63 0 -120.5 -38t-98.5 -79zM244 0v254h245v-254h-245z" />
<glyph unicode="@" horiz-adv-x="1392" d="M84 528v12.5t2 34t6 83t12 159.5q10 160 61.5 278.5t133.5 196.5t190.5 117t233.5 39q154 0 263.5 -37t180 -104.5t104.5 -160.5t34 -206q0 -297 -70 -444.5t-236 -147.5q-92 0 -144 40t-54 106q-45 -78 -98.5 -124t-124.5 -46q-70 0 -112 15t-65.5 42t-33 60.5 t-11.5 72.5q0 100 18.5 188.5t24.5 165.5q10 78 47 131.5t87.5 86t107.5 47t109 14.5q129 0 186 -48t57 -138q0 -45 -5 -93.5t-15 -93.5q-10 -47 -21.5 -93t-11.5 -93q0 -53 17.5 -78t41.5 -25q41 0 70 20.5t46.5 72t25.5 137.5t8 215q0 106 -33 180t-90 120t-135 66.5 t-168 20.5q-117 0 -201 -42t-139 -111.5t-85 -162t-38 -194.5q-8 -100 -12 -154.5t-6 -79t-2 -29.5v-9q0 -109 36.5 -187t99 -128t143.5 -73.5t169 -23.5q78 0 149.5 23.5t149.5 76.5l64 -127q-102 -70 -188.5 -90t-174.5 -20q-147 0 -259 42t-187.5 115.5t-115.5 173 t-42 211.5zM539 549q4 -51 22 -66.5t51 -15.5q72 0 108 44t51 108.5t20.5 137t15.5 130.5q-2 -4 -2 1t1 15t2 20.5t1 14.5q-4 43 -26.5 55.5t-57.5 12.5q-41 0 -68.5 -18.5t-46 -48.5t-30 -69t-19.5 -79q-8 -53 -13 -110.5t-9 -131.5z" />
<glyph unicode="A" d="M41 0l389 1401h254l379 -1401h-217l-98 367h-388l-100 -367h-219zM406 543h296l-147 626z" />
<glyph unicode="B" horiz-adv-x="1042" d="M145 0v1393h430q158 0 243 -88t85 -234v-94q0 -92 -37 -158.5t-108 -93.5q41 -14 74.5 -43t58 -66.5t38 -82t13.5 -89.5v-104q0 -78 -24.5 -140.5t-67.5 -107.5t-103.5 -68.5t-132.5 -23.5h-469zM358 190h209q82 0 122 39t40 111v115q0 82 -52 127t-132 45h-187v-437z M358 801h177q154 0 153 155v95q0 80 -41 115.5t-119 35.5h-170v-401z" />
<glyph unicode="C" horiz-adv-x="1009" d="M100 393v604q0 98 33 175t92.5 131.5t141.5 82t178 27.5q141 0 234 -48t163 -151l-139 -137q-35 57 -100.5 100.5t-157.5 45.5q-115 0 -173.5 -61.5t-58.5 -164.5v-604q0 -117 60.5 -170t171.5 -53q49 0 86 9t67.5 25.5t57 40t55.5 52.5l125 -152q-84 -86 -178 -125.5 t-213 -39.5q-211 0 -328 107.5t-117 305.5z" />
<glyph unicode="D" horiz-adv-x="1085" d="M147 -2v1395h385q215 0 334 -106.5t119 -311.5v-557q0 -113 -32.5 -192t-93 -130t-146.5 -74.5t-193 -23.5h-373zM354 188h164q121 0 190.5 57.5t69.5 172.5v557q0 121 -67.5 174t-178.5 53h-178v-1014z" />
<glyph unicode="E" horiz-adv-x="925" d="M147 0v1393h658v-191h-451v-403h379v-183h-379v-426h488v-190h-695z" />
<glyph unicode="F" horiz-adv-x="856" d="M147 0v1393h656v-191h-449v-395h377v-182h-377v-625h-207z" />
<glyph unicode="G" horiz-adv-x="1114" d="M100 399v594q0 98 37 176t100.5 132.5t147.5 83t178 28.5q139 0 237.5 -52t166.5 -144l-133 -144q-53 63 -123 106.5t-148 43.5q-113 0 -183.5 -63.5t-70.5 -166.5v-594q0 -119 72 -174t182 -55q78 0 127 15.5t98 54.5v335h-245v177h454v-602q-88 -78 -195.5 -124 t-238.5 -46q-104 0 -189 28.5t-145.5 82.5t-94.5 132t-34 176z" />
<glyph unicode="H" horiz-adv-x="1253" d="M195 0v1393h206v-623h496v623h209v-1393h-209v580h-496v-580h-206z" />
<glyph unicode="I" horiz-adv-x="638" d="M211 0v1393h213v-1393h-213z" />
<glyph unicode="J" horiz-adv-x="894" d="M37 264l186 64q16 -84 51 -121t111 -37q68 0 109 24.5t41 94.5v1104h213v-1104q0 -76 -29 -134.5t-78 -97.5t-115.5 -58t-142.5 -19q-145 0 -234.5 69.5t-111.5 214.5z" />
<glyph unicode="K" horiz-adv-x="1120" d="M147 0v1393h213v-570l449 570h256l-512 -641l555 -752h-266l-424 580l-58 -82v-498h-213z" />
<glyph unicode="L" horiz-adv-x="901" d="M147 0v1393h207v-1203h529v-190h-736z" />
<glyph unicode="M" horiz-adv-x="1421" d="M147 0v1393h269l295 -746l297 746h266v-1393h-191v1139l-311 -852h-115l-319 848v-1135h-191z" />
<glyph unicode="N" horiz-adv-x="1255" d="M147 0v1393h304l467 -1164v1164h190v-1393h-330l-440 1145v-1145h-191z" />
<glyph unicode="O" horiz-adv-x="1165" d="M100 399v594q0 96 37 174t99.5 132.5t147.5 84t183 29.5h29q98 0 183 -28.5t147.5 -83t99.5 -132t37 -176.5v-594q0 -100 -36 -178t-98.5 -132t-147.5 -81.5t-185 -27.5h-27q-102 0 -188 27.5t-148.5 80.5t-97.5 131t-35 180zM313 399q0 -115 71 -172t185 -57h27 q115 0 184.5 56.5t69.5 172.5v594q0 53 -20.5 95t-54.5 72t-80 46.5t-99 16.5h-29q-109 0 -181.5 -61.5t-72.5 -168.5v-594z" />
<glyph unicode="P" horiz-adv-x="985" d="M145 0v1393h396q166 0 263 -86t97 -252v-209q0 -78 -27.5 -136.5t-75.5 -98.5t-112.5 -59.5t-140.5 -19.5h-187v-532h-213zM358 723h183q66 0 106.5 27.5t40.5 97.5v205q0 149 -145 149h-2h-183v-479z" />
<glyph unicode="Q" horiz-adv-x="1146" d="M100 399v594q0 96 37 174t99.5 132.5t147.5 84t183 29.5h29q98 0 183 -28.5t147.5 -83t99.5 -132t37 -176.5v-594q0 -104 -38 -184t-103 -133l16 -25q31 -47 82 -65.5t117 -18.5v-135q-59 0 -106.5 2t-86.5 14.5t-71.5 37t-61.5 69.5l-33 47q-43 -16 -88 -22t-94 -6h-27 q-102 0 -188 27.5t-148.5 80.5t-97.5 131t-35 180zM313 399q0 -115 71 -172t185 -57h27q31 0 66 10l-152 228l129 88l164 -242q47 57 47 145v594q0 53 -20.5 95t-54.5 72t-80 46.5t-99 16.5h-29q-109 0 -181.5 -61.5t-72.5 -168.5v-594z" />
<glyph unicode="R" horiz-adv-x="1058" d="M145 0v1393h455q174 0 268.5 -83t94.5 -261v-142q0 -125 -63.5 -196.5t-174.5 -108.5l276 -602h-219l-264 582h-160v-582h-213zM358 774h242q70 0 110 32t40 103v142q0 151 -150 151h-2h-240v-428z" />
<glyph unicode="S" horiz-adv-x="1011" d="M74 236l166 126q41 -92 107.5 -140t168.5 -48q104 0 161.5 38t57.5 142q0 53 -34.5 95.5t-84 76t-103.5 61t-95 54.5q-43 31 -93.5 65.5t-95.5 83t-74.5 112t-29.5 149.5q0 92 30.5 159.5t86 112.5t133.5 67.5t172 22.5q100 0 203.5 -51t171.5 -137l-127 -158 q-20 27 -51 54.5t-67 50t-75 37t-78 14.5q-92 0 -139 -38t-47 -130q0 -51 42 -95.5t98.5 -81t113.5 -66t90 -52.5q49 -35 97 -68t86 -78t60.5 -106.5t22.5 -155.5q0 -92 -32.5 -160.5t-89 -115.5t-133.5 -70.5t-167 -23.5q-147 0 -266 59t-186 195z" />
<glyph unicode="T" horiz-adv-x="956" d="M20 1202v191h914v-191h-350v-1202h-213v1202h-351z" />
<glyph unicode="U" horiz-adv-x="1234" d="M147 412v981h213v-981q0 -127 71 -184.5t185 -57.5q117 0 187.5 60.5t70.5 181.5v981h213v-981q0 -109 -34.5 -190t-97 -135t-148.5 -80.5t-189 -26.5q-219 0 -345 111.5t-126 320.5z" />
<glyph unicode="V" d="M37 1393h213l297 -1082l305 1082h215l-399 -1393h-242z" />
<glyph unicode="W" horiz-adv-x="1529" d="M37 1393h215l194 -1008l213 1008h209l217 -1010l177 1010h215l-265 -1393h-233l-215 975l-213 -975h-234z" />
<glyph unicode="X" horiz-adv-x="1161" d="M74 0l395 694l-375 699h238l258 -498l270 498h238l-389 -699l389 -694h-240l-268 496l-279 -496h-237z" />
<glyph unicode="Y" horiz-adv-x="1122" d="M37 1393h231l283 -617l287 617h231l-412 -840v-553h-213v555z" />
<glyph unicode="Z" horiz-adv-x="1032" d="M84 0v98l586 1104h-572v191h844v-101l-580 -1102h580v-190h-858z" />
<glyph unicode="[" horiz-adv-x="538" d="M145 -328v1721h308v-154h-121v-1417h114v-150h-301z" />
<glyph unicode="\" horiz-adv-x="759" d="M53 1393h189l465 -1393h-189z" />
<glyph unicode="]" horiz-adv-x="532" d="M86 -168h115v1397h-115v164h301v-1715h-301v154z" />
<glyph unicode="^" horiz-adv-x="780" d="M84 829l315 588l295 -583l-137 -54l-162 295l-166 -295z" />
<glyph unicode="_" horiz-adv-x="997" d="M84 -70h829v-163h-829v163z" />
<glyph unicode="`" horiz-adv-x="512" d="M102 1393l138 110l170 -321l-107 -90z" />
<glyph unicode="a" horiz-adv-x="907" d="M84 256v260l502 105v75q0 84 -31 115t-113 31q-27 0 -62.5 -10.5t-72.5 -25.5t-69.5 -33.5t-55.5 -35.5l-76 154q33 25 77 48.5t92.5 42.5t96.5 30.5t91 11.5q172 0 251 -79t79 -249v-696h-164l-17 137q-43 -66 -104.5 -110.5t-138.5 -44.5q-285 0 -285 274zM299 264 q0 -59 31.5 -79.5t91.5 -20.5q66 0 113 44t47 111v152l-283 -61v-146z" />
<glyph unicode="b" horiz-adv-x="985" d="M131 0v1475h213v-568q47 53 105.5 85t132.5 32q168 0 243.5 -85t75.5 -255v-365q0 -168 -80 -253.5t-246 -85.5q-82 0 -141 26.5t-106 95.5l-15 -102h-182zM344 352q0 -86 43 -134t129 -48q76 0 124 36t48 113v353q0 86 -45 121.5t-131 35.5q-78 0 -123 -54t-45 -132 v-291z" />
<glyph unicode="c" horiz-adv-x="827" d="M84 322v358q0 78 26.5 141.5t74.5 108.5t114 69.5t145 24.5q106 0 185.5 -37t144.5 -129l-137 -133q-37 47 -86.5 78t-106.5 31q-72 0 -111.5 -42t-39.5 -112v-358q0 -78 42 -115t120 -37q55 0 103 20.5t85 65.5l127 -133q-131 -143 -324 -143q-166 0 -264 88t-98 254z " />
<glyph unicode="d" horiz-adv-x="964" d="M86 322v362q0 168 86 255t256 87q35 0 62.5 -5t50 -16.5t44 -30t46.5 -46.5v547h215v-1475h-174l-25 88q-45 -49 -101.5 -76.5t-117.5 -27.5q-342 0 -342 338zM299 324q0 -86 37 -118t123 -32q78 0 126 51t48 129v291q0 82 -44 135.5t-128 53.5q-162 0 -162 -150v-360z " />
<glyph unicode="e" horiz-adv-x="897" d="M84 342v340q0 166 103.5 254t271.5 88q78 0 143.5 -24.5t111.5 -69.5t71.5 -108.5t25.5 -141.5v-170l-518 -94v-74q0 -86 58.5 -129t144.5 -43q66 0 117 25.5t104 78.5l112 -137q-76 -82 -156.5 -119.5t-187.5 -37.5q-190 0 -295.5 86t-105.5 276zM293 561l309 55l-2 70 q-4 70 -36.5 107.5t-102.5 37.5q-74 0 -121 -38.5t-47 -110.5v-121z" />
<glyph unicode="f" horiz-adv-x="581" d="M12 856v148h164v217q0 143 84 213.5t215 70.5q47 0 96.5 -14t90.5 -31l-46 -162q-29 6 -63.5 16.5t-60.5 10.5q-68 0 -88.5 -36t-20.5 -103v-182h205v-148h-205v-856h-207v856h-164z" />
<glyph unicode="g" horiz-adv-x="927" d="M68 -178q0 145 137 211q-55 37 -75.5 84t-20.5 102t23.5 92t76.5 70q-55 53 -84 98t-29 123v127q0 76 28 135.5t76 99.5t113.5 60t143.5 20q53 0 94 -12t92 -41l207 96l49 -151l-135 -53q23 -39 36 -76t13 -80v-131q0 -84 -26.5 -141.5t-75.5 -93t-118 -52t-151 -16.5 q-37 0 -65.5 5t-61.5 15q-27 -4 -38 -25.5t-11 -43.5q0 -43 28 -68.5t60 -36.5l514 -139v-203q0 -76 -23.5 -127t-67.5 -82.5t-105.5 -45t-136.5 -13.5h-138q-150 0 -239.5 72.5t-89.5 220.5zM268 -182q0 -66 53.5 -92.5t120.5 -26.5h72q74 0 112 21q34 18 34 78q0 7 -1 16 v92l-311 69q-49 -16 -64.5 -61t-15.5 -96zM295 586q0 -74 45 -102.5t117 -28.5t116.5 26.5t44.5 104.5v143q0 74 -44 104.5t-117 30.5q-74 0 -118 -31.5t-44 -103.5v-143z" />
<glyph unicode="h" horiz-adv-x="1005" d="M129 0v1475h213v-592q47 63 113.5 102t144.5 39q84 0 139.5 -21.5t89 -64.5t48 -106.5t14.5 -147.5v-684h-213v684q0 76 -31 113t-106 37q-41 0 -77 -20.5t-63.5 -52.5t-43 -73t-15.5 -82v-606h-213z" />
<glyph unicode="i" horiz-adv-x="520" d="M158 1167v226h215v-226h-215zM160 0v1004h213v-1004h-213z" />
<glyph unicode="j" horiz-adv-x="520" d="M-109 -303q94 55 147.5 93t79 78t31 92t5.5 134v910h208v-924q0 -135 -25.5 -222t-76.5 -142.5t-126 -91.5t-173 -70zM147 1165v228h228v-228h-228z" />
<glyph unicode="k" horiz-adv-x="872" d="M129 0v1454h213v-819h39l221 369h236l-275 -455l307 -549h-245l-248 455h-35v-455h-213z" />
<glyph unicode="l" horiz-adv-x="509" d="M150 0v1454h212v-1454h-212z" />
<glyph unicode="m" horiz-adv-x="1462" d="M131 0v1004h184l13 -123q41 66 101 104.5t138 38.5q94 0 152.5 -30.5t93.5 -116.5q35 66 98.5 106.5t141.5 40.5q82 0 138 -15.5t91 -50t50.5 -91t15.5 -138.5v-729h-213v692q0 78 -24 108.5t-101 30.5q-88 0 -126 -62t-38 -153v-616h-213v686q0 78 -21.5 116t-99.5 38 q-41 0 -71.5 -23.5t-52 -60.5t-33 -80t-11.5 -82v-594h-213z" />
<glyph unicode="n" horiz-adv-x="1007" d="M131 0v1004h193l16 -117q47 72 103.5 105.5t144.5 33.5q166 0 234.5 -86t68.5 -254v-686h-213v653q0 80 -30 132.5t-109 52.5q-41 0 -77 -20.5t-61.5 -53.5t-41 -74t-15.5 -82v-608h-213z" />
<glyph unicode="o" horiz-adv-x="927" d="M84 324v358q0 82 28.5 145.5t80 107.5t122 66.5t152.5 22.5q78 0 147.5 -22.5t120.5 -66.5t81 -107.5t30 -145.5v-358q0 -82 -29 -146.5t-79 -108.5t-118.5 -66.5t-150.5 -22.5q-84 0 -154.5 22.5t-122 65.5t-80 107.5t-28.5 148.5zM297 326q0 -90 41 -123t131 -33 q78 0 121 37t43 117v360q0 86 -40 118t-126 32q-80 0 -125 -37t-45 -115v-356z" />
<glyph unicode="p" horiz-adv-x="978" d="M129 -453v1457h166l24 -136q41 72 109 114t154 42q176 0 245.5 -82t69.5 -258v-352q0 -170 -77 -261t-242 -91q-72 0 -136.5 29.5t-99.5 94.5v-557h-213zM342 358q0 -80 47 -135t125 -55q170 0 170 164v344q0 160 -174 160q-78 0 -123 -51.5t-45 -129.5v-297z" />
<glyph unicode="q" horiz-adv-x="929" d="M84 330v372q0 166 86 244t246 78q78 0 146.5 -36t96.5 -101l25 117h160v-1457h-211v570q-41 -53 -96.5 -91t-120.5 -38q-168 0 -250 91t-82 251zM297 358q0 -94 40 -138t128 -44q82 0 125 49t43 131v299q0 78 -47 129.5t-119 51.5q-84 0 -127 -31t-43 -109v-338z" />
<glyph unicode="r" horiz-adv-x="632" d="M139 0v1004h158l22 -125q41 80 92.5 110.5t106.5 30.5q43 0 64.5 -7t44.5 -18l-37 -196q-27 14 -53.5 21t-47.5 7q-61 0 -101 -54t-40 -155v-618h-209z" />
<glyph unicode="s" horiz-adv-x="811" d="M63 150l123 139q41 -61 104.5 -97t119.5 -36q66 0 101.5 20.5t35.5 89.5q0 29 -19.5 50.5t-48 40t-64.5 35t-71 34.5q-61 29 -107.5 57.5t-76 62.5t-45 78t-15.5 105q0 68 25 123t68 93t103 58.5t134 20.5q92 0 171 -44t132 -101l-119 -140q-35 39 -80 70t-94 31 q-59 0 -94 -27t-35 -84q0 -27 19.5 -46t48.5 -35.5t62.5 -30t60.5 -27.5q61 -29 107 -56.5t77 -61.5t47.5 -77t16.5 -102q0 -78 -26 -136.5t-72 -98.5t-108.5 -60.5t-137.5 -20.5q-109 0 -195 45.5t-148 127.5z" />
<glyph unicode="t" horiz-adv-x="702" d="M29 852v152h155v296h213v-296h205v-152h-205v-586q0 -39 19.5 -63.5t48.5 -24.5q53 0 91 11.5t83 31.5l43 -158q-57 -29 -120.5 -53t-123.5 -24q-139 0 -196.5 58t-57.5 196v612h-155z" />
<glyph unicode="u" horiz-adv-x="942" d="M129 322v682h213v-682q0 -78 29.5 -115t107.5 -37q76 0 105.5 37t29.5 115v682h213v-682q0 -168 -92 -255t-256 -87q-168 0 -259 87t-91 255z" />
<glyph unicode="v" horiz-adv-x="923" d="M37 1004h219l209 -732l205 732h217l-328 -1004h-194z" />
<glyph unicode="w" horiz-adv-x="1212" d="M37 1004h215l117 -773l133 773h213l137 -766l109 766h215l-213 -1004h-220l-133 702l-131 -702h-227z" />
<glyph unicode="x" horiz-adv-x="860" d="M37 0l276 520l-256 484h240l137 -330l133 330h244l-260 -484l272 -520h-239l-150 362l-151 -362h-246z" />
<glyph unicode="y" horiz-adv-x="845" d="M35 1004h217l174 -797l172 797h217l-328 -1158q-45 -160 -152.5 -231.5t-262.5 -75.5l-21 164q80 4 148.5 49t93.5 119l29 104z" />
<glyph unicode="z" horiz-adv-x="813" d="M76 0v129l399 702h-391v173h625v-111l-398 -715h426v-178h-661z" />
<glyph unicode="{" horiz-adv-x="614" d="M131 600l76 102l-60 357q0 160 78 272.5t234 222.5l59 -114q-57 -39 -95 -85t-59.5 -95.5t-29.5 -99.5t-8 -97l43 -367l-58 -88l62 -78l-47 -424q4 -117 49 -215t155 -172l-65 -120q-94 68 -156.5 131t-97.5 125.5t-49.5 128t-14.5 135.5l56 401z" />
<glyph unicode="|" horiz-adv-x="456" d="M147 -301v1694h162v-1694h-162z" />
<glyph unicode="}" horiz-adv-x="606" d="M131 -281q104 74 148.5 170.5t50.5 216.5l-47 424l59 78l-55 90l43 365q0 47 -8.5 97t-28 99.5t-55 95.5t-95.5 87l58 114q78 -55 135 -109t95 -112.5t57.5 -125t19.5 -150.5l-57 -357l71 -102l-67 -80l53 -401q0 -72 -12.5 -135.5t-47 -126t-95 -127t-158.5 -133.5z" />
<glyph unicode="~" horiz-adv-x="790" d="M104 1270q43 84 83 122t100 38q33 0 64.5 -12.5t59 -28t51 -28.5t40.5 -13q35 0 49 27.5t26 51.5l97 -63q-16 -68 -56.5 -119t-101.5 -51q-41 0 -71.5 13.5t-58.5 28.5t-53.5 28.5t-56.5 13.5q-23 0 -45 -23.5t-39 -60.5z" />
<glyph unicode="&#xa1;" horiz-adv-x="507" d="M164 -412l24 947h187l24 -947h-235zM176 784v220h209v-220h-209z" />
<glyph unicode="&#xa2;" horiz-adv-x="868" d="M84 332v334q0 74 23.5 136t65.5 109t101.5 74t131.5 27h32l35 284l178 -26l-35 -260q55 -25 94.5 -62t73.5 -82l-145 -137q-33 41 -72 75t-96 34q-82 0 -129 -44t-47 -128v-334q0 -90 45 -131t131 -41q53 0 103.5 20.5t91.5 59.5l106 -142q-100 -119 -268 -131h-23 l-39 -241l-170 32l37 232q-117 35 -171 124t-54 218z" />
<glyph unicode="&#xa3;" horiz-adv-x="968" d="M84 598v160h213l-14 231q0 121 41 200t111.5 127t166.5 68.5t209 22.5v-190q-170 0 -243.5 -70t-71.5 -191l14 -198h256v-160h-242q0 -25 2 -54.5t4 -53t2 -38t0 -12.5q0 -111 -31.5 -175t-68.5 -75h453v-190h-791v147q90 8 136 50.5t67.5 90.5t24 88t2.5 42l-13 180 h-227z" />
<glyph unicode="&#xa5;" horiz-adv-x="1157" d="M37 1393h231l307 -541l316 541h229l-407 -699h319v-123h-354v-141h352v-119h-352v-311h-209v311h-330v119h330v141h-332v123h303z" />
<glyph unicode="&#xa6;" horiz-adv-x="344" d="M84 -215v680h176v-680h-176zM84 756v680h176v-680h-176z" />
<glyph unicode="&#xa7;" horiz-adv-x="1011" d="M96 606q0 47 8.5 81t23.5 60.5t34.5 47t42.5 41.5q-29 61 -36 116.5t-7 102.5q0 94 32.5 161.5t85 110.5t118 63.5t132.5 20.5q63 0 117.5 -16.5t97.5 -43t74 -60.5t47 -66l-110 -119q-31 45 -61.5 72.5t-59.5 43t-55.5 21.5t-53.5 6q-43 0 -72.5 -16t-49 -44 t-27.5 -63.5t-8 -74.5q0 -72 23.5 -118t58 -78t76.5 -52.5t81 -38.5q76 -37 136.5 -77t102.5 -88t64.5 -105.5t22.5 -128.5q0 -80 -33 -149t-98 -114q16 -25 27.5 -56.5t18.5 -64t10 -61.5t3 -43q0 -92 -40 -155.5t-98 -102.5t-123.5 -56.5t-115.5 -17.5q-61 0 -116.5 17.5 t-101.5 46.5t-79.5 64.5t-52.5 74.5l119 127q20 -37 51 -65.5t64.5 -49t67.5 -31t61 -10.5q49 0 80.5 17.5t51 44t28 59.5t8.5 66q0 61 -21.5 105t-56.5 78t-80 58.5t-92 49.5q-76 39 -135.5 77.5t-100.5 86t-62.5 106.5t-21.5 139zM276 604q0 -61 53.5 -112.5t131.5 -85.5 q33 -14 66.5 -34t63.5 -39.5t54.5 -38t38.5 -32.5q27 16 34 42.5t7 49.5q0 47 -11.5 81t-36 61.5t-62 52t-91.5 51.5q-68 35 -111.5 59.5t-86.5 59.5q-27 -25 -38.5 -49.5t-11.5 -65.5z" />
<glyph unicode="&#xa8;" horiz-adv-x="720" d="M102 1206v199h193v-199h-193zM428 1206v199h190v-199h-190z" />
<glyph unicode="&#xa9;" horiz-adv-x="1392" d="M84 717q0 154 38 287t114.5 230t192.5 153.5t269 56.5q152 0 265.5 -57.5t190.5 -155.5t116 -230.5t39 -283.5q0 -154 -39 -285t-116 -228.5t-190.5 -152.5t-265.5 -55t-266.5 56.5t-192 153.5t-116.5 229t-39 282zM227 717q0 -123 28 -230.5t86 -187.5t147.5 -126 t211.5 -46q119 0 207 47t146.5 128t87 188.5t28.5 226.5q0 121 -27.5 228.5t-85 188t-146.5 128t-210 47.5q-119 0 -208 -48.5t-148 -129t-88 -188t-29 -226.5zM387 627v149q0 147 87 224t235 77q92 0 152.5 -38t115.5 -113l-115 -101q-35 43 -67.5 64.5t-85.5 21.5 q-135 0 -136 -135v-149q0 -72 36 -105t108 -33q49 0 90 23t78 59l92 -114q-49 -59 -122 -96t-144 -37q-154 0 -239 74.5t-85 228.5z" />
<glyph unicode="&#xaa;" horiz-adv-x="647" d="M84 965v122l309 56v49q0 51 -19.5 67.5t-62.5 16.5q-33 0 -71.5 -16.5t-61.5 -30.5l-45 117q41 29 85 46t97 17q125 0 183.5 -48t58.5 -175v-422h-111l-20 102q-20 -47 -60 -76.5t-81 -29.5q-104 0 -152.5 56t-48.5 149zM248 948q0 -23 19.5 -37t41.5 -14q29 0 53.5 13.5 t24.5 41.5v84l-139 -24v-64z" />
<glyph unicode="&#xab;" horiz-adv-x="839" d="M84 348l274 377l84 -90l-166 -285l164 -270l-80 -100zM397 348l275 377l84 -90l-166 -285l164 -270l-82 -100z" />
<glyph unicode="&#xac;" horiz-adv-x="819" d="M84 520v164h651v-348h-166v184h-485z" />
<glyph unicode="&#xad;" horiz-adv-x="624" d="M84 504v190h457v-190h-457z" />
<glyph unicode="&#xae;" horiz-adv-x="1392" d="M84 717q0 154 39 286t115.5 229t191.5 153.5t268 56.5q150 0 263.5 -57.5t190.5 -156t117 -230.5t40 -281q0 -152 -39 -284t-116 -229.5t-190.5 -152.5t-265.5 -55q-150 0 -264.5 56.5t-192 154.5t-117.5 229t-40 281zM227 717q0 -121 29 -228.5t87 -187.5t147.5 -127 t209.5 -47q119 0 207 47t146.5 128t87 188.5t28.5 226.5q0 121 -27.5 227.5t-86 187t-146.5 128t-209 47.5q-119 0 -208 -48.5t-147 -129t-88 -187t-30 -225.5zM451 332v766h299q102 0 158.5 -49.5t56.5 -151.5v-86q0 -72 -36 -109.5t-98 -62.5l160 -307h-172l-151 286h-60 v-286h-157zM608 737l160 11q20 8 28.5 27.5t8.5 43.5l-4 84q-8 29 -24.5 45.5t-43.5 16.5h-125v-228z" />
<glyph unicode="&#xaf;" horiz-adv-x="815" d="M102 1307v114h611v-114h-611z" />
<glyph unicode="&#xb0;" horiz-adv-x="690" d="M84 1108v57q0 55 18.5 100.5t52 79t79 51t100.5 17.5q121 2 196.5 -65.5t75.5 -182.5v-57q0 -57 -20.5 -102t-55 -77t-83 -48.5t-101.5 -16.5q-117 0 -189.5 66.5t-72.5 177.5zM258 1104q0 -98 90 -98q47 0 66.5 26.5t19.5 71.5v70q0 47 -21.5 74.5t-66.5 27.5 q-49 0 -68.5 -28.5t-19.5 -73.5v-70z" />
<glyph unicode="&#xb1;" horiz-adv-x="987" d="M84 0v162h819v-162h-819zM109 623v176h278v323h197v-323h290v-176h-290v-340h-197v340h-278z" />
<glyph unicode="&#xb2;" horiz-adv-x="847" d="M162 1284q20 31 50 54.5t65.5 41t73.5 25.5t75 8q125 0 183.5 -51t58.5 -156q0 -68 -42 -121t-96 -86q-25 -14 -55.5 -27.5t-56 -28.5t-42 -34.5t-16.5 -48.5h308v-145h-496v57q0 129 52 205t161 123q41 18 78 37.5t37 60.5q0 43 -27 55.5t-59 12.5q-53 0 -93 -26 t-73 -62z" />
<glyph unicode="&#xb3;" horiz-adv-x="653" d="M78 791l112 86q16 -47 57.5 -68t90.5 -21q45 0 73.5 12.5t28.5 57.5v25q0 43 -27.5 67.5t-68.5 24.5h-129v129h121q41 0 68.5 19.5t27.5 54.5v28q0 41 -27.5 53.5t-58.5 12.5q-49 0 -87 -13.5t-56 -54.5l-107 72q29 74 104.5 104.5t153.5 30.5q117 0 181.5 -45t64.5 -156 v-18q0 -59 -39 -98t-90 -56q51 -16 93 -56t42 -101v-31q0 -111 -73.5 -156t-190.5 -45q-94 0 -160.5 33t-103.5 109z" />
<glyph unicode="&#xb4;" horiz-adv-x="516" d="M102 1169l177 310l135 -93l-205 -301z" />
<glyph unicode="&#xb6;" horiz-adv-x="978" d="M84 1020v88q0 131 72.5 208t203.5 77h471v-1393h-149v1272h-107v-1272h-157v758h-58q-276 0 -276 262z" />
<glyph unicode="&#xb7;" horiz-adv-x="450" d="M117 408v252h237v-252h-237z" />
<glyph unicode="&#xb8;" horiz-adv-x="501" d="M102 -193l33 193h156l-23 -119q16 -8 39 -21.5t43.5 -37t34.5 -56t14 -81.5t-17 -86t-49 -66t-77 -51.5t-98 -42.5l-54 117q39 20 76 45.5t37 79.5q0 37 -8 59t-23.5 35.5t-37 19.5t-46.5 12z" />
<glyph unicode="&#xb9;" horiz-adv-x="528" d="M53 1210v183h359v-691h-179v508h-180z" />
<glyph unicode="&#xba;" horiz-adv-x="692" d="M84 999v209q0 47 23.5 85t60.5 63.5t84 40t94 14.5q117 0 188.5 -54t71.5 -159v-199q0 -57 -20.5 -98t-56 -68.5t-83 -41t-100.5 -13.5q-117 0 -189.5 54.5t-72.5 166.5zM262 1018q-2 -45 14.5 -70.5t69.5 -25.5t69.5 24.5t16.5 75.5v168q0 37 -26.5 54.5t-59.5 17.5 q-39 0 -61.5 -20.5t-22.5 -55.5v-168z" />
<glyph unicode="&#xbb;" horiz-adv-x="829" d="M63 639l84 90l275 -377l-275 -368l-81 100l163 270zM377 639l84 90l274 -377l-276 -368l-80 100l164 270z" />
<glyph unicode="&#xbc;" horiz-adv-x="1382" d="M53 1210v183h359v-691h-179v508h-180zM151 0l791 1393h176l-780 -1393h-187zM678 170v95l266 469h226v-426h135v-138h-135v-172h-160v172h-332zM862 308h148v276h-21z" />
<glyph unicode="&#xbd;" horiz-adv-x="1314" d="M53 1210v183h359v-691h-179v508h-180zM104 0l791 1393h176l-780 -1393h-187zM731 567q20 31 50 54.5t65.5 41t73.5 25.5t75 8q125 0 183.5 -51t58.5 -156q0 -68 -42 -121t-96 -86q-25 -14 -55.5 -27.5t-56 -28.5t-42 -34.5t-16.5 -48.5h308v-145h-496v57q0 129 52 205 t161 123q41 18 78 37.5t37 60.5q0 43 -27 55.5t-59 12.5q-53 0 -93 -26t-73 -62z" />
<glyph unicode="&#xbe;" horiz-adv-x="1505" d="M70 791l112 86q16 -47 57.5 -68t90.5 -21q45 0 73.5 12.5t28.5 57.5v25q0 43 -27.5 67.5t-68.5 24.5h-129v129h121q41 0 68.5 19.5t27.5 54.5v28q0 41 -27.5 53.5t-58.5 12.5q-49 0 -87 -13.5t-56 -54.5l-107 72q29 74 104.5 104.5t153.5 30.5q117 0 181.5 -45t64.5 -156 v-18q0 -59 -39 -98t-90 -56q51 -16 93 -56t42 -101v-31q0 -111 -73.5 -156t-190.5 -45q-94 0 -160.5 33t-103.5 109zM284 0l791 1393h176l-780 -1393h-187zM772 170v95l266 469h226v-426h135v-138h-135v-172h-160v172h-332zM956 308h148v276h-21z" />
<glyph unicode="&#xbf;" horiz-adv-x="784" d="M78 -51q0 49 20.5 102t55.5 94q35 39 64.5 75t52 76t34.5 84t12 97v74h201v-133q0 -43 -14.5 -88t-36 -89t-49 -84t-56.5 -71q-33 -39 -54 -68.5t-21 -78.5v-86q0 -63 19.5 -86t90.5 -23q29 0 60.5 13.5t60.5 34t54.5 44t43.5 41.5l119 -131q-68 -92 -163 -141t-191 -49 q-150 0 -226.5 61t-76.5 211v121zM289 752v252h243v-252h-243z" />
<glyph unicode="&#xc0;" d="M41 0l389 1401h254l379 -1401h-217l-98 367h-388l-100 -367h-219zM346 1819l138 110l170 -321l-107 -90zM406 543h296l-147 626z" />
<glyph unicode="&#xc1;" d="M41 0l389 1401h254l379 -1401h-217l-98 367h-388l-100 -367h-219zM406 543h296l-147 626zM440 1599l177 310l135 -93l-205 -301z" />
<glyph unicode="&#xc2;" d="M41 0l389 1401h254l379 -1401h-217l-98 367h-388l-100 -367h-219zM315 1624l230 194l229 -198l-74 -111l-155 119l-154 -117zM406 543h296l-147 626z" />
<glyph unicode="&#xc3;" d="M41 0l389 1401h254l379 -1401h-217l-98 367h-388l-100 -367h-219zM260 1618q43 84 83 122t100 38q33 0 64.5 -12.5t59 -28t51 -28.5t40.5 -13q35 0 49 27.5t26 51.5l97 -63q-16 -68 -56.5 -119t-101.5 -51q-41 0 -71.5 13.5t-58.5 28.5t-53.5 28.5t-56.5 13.5 q-23 0 -45 -23.5t-39 -60.5zM406 543h296l-147 626z" />
<glyph unicode="&#xc4;" d="M41 0l389 1401h254l379 -1401h-217l-98 367h-388l-100 -367h-219zM286 1552v199h193v-199h-193zM406 543h296l-147 626zM612 1552v199h190v-199h-190z" />
<glyph unicode="&#xc5;" d="M41 0l389 1401h254l379 -1401h-217l-98 367h-388l-100 -367h-219zM401 1691q0 86 48.5 123t107.5 37q78 0 117 -45t39 -115q0 -82 -48.5 -120.5t-107.5 -38.5q-74 0 -115 46t-41 113zM406 543h296l-147 626zM496 1691q0 -29 6 -44t15 -23t20.5 -9t19.5 -1q29 0 48.5 14 t19.5 63q0 29 -6.5 45.5t-16.5 24.5t-22.5 10t-22.5 2q-23 0 -42 -17.5t-19 -64.5z" />
<glyph unicode="&#xc6;" horiz-adv-x="1599" d="M37 0l665 1393h791v-191h-446v-391h374v-176h-374v-445h483v-190h-696v350h-388l-174 -350h-235zM520 524h314v697z" />
<glyph unicode="&#xc7;" horiz-adv-x="1062" d="M100 393v604q0 98 33 175t92.5 131.5t141.5 82t178 27.5q141 0 234 -48t163 -151l-139 -137q-35 57 -100.5 100.5t-157.5 45.5q-115 0 -173.5 -61.5t-58.5 -164.5v-604q0 -117 60.5 -170t171.5 -53q49 0 86 9t67.5 25.5t57 40t55.5 52.5l125 -152q-84 -86 -178 -125.5 t-213 -39.5q-211 0 -328 107.5t-117 305.5zM481 -193l33 193h156l-23 -119q16 -8 39 -21.5t43.5 -37t34.5 -56t14 -81.5t-17 -86t-49 -66t-77 -51.5t-98 -42.5l-54 117q39 20 76 45.5t37 79.5q0 37 -8 59t-23.5 35.5t-37 19.5t-46.5 12z" />
<glyph unicode="&#xc8;" horiz-adv-x="925" d="M147 0v1393h658v-191h-451v-403h379v-183h-379v-426h488v-190h-695zM272 1803l138 110l170 -321l-107 -90z" />
<glyph unicode="&#xc9;" horiz-adv-x="925" d="M147 0v1393h658v-191h-451v-403h379v-183h-379v-426h488v-190h-695zM364 1599l177 310l135 -93l-205 -301z" />
<glyph unicode="&#xca;" horiz-adv-x="925" d="M147 0v1393h658v-191h-451v-403h379v-183h-379v-426h488v-190h-695zM241 1624l230 194l229 -198l-74 -111l-155 119l-154 -117z" />
<glyph unicode="&#xcb;" horiz-adv-x="925" d="M147 0v1393h658v-191h-451v-403h379v-183h-379v-426h488v-190h-695zM213 1552v199h193v-199h-193zM539 1552v199h190v-199h-190z" />
<glyph unicode="&#xcc;" horiz-adv-x="638" d="M110 1823l138 110l170 -321l-107 -90zM236 0v1393h213v-1393h-213z" />
<glyph unicode="&#xcd;" horiz-adv-x="638" d="M186 1599l177 310l135 -93l-205 -301zM221 0v1393h213v-1393h-213z" />
<glyph unicode="&#xce;" horiz-adv-x="638" d="M63 1626l230 194l229 -198l-74 -111l-155 119l-154 -117zM219 0v1393h213v-1393h-213z" />
<glyph unicode="&#xcf;" horiz-adv-x="638" d="M65 1548v199h193v-199h-193zM248 0v1393h213v-1393h-213zM391 1548v199h190v-199h-190z" />
<glyph unicode="&#xd0;" horiz-adv-x="1179" d="M41 614v162h207v606h377q121 0 210 -29.5t147 -84t86 -131t28 -170.5v-555q0 -111 -38 -190t-102.5 -128t-150.5 -71.5t-182 -22.5h-375v614h-207zM461 190h162q141 0 200.5 60.5t59.5 161.5v559q0 127 -65.5 174t-192.5 47h-164v-416h246v-162h-246v-424z" />
<glyph unicode="&#xd1;" horiz-adv-x="1255" d="M147 0v1393h304l467 -1164v1164h190v-1393h-330l-440 1145v-1145h-191zM319 1598q43 84 83 122t100 38q33 0 64.5 -12.5t59 -28t51 -28.5t40.5 -13q35 0 49 27.5t26 51.5l97 -63q-16 -68 -56.5 -119t-101.5 -51q-41 0 -71.5 13.5t-58.5 28.5t-53.5 28.5t-56.5 13.5 q-23 0 -45 -23.5t-39 -60.5z" />
<glyph unicode="&#xd2;" horiz-adv-x="1165" d="M100 399v594q0 96 37 174t99.5 132.5t147.5 84t183 29.5h29q98 0 183 -28.5t147.5 -83t99.5 -132t37 -176.5v-594q0 -100 -36 -178t-98.5 -132t-147.5 -81.5t-185 -27.5h-27q-102 0 -188 27.5t-148.5 80.5t-97.5 131t-35 180zM313 399q0 -115 71 -172t185 -57h27 q115 0 184.5 56.5t69.5 172.5v594q0 53 -20.5 95t-54.5 72t-80 46.5t-99 16.5h-29q-109 0 -181.5 -61.5t-72.5 -168.5v-594zM360 1823l138 110l170 -321l-107 -90z" />
<glyph unicode="&#xd3;" horiz-adv-x="1165" d="M100 399v594q0 96 37 174t99.5 132.5t147.5 84t183 29.5h29q98 0 183 -28.5t147.5 -83t99.5 -132t37 -176.5v-594q0 -100 -36 -178t-98.5 -132t-147.5 -81.5t-185 -27.5h-27q-102 0 -188 27.5t-148.5 80.5t-97.5 131t-35 180zM313 399q0 -115 71 -172t185 -57h27 q115 0 184.5 56.5t69.5 172.5v594q0 53 -20.5 95t-54.5 72t-80 46.5t-99 16.5h-29q-109 0 -181.5 -61.5t-72.5 -168.5v-594zM454 1599l177 310l135 -93l-205 -301z" />
<glyph unicode="&#xd4;" horiz-adv-x="1165" d="M100 399v594q0 96 37 174t99.5 132.5t147.5 84t183 29.5h29q98 0 183 -28.5t147.5 -83t99.5 -132t37 -176.5v-594q0 -100 -36 -178t-98.5 -132t-147.5 -81.5t-185 -27.5h-27q-102 0 -188 27.5t-148.5 80.5t-97.5 131t-35 180zM313 399q0 -115 71 -172t185 -57h27 q115 0 184.5 56.5t69.5 172.5v594q0 53 -20.5 95t-54.5 72t-80 46.5t-99 16.5h-29q-109 0 -181.5 -61.5t-72.5 -168.5v-594zM329 1645l230 194l229 -198l-74 -111l-155 119l-154 -117z" />
<glyph unicode="&#xd5;" horiz-adv-x="1165" d="M100 399v594q0 96 37 174t99.5 132.5t147.5 84t183 29.5h29q98 0 183 -28.5t147.5 -83t99.5 -132t37 -176.5v-594q0 -100 -36 -178t-98.5 -132t-147.5 -81.5t-185 -27.5h-27q-102 0 -188 27.5t-148.5 80.5t-97.5 131t-35 180zM274 1618q43 84 83 122t100 38 q33 0 64.5 -12.5t59 -28t51 -28.5t40.5 -13q35 0 49 27.5t26 51.5l97 -63q-16 -68 -56.5 -119t-101.5 -51q-41 0 -71.5 13.5t-58.5 28.5t-53.5 28.5t-56.5 13.5q-23 0 -45 -23.5t-39 -60.5zM313 399q0 -115 71 -172t185 -57h27q115 0 184.5 56.5t69.5 172.5v594 q0 53 -20.5 95t-54.5 72t-80 46.5t-99 16.5h-29q-109 0 -181.5 -61.5t-72.5 -168.5v-594z" />
<glyph unicode="&#xd6;" horiz-adv-x="1165" d="M100 399v594q0 96 37 174t99.5 132.5t147.5 84t183 29.5h29q98 0 183 -28.5t147.5 -83t99.5 -132t37 -176.5v-594q0 -100 -36 -178t-98.5 -132t-147.5 -81.5t-185 -27.5h-27q-102 0 -188 27.5t-148.5 80.5t-97.5 131t-35 180zM301 1552v199h193v-199h-193zM313 399 q0 -115 71 -172t185 -57h27q115 0 184.5 56.5t69.5 172.5v594q0 53 -20.5 95t-54.5 72t-80 46.5t-99 16.5h-29q-109 0 -181.5 -61.5t-72.5 -168.5v-594zM627 1552v199h190v-199h-190z" />
<glyph unicode="&#xd7;" horiz-adv-x="1021" d="M84 0l336 512l-322 492h181l231 -355l233 355h181l-320 -492l334 -512h-190l-238 371l-238 -371h-188z" />
<glyph unicode="&#xd8;" horiz-adv-x="1099" d="M100 399v594q0 96 37 174t99.5 132.5t147.5 84t183 29.5h29q51 0 99 -8t91 -23l74 181h152l-99 -252q70 -53 110 -133t40 -185v-594q0 -100 -36 -178t-98.5 -132t-147.5 -81.5t-185 -27.5h-27q-47 0 -88 5t-80 15l-57 -147h-160l82 208q-78 53 -122 137.5t-44 200.5z M313 399q0 -74 39 -125l363 924q-55 25 -119 25h-29q-109 0 -181.5 -61.5t-72.5 -168.5v-594zM473 182q43 -12 96 -12h27q115 0 184.5 56.5t69.5 172.5v594q0 53 -31 90z" />
<glyph unicode="&#xd9;" horiz-adv-x="1234" d="M147 412v981h213v-981q0 -127 71 -184.5t185 -57.5q117 0 187.5 60.5t70.5 181.5v981h213v-981q0 -109 -34.5 -190t-97 -135t-148.5 -80.5t-189 -26.5q-219 0 -345 111.5t-126 320.5zM385 1762l138 110l170 -321l-107 -90z" />
<glyph unicode="&#xda;" horiz-adv-x="1234" d="M147 412v981h213v-981q0 -127 71 -184.5t185 -57.5q117 0 187.5 60.5t70.5 181.5v981h213v-981q0 -109 -34.5 -190t-97 -135t-148.5 -80.5t-189 -26.5q-219 0 -345 111.5t-126 320.5zM479 1538l177 310l135 -93l-205 -301z" />
<glyph unicode="&#xdb;" horiz-adv-x="1234" d="M147 412v981h213v-981q0 -127 71 -184.5t185 -57.5q117 0 187.5 60.5t70.5 181.5v981h213v-981q0 -109 -34.5 -190t-97 -135t-148.5 -80.5t-189 -26.5q-219 0 -345 111.5t-126 320.5zM358 1630l230 194l229 -198l-74 -111l-155 119l-154 -117z" />
<glyph unicode="&#xdc;" horiz-adv-x="1234" d="M147 412v981h213v-981q0 -127 71 -184.5t185 -57.5q117 0 187.5 60.5t70.5 181.5v981h213v-981q0 -109 -34.5 -190t-97 -135t-148.5 -80.5t-189 -26.5q-219 0 -345 111.5t-126 320.5zM329 1554v199h193v-199h-193zM655 1554v199h190v-199h-190z" />
<glyph unicode="&#xdd;" horiz-adv-x="1122" d="M37 1393h231l283 -617l287 617h231l-412 -840v-553h-213v555zM440 1540l177 310l135 -93l-205 -301z" />
<glyph unicode="&#xde;" horiz-adv-x="915" d="M84 0v1393h213v-271h190q176 0 260 -95t84 -265v-78q0 -174 -89 -255t-255 -81h-190v-348h-213zM297 537h182q72 0 105.5 38.5t33.5 108.5v78q0 74 -34.5 124t-106.5 50h-180v-399z" />
<glyph unicode="&#xe0;" horiz-adv-x="907" d="M84 256v260l502 105v75q0 84 -31 115t-113 31q-27 0 -62.5 -10.5t-72.5 -25.5t-69.5 -33.5t-55.5 -35.5l-76 154q33 25 77 48.5t92.5 42.5t96.5 30.5t91 11.5q172 0 251 -79t79 -249v-696h-164l-17 137q-43 -66 -104.5 -110.5t-138.5 -44.5q-285 0 -285 274zM221 1416 l138 110l170 -321l-107 -90zM299 264q0 -59 31.5 -79.5t91.5 -20.5q66 0 113 44t47 111v152l-283 -61v-146z" />
<glyph unicode="&#xe1;" horiz-adv-x="907" d="M84 256v260l502 105v75q0 84 -31 115t-113 31q-27 0 -62.5 -10.5t-72.5 -25.5t-69.5 -33.5t-55.5 -35.5l-76 154q33 25 77 48.5t92.5 42.5t96.5 30.5t91 11.5q172 0 251 -79t79 -249v-696h-164l-17 137q-43 -66 -104.5 -110.5t-138.5 -44.5q-285 0 -285 274zM299 264 q0 -59 31.5 -79.5t91.5 -20.5q66 0 113 44t47 111v152l-283 -61v-146zM313 1189l177 310l135 -93l-205 -301z" />
<glyph unicode="&#xe2;" horiz-adv-x="907" d="M84 256v260l502 105v75q0 84 -31 115t-113 31q-27 0 -62.5 -10.5t-72.5 -25.5t-69.5 -33.5t-55.5 -35.5l-76 154q33 25 77 48.5t92.5 42.5t96.5 30.5t91 11.5q172 0 251 -79t79 -249v-696h-164l-17 137q-43 -66 -104.5 -110.5t-138.5 -44.5q-285 0 -285 274zM192 1260 l230 194l229 -198l-74 -111l-155 119l-154 -117zM299 264q0 -59 31.5 -79.5t91.5 -20.5q66 0 113 44t47 111v152l-283 -61v-146z" />
<glyph unicode="&#xe3;" horiz-adv-x="907" d="M84 256v260l502 105v75q0 84 -31 115t-113 31q-27 0 -62.5 -10.5t-72.5 -25.5t-69.5 -33.5t-55.5 -35.5l-76 154q33 25 77 48.5t92.5 42.5t96.5 30.5t91 11.5q172 0 251 -79t79 -249v-696h-164l-17 137q-43 -66 -104.5 -110.5t-138.5 -44.5q-285 0 -285 274zM137 1270 q43 84 83 122t100 38q33 0 64.5 -12.5t59 -28t51 -28.5t40.5 -13q35 0 49 27.5t26 51.5l97 -63q-16 -68 -56.5 -119t-101.5 -51q-41 0 -71.5 13.5t-58.5 28.5t-53.5 28.5t-56.5 13.5q-23 0 -45 -23.5t-39 -60.5zM299 264q0 -59 31.5 -79.5t91.5 -20.5q66 0 113 44t47 111 v152l-283 -61v-146z" />
<glyph unicode="&#xe4;" horiz-adv-x="907" d="M84 256v260l502 105v75q0 84 -31 115t-113 31q-27 0 -62.5 -10.5t-72.5 -25.5t-69.5 -33.5t-55.5 -35.5l-76 154q33 25 77 48.5t92.5 42.5t96.5 30.5t91 11.5q172 0 251 -79t79 -249v-696h-164l-17 137q-43 -66 -104.5 -110.5t-138.5 -44.5q-285 0 -285 274zM163 1188 v199h193v-199h-193zM299 264q0 -59 31.5 -79.5t91.5 -20.5q66 0 113 44t47 111v152l-283 -61v-146zM489 1188v199h190v-199h-190z" />
<glyph unicode="&#xe5;" horiz-adv-x="907" d="M84 256v260l502 105v75q0 84 -31 115t-113 31q-27 0 -62.5 -10.5t-72.5 -25.5t-69.5 -33.5t-55.5 -35.5l-76 154q33 25 77 48.5t92.5 42.5t96.5 30.5t91 11.5q172 0 251 -79t79 -249v-696h-164l-17 137q-43 -66 -104.5 -110.5t-138.5 -44.5q-285 0 -285 274zM276 1300 q0 86 48.5 123t107.5 37q78 0 117 -45t39 -115q0 -82 -48.5 -120.5t-107.5 -38.5q-74 0 -115 46t-41 113zM299 264q0 -59 31.5 -79.5t91.5 -20.5q66 0 113 44t47 111v152l-283 -61v-146zM371 1300q0 -29 6 -44t15 -23t20.5 -9t19.5 -1q29 0 48.5 14t19.5 63q0 29 -6.5 45.5 t-16.5 24.5t-22.5 10t-22.5 2q-23 0 -42 -17.5t-19 -64.5z" />
<glyph unicode="&#xe6;" horiz-adv-x="1409" d="M84 258v246l496 80v116q0 82 -31 116t-113 34q-27 0 -62.5 -10.5t-72.5 -25.5t-68.5 -33.5t-54.5 -35.5l-76 154q33 25 78 49.5t93.5 43t97.5 29.5t92 11q92 0 150.5 -27.5t88.5 -89.5q43 51 105.5 80t148.5 29q156 0 254.5 -88t98.5 -254v-147l-521 -78v-111 q0 -86 58.5 -134t146.5 -48q63 0 113.5 29.5t105.5 85.5l113 -144q-76 -78 -155.5 -115.5t-188.5 -37.5q-135 0 -224 43t-130 135q-25 -53 -56.5 -88t-66.5 -54.5t-72 -26.5t-74 -7q-141 0 -207.5 66.5t-66.5 207.5zM293 268q0 -59 31.5 -79.5t91.5 -20.5q66 0 116 40 t50 109v117l-289 -47v-119zM788 602l310 41v47q0 68 -36 104.5t-106 36.5q-72 0 -120 -41.5t-48 -113.5v-74z" />
<glyph unicode="&#xe7;" horiz-adv-x="911" d="M84 322v358q0 78 26.5 141.5t74.5 108.5t114 69.5t145 24.5q106 0 185.5 -37t144.5 -129l-137 -133q-37 47 -86.5 78t-106.5 31q-72 0 -111.5 -42t-39.5 -112v-358q0 -78 42 -115t120 -37q55 0 103 20.5t85 65.5l127 -133q-131 -143 -324 -143q-166 0 -264 88t-98 254z M366 -164l33 193h156l-23 -119q16 -8 39 -21.5t43.5 -37t34.5 -56t14 -81.5t-17 -86t-49 -66t-77 -51.5t-98 -42.5l-54 117q39 20 76 45.5t37 79.5q0 37 -8 59t-23.5 35.5t-37 19.5t-46.5 12z" />
<glyph unicode="&#xe8;" horiz-adv-x="897" d="M84 342v340q0 166 103.5 254t271.5 88q78 0 143.5 -24.5t111.5 -69.5t71.5 -108.5t25.5 -141.5v-170l-518 -94v-74q0 -86 58.5 -129t144.5 -43q66 0 117 25.5t104 78.5l112 -137q-76 -82 -156.5 -119.5t-187.5 -37.5q-190 0 -295.5 86t-105.5 276zM241 1393l138 110 l170 -321l-107 -90zM293 561l309 55l-2 70q-4 70 -36.5 107.5t-102.5 37.5q-74 0 -121 -38.5t-47 -110.5v-121z" />
<glyph unicode="&#xe9;" horiz-adv-x="897" d="M84 342v340q0 166 103.5 254t271.5 88q78 0 143.5 -24.5t111.5 -69.5t71.5 -108.5t25.5 -141.5v-170l-518 -94v-74q0 -86 58.5 -129t144.5 -43q66 0 117 25.5t104 78.5l112 -137q-76 -82 -156.5 -119.5t-187.5 -37.5q-190 0 -295.5 86t-105.5 276zM293 561l309 55l-2 70 q-4 70 -36.5 107.5t-102.5 37.5q-74 0 -121 -38.5t-47 -110.5v-121zM335 1189l177 310l135 -93l-205 -301z" />
<glyph unicode="&#xea;" horiz-adv-x="897" d="M84 342v340q0 166 103.5 254t271.5 88q78 0 143.5 -24.5t111.5 -69.5t71.5 -108.5t25.5 -141.5v-170l-518 -94v-74q0 -86 58.5 -129t144.5 -43q66 0 117 25.5t104 78.5l112 -137q-76 -82 -156.5 -119.5t-187.5 -37.5q-190 0 -295.5 86t-105.5 276zM213 1258l230 194 l229 -198l-74 -111l-155 119l-154 -117zM293 561l309 55l-2 70q-4 70 -36.5 107.5t-102.5 37.5q-74 0 -121 -38.5t-47 -110.5v-121z" />
<glyph unicode="&#xeb;" horiz-adv-x="897" d="M84 342v340q0 166 103.5 254t271.5 88q78 0 143.5 -24.5t111.5 -69.5t71.5 -108.5t25.5 -141.5v-170l-518 -94v-74q0 -86 58.5 -129t144.5 -43q66 0 117 25.5t104 78.5l112 -137q-76 -82 -156.5 -119.5t-187.5 -37.5q-190 0 -295.5 86t-105.5 276zM182 1171v199h193v-199 h-193zM293 561l309 55l-2 70q-4 70 -36.5 107.5t-102.5 37.5q-74 0 -121 -38.5t-47 -110.5v-121zM508 1171v199h190v-199h-190z" />
<glyph unicode="&#xec;" horiz-adv-x="520" d="M43 1413l138 110l170 -321l-107 -90zM161 0v1004h207v-1004h-207z" />
<glyph unicode="&#xed;" horiz-adv-x="520" d="M135 1189l177 310l135 -93l-205 -301zM163 0v1004h207v-1004h-207z" />
<glyph unicode="&#xee;" horiz-adv-x="520" d="M16 1276l230 194l229 -198l-74 -111l-155 119l-154 -117zM143 0v1004h207v-1004h-207z" />
<glyph unicode="&#xef;" horiz-adv-x="520" d="M14 1188v199h193v-199h-193zM184 0v1004h207v-1004h-207zM340 1188v199h190v-199h-190z" />
<glyph unicode="&#xf0;" horiz-adv-x="927" d="M84 328v303q0 145 73.5 231t231.5 90q57 0 108.5 -17t98.5 -46q-27 84 -64.5 149.5t-91.5 126.5l-237 -129l-56 129l185 101q-49 39 -92 61.5t-97 36.5l72 180q100 -31 170 -69.5t143 -104.5l226 127l55 -133l-180 -100q104 -135 157.5 -272.5t53.5 -301.5v-362 q0 -88 -31 -152.5t-83 -107.5t-123 -63.5t-152 -20.5q-174 0 -270.5 88t-96.5 256zM297 328q0 -84 39 -119t115 -35q164 0 176 152v247q0 94 -48.5 140.5t-134.5 46.5q-80 0 -113.5 -38t-33.5 -110v-284z" />
<glyph unicode="&#xf1;" horiz-adv-x="1007" d="M131 0v1004h193l16 -117q47 72 103.5 105.5t144.5 33.5q166 0 234.5 -86t68.5 -254v-686h-213v653q0 80 -30 132.5t-109 52.5q-41 0 -77 -20.5t-61.5 -53.5t-41 -74t-15.5 -82v-608h-213zM198 1270q43 84 83 122t100 38q33 0 64.5 -12.5t59 -28t51 -28.5t40.5 -13 q35 0 49 27.5t26 51.5l97 -63q-16 -68 -56.5 -119t-101.5 -51q-41 0 -71.5 13.5t-58.5 28.5t-53.5 28.5t-56.5 13.5q-23 0 -45 -23.5t-39 -60.5z" />
<glyph unicode="&#xf2;" horiz-adv-x="927" d="M84 324v358q0 82 28.5 145.5t80 107.5t122 66.5t152.5 22.5q78 0 147.5 -22.5t120.5 -66.5t81 -107.5t30 -145.5v-358q0 -82 -29 -146.5t-79 -108.5t-118.5 -66.5t-150.5 -22.5q-84 0 -154.5 22.5t-122 65.5t-80 107.5t-28.5 148.5zM245 1393l138 110l170 -321l-107 -90z M297 326q0 -90 41 -123t131 -33q78 0 121 37t43 117v360q0 86 -40 118t-126 32q-80 0 -125 -37t-45 -115v-356z" />
<glyph unicode="&#xf3;" horiz-adv-x="927" d="M84 324v358q0 82 28.5 145.5t80 107.5t122 66.5t152.5 22.5q78 0 147.5 -22.5t120.5 -66.5t81 -107.5t30 -145.5v-358q0 -82 -29 -146.5t-79 -108.5t-118.5 -66.5t-150.5 -22.5q-84 0 -154.5 22.5t-122 65.5t-80 107.5t-28.5 148.5zM297 326q0 -90 41 -123t131 -33 q78 0 121 37t43 117v360q0 86 -40 118t-126 32q-80 0 -125 -37t-45 -115v-356zM338 1189l177 310l135 -93l-205 -301z" />
<glyph unicode="&#xf4;" horiz-adv-x="927" d="M84 324v358q0 82 28.5 145.5t80 107.5t122 66.5t152.5 22.5q78 0 147.5 -22.5t120.5 -66.5t81 -107.5t30 -145.5v-358q0 -82 -29 -146.5t-79 -108.5t-118.5 -66.5t-150.5 -22.5q-84 0 -154.5 22.5t-122 65.5t-80 107.5t-28.5 148.5zM215 1258l230 194l229 -198l-74 -111 l-155 119l-154 -117zM297 326q0 -90 41 -123t131 -33q78 0 121 37t43 117v360q0 86 -40 118t-126 32q-80 0 -125 -37t-45 -115v-356z" />
<glyph unicode="&#xf5;" horiz-adv-x="927" d="M84 324v358q0 82 28.5 145.5t80 107.5t122 66.5t152.5 22.5q78 0 147.5 -22.5t120.5 -66.5t81 -107.5t30 -145.5v-358q0 -82 -29 -146.5t-79 -108.5t-118.5 -66.5t-150.5 -22.5q-84 0 -154.5 22.5t-122 65.5t-80 107.5t-28.5 148.5zM159 1231q43 84 83 122t100 38 q33 0 64.5 -12.5t59 -28t51 -28.5t40.5 -13q35 0 49 27.5t26 51.5l97 -63q-16 -68 -56.5 -119t-101.5 -51q-41 0 -71.5 13.5t-58.5 28.5t-53.5 28.5t-56.5 13.5q-23 0 -45 -23.5t-39 -60.5zM297 326q0 -90 41 -123t131 -33q78 0 121 37t43 117v360q0 86 -40 118t-126 32 q-80 0 -125 -37t-45 -115v-356z" />
<glyph unicode="&#xf6;" horiz-adv-x="927" d="M84 324v358q0 82 28.5 145.5t80 107.5t122 66.5t152.5 22.5q78 0 147.5 -22.5t120.5 -66.5t81 -107.5t30 -145.5v-358q0 -82 -29 -146.5t-79 -108.5t-118.5 -66.5t-150.5 -22.5q-84 0 -154.5 22.5t-122 65.5t-80 107.5t-28.5 148.5zM186 1167v199h193v-199h-193zM297 326 q0 -90 41 -123t131 -33q78 0 121 37t43 117v360q0 86 -40 118t-126 32q-80 0 -125 -37t-45 -115v-356zM512 1167v199h190v-199h-190z" />
<glyph unicode="&#xf7;" horiz-adv-x="1193" d="M84 485v162h1026v-162h-1026zM481 117v241h240v-241h-240zM481 766v244h240v-244h-240z" />
<glyph unicode="&#xf8;" horiz-adv-x="899" d="M72 324v358q0 82 28.5 145.5t79.5 107.5t121 66.5t152 22.5q78 0 151 -29l55 129h115l-74 -174q59 -45 95 -111.5t36 -156.5v-358q0 -82 -27.5 -146.5t-77.5 -108.5t-119.5 -66.5t-151.5 -22.5t-144 20l-59 -147h-125l80 194q-63 43 -99 111.5t-36 165.5zM285 326 q0 -43 12 -64l235 557q-29 14 -79 15q-80 0 -124 -37t-44 -115v-356zM383 178q16 -4 32.5 -6t39.5 -2q78 0 120.5 37t42.5 117v360q0 27 -6 41z" />
<glyph unicode="&#xf9;" horiz-adv-x="942" d="M129 322v682h213v-682q0 -78 29.5 -115t107.5 -37q76 0 105.5 37t29.5 115v682h213v-682q0 -168 -92 -255t-256 -87q-168 0 -259 87t-91 255zM254 1393l138 110l170 -321l-107 -90z" />
<glyph unicode="&#xfa;" horiz-adv-x="942" d="M129 322v682h213v-682q0 -78 29.5 -115t107.5 -37q76 0 105.5 37t29.5 115v682h213v-682q0 -168 -92 -255t-256 -87q-168 0 -259 87t-91 255zM346 1169l177 310l135 -93l-205 -301z" />
<glyph unicode="&#xfb;" horiz-adv-x="942" d="M129 322v682h213v-682q0 -78 29.5 -115t107.5 -37q76 0 105.5 37t29.5 115v682h213v-682q0 -168 -92 -255t-256 -87q-168 0 -259 87t-91 255zM223 1276l230 194l229 -198l-74 -111l-155 119l-154 -117z" />
<glyph unicode="&#xfc;" horiz-adv-x="942" d="M129 322v682h213v-682q0 -78 29.5 -115t107.5 -37q76 0 105.5 37t29.5 115v682h213v-682q0 -168 -92 -255t-256 -87q-168 0 -259 87t-91 255zM194 1206v199h193v-199h-193zM520 1206v199h190v-199h-190z" />
<glyph unicode="&#xfd;" horiz-adv-x="845" d="M35 1004h217l174 -797l172 797h217l-328 -1158q-45 -160 -152.5 -231.5t-262.5 -75.5l-21 164q80 4 148.5 49t93.5 119l29 104zM309 1169l177 310l135 -93l-205 -301z" />
<glyph unicode="&#xfe;" horiz-adv-x="976" d="M131 -489v2002h207v-575q47 47 102 66.5t121 19.5q174 0 253 -82t79 -248v-375q0 -178 -85 -261t-251 -83q-141 0 -219 93v-557h-207zM346 414q0 -59 6 -105.5t25.5 -77t54.5 -47t92 -16.5q82 0 121 29.5t39 107.5v348q0 96 -37 138.5t-123 42.5t-132 -45.5t-46 -120.5 v-254z" />
<glyph unicode="&#xff;" horiz-adv-x="845" d="M35 1004h217l174 -797l172 797h217l-328 -1158q-45 -160 -152.5 -231.5t-262.5 -75.5l-21 164q80 4 148.5 49t93.5 119l29 104zM157 1206v199h193v-199h-193zM483 1206v199h190v-199h-190z" />
<glyph unicode="&#x152;" horiz-adv-x="1574" d="M100 422v551q0 102 38 180t102.5 131t148.5 81t178 28h885v-191h-448v-395h378v-182h-378v-435h487v-190h-922q-104 0 -191 26.5t-148.5 80t-95.5 132t-34 183.5zM313 422q0 -63 20.5 -107.5t54.5 -72t80 -40t101 -12.5h224v1012h-226q-113 0 -183.5 -68.5t-70.5 -185.5 v-526z" />
<glyph unicode="&#x153;" horiz-adv-x="1454" d="M84 334v358q0 168 94 251t254 83q84 0 162 -38t123 -97q47 72 122.5 105.5t168.5 33.5q74 0 136 -24.5t109 -69.5t74 -107.5t27 -136.5v-176l-518 -90v-61q0 -45 17 -80t45 -59.5t64.5 -37t75.5 -12.5q66 0 127.5 36t102.5 83l102 -143q-68 -72 -159 -114t-183 -42 q-102 0 -181 33.5t-138 111.5q-43 -72 -118 -110.5t-155 -38.5q-170 0 -261 89t-91 253zM293 334q0 -82 46 -117t120 -35q78 0 121 49.5t47 120.5v324q-4 76 -51.5 122t-114.5 46q-82 0 -125 -40t-43 -112v-358zM836 584l307 53v65q0 70 -39.5 106t-102.5 36 q-76 -2 -121.5 -49t-43.5 -117v-94z" />
<glyph unicode="&#x178;" horiz-adv-x="1122" d="M37 1393h231l283 -617l287 617h231l-412 -840v-553h-213v555zM288 1513v199h193v-199h-193zM614 1513v199h190v-199h-190z" />
<glyph unicode="&#x2c6;" horiz-adv-x="663" d="M102 1276l230 194l229 -198l-74 -111l-155 119l-154 -117z" />
<glyph unicode="&#x2dc;" horiz-adv-x="774" d="M102 1270q43 84 83 122t100 38q33 0 64.5 -12.5t59 -28t51 -28.5t40.5 -13q35 0 49 27.5t26 51.5l97 -63q-16 -68 -56.5 -119t-101.5 -51q-41 0 -71.5 13.5t-58.5 28.5t-53.5 28.5t-56.5 13.5q-23 0 -45 -23.5t-39 -60.5z" />
<glyph unicode="&#x2000;" horiz-adv-x="966" />
<glyph unicode="&#x2001;" horiz-adv-x="1933" />
<glyph unicode="&#x2002;" horiz-adv-x="966" />
<glyph unicode="&#x2003;" horiz-adv-x="1933" />
<glyph unicode="&#x2004;" horiz-adv-x="644" />
<glyph unicode="&#x2005;" horiz-adv-x="483" />
<glyph unicode="&#x2006;" horiz-adv-x="322" />
<glyph unicode="&#x2007;" horiz-adv-x="322" />
<glyph unicode="&#x2008;" horiz-adv-x="241" />
<glyph unicode="&#x2009;" horiz-adv-x="386" />
<glyph unicode="&#x200a;" horiz-adv-x="107" />
<glyph unicode="&#x2010;" horiz-adv-x="624" d="M84 504v190h457v-190h-457z" />
<glyph unicode="&#x2011;" horiz-adv-x="624" d="M84 504v190h457v-190h-457z" />
<glyph unicode="&#x2012;" horiz-adv-x="624" d="M84 504v190h457v-190h-457z" />
<glyph unicode="&#x2013;" horiz-adv-x="1013" d="M2 524v162h1004v-162h-1004z" />
<glyph unicode="&#x2014;" horiz-adv-x="1366" d="M4 524v162h1358v-162h-1358z" />
<glyph unicode="&#x2018;" horiz-adv-x="305" d="M61 948v56q0 147 37 249.5t101 159.5l102 -63q-57 -92 -57 -254v-148h-183z" />
<glyph unicode="&#x2019;" horiz-adv-x="321" d="M16 981q35 45 56.5 104.5t21.5 147.5v145h182v-53q0 -80 -14.5 -144.5t-38 -113.5t-54 -87t-61.5 -64z" />
<glyph unicode="&#x201a;" horiz-adv-x="468" d="M139 -209q35 45 56.5 104.5t21.5 147.5v145h182v-53q0 -80 -14.5 -144.5t-38 -113.5t-54 -87t-61.5 -64z" />
<glyph unicode="&#x201c;" horiz-adv-x="653" d="M61 948v56q0 147 37 249.5t101 159.5l102 -63q-57 -92 -57 -254v-148h-183zM391 948v56q0 147 37 249.5t101 159.5l102 -63q-57 -92 -57 -254v-148h-183z" />
<glyph unicode="&#x201d;" horiz-adv-x="638" d="M16 991q35 45 56.5 104.5t21.5 147.5v145h182v-53q0 -80 -14.5 -144.5t-38 -113.5t-54 -87t-61.5 -64zM330 993q35 45 56.5 104.5t21.5 147.5v145h182v-53q0 -80 -14.5 -144.5t-38 -113.5t-54 -87t-61.5 -64z" />
<glyph unicode="&#x201e;" horiz-adv-x="788" d="M139 -207q35 45 56.5 104.5t21.5 147.5v145h182v-53q0 -80 -14.5 -144.5t-38 -113.5t-54 -87t-61.5 -64zM471 -205q35 45 56.5 104.5t21.5 147.5v145h182v-53q0 -80 -14.5 -144.5t-38 -113.5t-54 -87t-61.5 -64z" />
<glyph unicode="&#x2022;" horiz-adv-x="659" d="M131 340v408h397v-408h-397z" />
<glyph unicode="&#x2026;" horiz-adv-x="1394" d="M131 0v254h244v-254h-244zM575 0v254h244v-254h-244zM1018 0v254h246v-254h-246z" />
<glyph unicode="&#x202f;" horiz-adv-x="386" />
<glyph unicode="&#x2039;" horiz-adv-x="526" d="M68 354l276 377l98 -90l-166 -285l164 -270l-96 -100z" />
<glyph unicode="&#x203a;" horiz-adv-x="526" d="M84 641l98 90l277 -377l-277 -368l-96 100l164 268z" />
<glyph unicode="&#x205f;" horiz-adv-x="483" />
<glyph unicode="&#x20ac;" horiz-adv-x="1198" d="M59 528v129h238v144h-238v127h238v149q0 88 28.5 153.5t81 108.5t126 63.5t161.5 20.5q111 0 200 -36.5t167 -116.5l-100 -158q-53 49 -124 84t-143 35q-104 0 -145 -49t-41 -154v-100h393v-127h-393v-144h393v-129h-391v-151q0 -96 51 -149.5t148 -53.5q72 0 135 35 t119 88l116 -147q-80 -82 -170 -125t-200 -43q-201 0 -306.5 102t-105.5 305v139h-238z" />
<glyph unicode="&#x2122;" horiz-adv-x="976" d="M63 1337v97h353v-97h-117v-338h-119v338h-117zM455 1004v430h118l84 -154l76 154h117v-430h-121v194l-47 -98h-61l-48 100v-196h-118z" />
<glyph unicode="&#xe000;" horiz-adv-x="1003" d="M0 0v1004h1004v-1004h-1004z" />
<glyph unicode="&#xfb03;" horiz-adv-x="1548" d="M-10 850v154h160v182q0 160 85.5 235.5t237.5 79.5q94 0 177 -32.5t151 -79.5q51 57 114.5 88.5t153.5 31.5q43 0 94 -12t102.5 -29.5t97.5 -36t79 -30.5l-53 -180q-37 18 -80 34.5t-88 29.5t-87 20.5t-79 7.5q-59 0 -90 -37t-31 -96v-176h168v-154h-170v-850h-207v850 h-158v154h158v133q0 18 1 38.5t3 36.5q-59 41 -129 70t-127 29q-61 0 -89 -25.5t-28 -89.5v-192h154v-154h-154v-850h-206v850h-160zM1214 0v1004h209v-1004h-209z" />
<glyph unicode="&#xfb04;" horiz-adv-x="1568" d="M-4 850v154h162v182q0 160 85.5 235.5t239.5 79.5q88 0 166 -28.5t144 -73.5q51 59 107 82.5t134 23.5q72 0 160 -29.5t160 -68.5h76v-1407h-207v1276q-45 23 -97.5 36t-91.5 13q-59 0 -87.5 -42t-28.5 -101v-178h178v-154h-181v-850h-202v850h-156v154h158v157 q0 23 1 50.5t7 48.5q-127 51 -240 51q-63 0 -90.5 -25.5t-27.5 -89.5v-192h153v-154h-153v-850h-207v850h-162z" />
</font>
</defs>
</svg>
