<?xml version="1.0" standalone="no"?>
<!DOCTYPE svg PUBLIC "-//W3C//DTD SVG 1.1//EN" "http://www.w3.org/Graphics/SVG/1.1/DTD/svg11.dtd" >
<svg xmlns="http://www.w3.org/2000/svg">
<metadata></metadata>
<defs>
<font id="pill_gothic_300mgregular" horiz-adv-x="1075" >
<font-face units-per-em="2048" ascent="1638" descent="-410" />
<missing-glyph horiz-adv-x="446" />
<glyph unicode="&#xdf;" horiz-adv-x="1120" d="M96 883v121h90v221q0 135 69 215t208 80q47 0 102.5 -17.5t98.5 -40.5l-60 -121q-27 10 -62.5 23.5t-64.5 13.5q-86 0 -115.5 -51t-29.5 -135v-188h647v-105l-205 -297h37q98 -10 149.5 -62.5t51.5 -164.5v-168q0 -55 -21.5 -97t-57.5 -70t-83 -42t-98 -14 q-86 0 -160 37.5t-113 119.5l103 80q18 -47 65 -79.5t94 -32.5q53 0 87 26.5t34 89.5v129q0 66 -22.5 98.5t-83.5 32.5h-158v109l203 289h-465v-883h-150v883h-90z" />
<glyph unicode="&#xfb01;" horiz-adv-x="1019" d="M43 883v121h166v245q0 72 22.5 123t61.5 85t93.5 49.5t117.5 15.5q59 0 117.5 -16.5t108.5 -39t87 -45t55 -37.5l-73 -127q-18 10 -48 31t-68 42.5t-83 36.5t-94 15q-78 0 -111 -38.5t-33 -106.5v-233h181v-121h-183v-883h-151v883h-166zM700 0v1004h154v-1004h-154z" />
<glyph unicode="&#xfb02;" horiz-adv-x="1126" d="M43 881v123h168v237q0 145 85 213t216 68q37 0 89 -6.5t105.5 -17.5t101.5 -25.5t77 -30.5h57v-1442h-154v1331q-25 12 -62.5 21.5t-78.5 15.5t-78 9t-57 3q-78 0 -114 -37.5t-36 -103.5v-235h187v-123h-187v-881h-153v881h-166z" />
<glyph horiz-adv-x="2048" />
<glyph horiz-adv-x="2048" />
<glyph unicode="&#xd;" horiz-adv-x="446" />
<glyph unicode=" "  horiz-adv-x="446" />
<glyph unicode="&#x09;" horiz-adv-x="446" />
<glyph unicode="&#xa0;" horiz-adv-x="446" />
<glyph unicode="!" horiz-adv-x="483" d="M168 0v221h190v-221h-190zM178 1393h168l-14 -908h-139z" />
<glyph unicode="&#x22;" horiz-adv-x="571" d="M115 1391h127l-9 -453h-112zM334 1391h125l-6 -453h-113z" />
<glyph unicode="#" horiz-adv-x="1177" d="M96 309v109h264l64 418h-272v106h288l49 338h119l-51 -338h188l54 338h110l-47 -338h219v-106h-235l-64 -418h244v-109h-260l-43 -309h-117l41 309h-188l-43 -309h-115l41 309h-246zM475 418h191l63 418h-190z" />
<glyph unicode="$" horiz-adv-x="948" d="M98 242l115 77q23 -53 48.5 -87.5t58 -55t71.5 -29t90 -8.5q111 0 162 58.5t51 167.5v137l-561 334v206q0 92 23.5 155t64.5 103.5t96.5 62t118.5 30.5v223h133v-227q104 -10 176 -69.5t107 -150.5l-111 -86q-47 96 -103 131t-134 35q-41 0 -80 -7t-68.5 -29.5t-48 -64.5 t-18.5 -112v-106l561 -334v-242q0 -150 -81 -246t-216 -112v-252h-135v254q-117 8 -201 72.5t-119 171.5z" />
<glyph unicode="%" horiz-adv-x="1263" d="M131 1004v200q0 111 67.5 160t166.5 49q111 0 170 -55t59 -154v-200q0 -115 -63.5 -161t-165.5 -46q-111 0 -172.5 54t-61.5 153zM145 0l750 1393h141l-741 -1393h-150zM268 1022q0 -49 28 -72.5t69 -23.5q49 0 71.5 25.5t22.5 66.5v174q0 47 -28 69.5t-66 22.5 q-47 0 -72 -26.5t-25 -65.5v-170zM666 190v195q0 111 68.5 163t166.5 52q113 0 172.5 -59.5t59.5 -155.5v-197q0 -115 -64.5 -161.5t-167.5 -46.5q-113 0 -174 55t-61 155zM807 205q0 -49 26.5 -72.5t67.5 -23.5q49 0 71.5 25.5t22.5 66.5v174q0 47 -27.5 71.5t-66.5 24.5 q-47 0 -70.5 -28.5t-23.5 -67.5v-170z" />
<glyph unicode="&#x26;" horiz-adv-x="1200" d="M96 336q0 61 25.5 121.5t67.5 119t93.5 115t102.5 109.5l-147 190v176q0 123 71.5 184.5t182.5 61.5q133 0 198.5 -73.5t65.5 -206.5q0 -57 -14.5 -104.5t-37 -87.5t-53 -77t-65.5 -78l245 -340l181 234l108 -88l-194 -258l204 -262l-112 -101l-182 236 q-78 -104 -167 -162.5t-202 -58.5q-80 0 -148.5 21.5t-117.5 64.5t-77 109.5t-28 154.5zM258 338q0 -106 54.5 -155.5t154.5 -49.5q43 0 83 17.5t74.5 46t64.5 63.5t52 70l-262 362q-43 -39 -83 -86t-70.5 -94t-49 -92t-18.5 -82zM387 1032l107 -145q57 57 86.5 112.5 t29.5 126.5q0 86 -27.5 119t-86.5 33q-37 0 -57.5 -11.5t-32 -28.5t-13.5 -36.5t-2 -36.5z" />
<glyph unicode="'" horiz-adv-x="450" d="M150 1434h151l-12 -473h-127z" />
<glyph unicode="(" horiz-adv-x="649" d="M172 211v682q0 109 18.5 209t55.5 187t93 157t132 115l55 -82q-94 -59 -157.5 -209t-63.5 -377v-682q0 -207 58.5 -355.5t162.5 -226.5l-55 -84q-137 88 -218 258t-81 408z" />
<glyph unicode=")" horiz-adv-x="671" d="M121 1485l57 76q78 -45 134.5 -117t93 -161t54 -190.5t17.5 -209.5v-658q0 -240 -81 -415t-218 -263l-55 76q104 76 161.5 231.5t57.5 370.5v658q0 227 -63.5 385.5t-157.5 216.5z" />
<glyph unicode="*" horiz-adv-x="751" d="M96 1188l37 108l186 -71v213h115v-213l187 69l34 -106l-194 -68l127 -182l-92 -64l-119 173l-119 -173l-94 64l127 182z" />
<glyph unicode="+" horiz-adv-x="995" d="M61 727v143h357v412h157v-412h359v-143h-359v-448h-157v448h-357z" />
<glyph unicode="," horiz-adv-x="382" d="M43 -207q35 47 55.5 102.5t20.5 143.5v131h141v-53q0 -76 -11 -134.5t-30.5 -102.5t-45.5 -77.5t-54 -62.5z" />
<glyph unicode="-" horiz-adv-x="606" d="M96 516v143h416v-143h-416z" />
<glyph unicode="." horiz-adv-x="466" d="M131 0v219h203v-219h-203z" />
<glyph unicode="/" horiz-adv-x="669" d="M43 -174l455 1567h141l-457 -1567h-139z" />
<glyph unicode="0" horiz-adv-x="1134" d="M150 362v658q0 186 112 289.5t305 103.5q94 0 171 -26.5t132.5 -76.5t85 -124t29.5 -166v-655q0 -92 -30.5 -164t-86 -121t-132.5 -74.5t-169 -25.5q-193 0 -305 97t-112 285zM305 362q0 -121 69.5 -180t192.5 -59t192.5 59.5t69.5 182.5v655q0 121 -69.5 185.5 t-192.5 64.5q-125 0 -193.5 -65.5t-68.5 -184.5v-658z" />
<glyph unicode="1" horiz-adv-x="815" d="M135 1249v144h408v-1393h-156v1249h-252z" />
<glyph unicode="2" horiz-adv-x="952" d="M111 1214q63 90 161.5 147.5t227.5 57.5q172 0 257 -91t85 -238q0 -63 -7.5 -117.5t-33 -107t-73.5 -106t-132 -116.5q-76 -55 -133 -110.5t-95 -116t-58.5 -127t-20.5 -146.5h575v-143h-731v82q0 100 13.5 184t48 158t95 143.5t154.5 141.5q63 47 109.5 84.5t75 77.5 t43 86.5t14.5 109.5q0 111 -57.5 160t-153.5 49q-43 0 -80 -14.5t-69.5 -38t-60 -52t-52.5 -57.5z" />
<glyph unicode="3" horiz-adv-x="1024" d="M115 272l131 39q4 -39 29.5 -73.5t61.5 -60t79 -40t84 -14.5q102 0 168.5 36t66.5 115v207q0 43 -20.5 75t-54 53.5t-74.5 31.5t-82 12h-146v142h140q102 0 164.5 42t62.5 121v144q0 94 -62.5 131t-162.5 37q-49 0 -91 -16.5t-75 -44t-53.5 -63.5t-24.5 -73l-125 49 q10 70 45 124t87 91t115.5 56.5t127.5 19.5q188 0 281.5 -85t93.5 -226v-144q0 -55 -17.5 -93t-45 -64.5t-61.5 -45t-69 -34.5q82 -35 142.5 -91.5t60.5 -148.5v-207q0 -80 -32 -136t-85 -91t-122.5 -51t-145.5 -16q-78 0 -145.5 21.5t-120 60t-85 93t-40.5 117.5z" />
<glyph unicode="4" horiz-adv-x="962" d="M49 412v118l445 863h237v-838h193v-143h-193v-412h-158v412h-524zM223 555h350l5 698h-11z" />
<glyph unicode="5" horiz-adv-x="997" d="M123 301l149 33q2 -41 19.5 -79t48.5 -67.5t73 -47t95 -17.5q115 0 164 44t49 134v217q0 51 -18.5 86t-50 56.5t-73.5 30.5t-90 9h-323l70 693h573v-144h-432l-45 -405h170q180 0 276 -86t96 -240v-217q0 -86 -29.5 -146.5t-80.5 -99.5t-121 -57t-147 -18 q-170 0 -266.5 88t-106.5 233z" />
<glyph unicode="6" horiz-adv-x="1026" d="M150 313v793q0 78 30.5 134t81.5 95t119 57.5t139 18.5q111 0 178.5 -41t120.5 -108l-94 -105q-35 47 -84 80t-121 33q-106 0 -162.5 -48t-56.5 -116v-340q53 74 113.5 101.5t132.5 27.5q176 0 262 -87t86 -241v-254q0 -82 -29.5 -143t-80 -103t-119 -62.5t-146.5 -20.5 q-178 0 -274 91t-96 238zM301 313q0 -98 63.5 -143t155.5 -45q109 0 165 51t56 137v240q0 98 -59 144t-152 46q-53 0 -96 -18t-72.5 -48t-45 -69t-15.5 -82v-213z" />
<glyph unicode="7" horiz-adv-x="804" d="M16 1249v144h738l-383 -1393h-166l346 1249h-535z" />
<glyph unicode="8" horiz-adv-x="1042" d="M150 295v174q0 43 15 82t41.5 71.5t59.5 59.5t70 43q-80 41 -123 104.5t-43 145.5v143q0 74 28.5 128t77 90t112 53.5t132.5 17.5q168 0 259 -82t91 -223v-131q0 -43 -14 -81t-37.5 -71t-52.5 -56.5t-59 -37.5q82 -39 134 -109.5t52 -146.5v-178q0 -76 -29.5 -134.5 t-81 -98.5t-119 -59t-143.5 -19q-184 0 -277 83.5t-93 231.5zM301 299q0 -94 61.5 -135t157.5 -41q106 0 162.5 47t56.5 125v143q0 98 -53 153.5t-149 55.5h-31q-111 -2 -158 -60.5t-47 -146.5v-141zM324 971q0 -90 53 -133t133 -47h25q92 8 137 55t45 125v131 q0 90 -57.5 126t-139.5 36q-98 0 -147 -45t-49 -117v-131z" />
<glyph unicode="9" horiz-adv-x="1028" d="M131 829v293q0 78 28.5 137.5t79 99.5t119 60.5t146.5 20.5q178 0 275.5 -89t97.5 -229v-811q0 -82 -29 -144.5t-80 -102t-118.5 -60t-145.5 -20.5q-92 0 -187.5 39.5t-152.5 103.5l90 113q27 -23 58.5 -44.5t64.5 -38t65.5 -25.5t59.5 -9q109 0 165 48t56 140v291 q-47 -55 -112.5 -79.5t-131.5 -24.5q-180 0 -264 92t-84 239zM285 829q0 -98 62.5 -143t156.5 -45q109 0 164 63.5t55 151.5v266q0 92 -63.5 134t-155.5 42q-111 0 -165 -51t-54 -125v-293z" />
<glyph unicode=":" horiz-adv-x="538" d="M178 0v242h193v-242h-193zM178 766v238h193v-238h-193z" />
<glyph unicode=";" horiz-adv-x="724" d="M143 -207q35 47 55.5 102.5t20.5 143.5v131h141v-53q0 -76 -11 -134.5t-30.5 -102.5t-45 -77.5t-54.5 -62.5zM217 711v231h145v-231h-145z" />
<glyph unicode="&#x3c;" horiz-adv-x="1050" d="M96 494l774 561l56 -97l-615 -458l643 -420l-69 -105z" />
<glyph unicode="=" horiz-adv-x="1097" d="M96 438v127h905v-127h-905zM96 877v127h905v-127h-905z" />
<glyph unicode="&#x3e;" horiz-adv-x="1024" d="M102 78l615 426l-600 434l59 109l752 -537l-768 -547z" />
<glyph unicode="?" horiz-adv-x="735" d="M51 1247q59 68 138 117t171 49q143 0 211 -59.5t68 -200.5v-135q0 -55 -23.5 -106.5t-60.5 -90.5q-41 -43 -71.5 -76.5t-50 -69.5t-29 -77t-9.5 -96v-74h-149v172q0 37 8 67.5t24.5 58.5t41 54.5t55.5 59.5q35 41 70.5 85t39.5 95v104q0 78 -28.5 112t-106.5 34 q-31 0 -59.5 -11.5t-56 -29t-52 -39t-45.5 -41.5zM229 0v221h203v-221h-203z" />
<glyph unicode="@" horiz-adv-x="1398" d="M96 518v17.5t2 42t5 88t12 155.5q12 162 66.5 281t137 197.5t191 117.5t231.5 39q150 0 255.5 -38t172 -106.5t97 -162.5t30.5 -205q0 -301 -66.5 -450.5t-223.5 -149.5q-80 0 -126 37t-57 94q-47 -78 -104 -118t-131 -40q-66 0 -108 14.5t-65.5 40t-32.5 59.5t-11 71 q0 94 15 180t24 164q10 74 42.5 130t80 94t102.5 56.5t108 18.5q123 0 179.5 -45t56.5 -131q0 -47 -5 -102.5t-16 -100.5l-20 -94t-12 -97q0 -61 22.5 -90.5t57.5 -29.5q47 0 79.5 24.5t52 80.5t28 148.5t8.5 227.5q0 113 -32 190.5t-89.5 127t-137 71t-174.5 21.5 q-125 0 -216 -43t-151.5 -116t-93 -169t-42.5 -205q-8 -96 -12.5 -151.5t-6.5 -85t-2 -39v-13.5q0 -115 34 -196.5t94.5 -134t142 -77t178.5 -24.5q82 0 164.5 23.5t154.5 70.5l51 -102q-96 -66 -190 -84t-180 -18q-150 0 -256.5 40.5t-176 113.5t-102.5 171.5t-35 210.5z M510 528q2 -59 29.5 -77.5t68.5 -18.5q74 0 113 38t58.5 91t25.5 110.5t12 94.5q-2 -4 2 18.5t8 53t8.5 63.5t4.5 49q-2 53 -34 67.5t-79 14.5q-49 0 -82 -19.5t-54.5 -51t-33.5 -73.5t-20 -87q-10 -59 -16.5 -126t-10.5 -147z" />
<glyph unicode="A" d="M45 0l412 1407h174l399 -1407h-160l-120 420h-420l-123 -420h-162zM367 553h348l-172 657z" />
<glyph unicode="B" horiz-adv-x="1038" d="M166 0v1393h395q80 0 140.5 -25t100.5 -68t60.5 -100t20.5 -123v-102q0 -92 -40 -156.5t-106 -93.5q86 -29 136.5 -108.5t50.5 -172.5v-116q0 -76 -26 -136.5t-70 -103.5t-102 -65.5t-124 -22.5h-436zM322 143h251q49 0 86 15.5t61.5 42t36 59.5t11.5 68v121 q0 98 -57.5 150t-149.5 52h-239v-508zM322 784h227q176 0 176 179v102q0 94 -50 139t-140 45h-213v-465z" />
<glyph unicode="C" horiz-adv-x="997" d="M115 377v635q0 98 31.5 173t88 125t134 76.5t168.5 26.5q137 0 229 -52t152 -142l-105 -105q-45 68 -116.5 112t-159.5 44q-68 0 -118 -19.5t-83 -54.5t-49.5 -82t-16.5 -102v-635q0 -137 72 -195.5t195 -58.5q100 0 165.5 33.5t118.5 93.5l94 -113q-78 -82 -173 -119.5 t-205 -37.5q-215 0 -318.5 107.5t-103.5 289.5z" />
<glyph unicode="D" horiz-adv-x="1087" d="M168 -2v1395h360q213 0 328 -111t115 -301v-571q0 -111 -34 -190t-93.5 -128t-141 -71.5t-180.5 -22.5h-354zM319 141h201q143 0 221 71t78 198v571q0 72 -23.5 123t-63.5 84t-92 47t-112 14h-209v-1108z" />
<glyph unicode="E" horiz-adv-x="919" d="M168 0v1393h616v-144h-465v-469h392v-139h-392v-498h504v-143h-655z" />
<glyph unicode="F" horiz-adv-x="843" d="M168 0v1393h614v-144h-463v-456h390v-138h-390v-655h-151z" />
<glyph unicode="G" horiz-adv-x="1110" d="M115 391v610q0 100 36.5 177t98 129.5t142.5 79t169 26.5q131 0 224.5 -51t152.5 -137l-100 -105q-53 70 -126 110t-151 40q-68 0 -121 -20.5t-92 -57.5t-59.5 -86t-20.5 -105v-610q0 -70 23.5 -121t63.5 -83.5t93.5 -48t112.5 -15.5q104 0 159.5 20.5t104.5 61.5v385 h-280v133h434v-582q-72 -70 -177.5 -115.5t-240.5 -45.5q-104 0 -187 29.5t-140.5 83.5t-88 130t-30.5 168z" />
<glyph unicode="H" horiz-adv-x="1245" d="M195 0v1393h151v-648h576v648h153v-1393h-153v602h-576v-602h-151z" />
<glyph unicode="I" horiz-adv-x="602" d="M221 0v1393h156v-1393h-156z" />
<glyph unicode="J" horiz-adv-x="884" d="M43 256l141 39q10 -92 57.5 -132t135.5 -40q82 0 134 31.5t52 115.5v1123h156v-1123q0 -74 -26.5 -128t-73 -90t-110 -54t-134.5 -18q-141 0 -229.5 67.5t-102.5 208.5z" />
<glyph unicode="K" horiz-adv-x="1087" d="M168 0v1393h156v-633l518 633h184l-528 -648l579 -745h-196l-484 621l-73 -97v-524h-156z" />
<glyph unicode="L" horiz-adv-x="880" d="M168 0v1393h151v-1250h547v-143h-698z" />
<glyph unicode="M" horiz-adv-x="1411" d="M168 0v1393h192l345 -797l346 797h192v-1393h-143v1180l-348 -856h-88l-355 852v-1176h-141z" />
<glyph unicode="N" horiz-adv-x="1259" d="M168 0v1393h219l563 -1211v1211h144v-1393h-232l-553 1196v-1196h-141z" />
<glyph unicode="O" horiz-adv-x="1161" d="M115 391v610q0 92 34.5 169t96 130.5t143.5 83t176 29.5h27q96 0 178 -28.5t143.5 -83t96 -130t34.5 -170.5v-610q0 -98 -34.5 -174t-95 -129t-143.5 -80.5t-179 -27.5h-25q-98 0 -182 27.5t-143.5 79.5t-93 129t-33.5 175zM270 391q0 -131 83 -199.5t214 -68.5h25 q131 0 214 67.5t83 200.5v608q0 59 -23.5 109.5t-64.5 86.5t-94.5 55.5t-114.5 19.5h-27q-61 0 -114.5 -19.5t-93.5 -54.5t-63.5 -84t-23.5 -111v-610z" />
<glyph unicode="P" horiz-adv-x="978" d="M166 0v1393h375q154 0 248 -86t94 -240v-207q0 -74 -26 -129t-72 -94t-108.5 -58.5t-133.5 -19.5h-221v-559h-156zM322 702h219q82 0 134 37t52 123v203q0 86 -50 135t-136 49h-219v-547z" />
<glyph unicode="Q" horiz-adv-x="1150" d="M115 391v610q0 92 34.5 169t96 130.5t143.5 83t176 29.5h27q96 0 178 -28.5t143.5 -83t96 -130t34.5 -170.5v-610q0 -104 -37.5 -182t-105.5 -131l27 -39q55 -90 188 -90v-111q-53 0 -95 4t-77 17.5t-64.5 39t-58.5 68.5l-33 47q-89 -34 -190 -34h-6h-25q-98 0 -182 27.5 t-143.5 79.5t-93 129t-33.5 175zM270 391q0 -131 83 -199.5t214 -68.5h25q66 0 113 20l-162 254l100 70l174 -262q72 68 72 186v608q0 59 -23.5 109.5t-64.5 86.5t-94.5 55.5t-114.5 19.5h-27q-61 0 -114.5 -19.5t-93.5 -54.5t-63.5 -84t-23.5 -111v-610z" />
<glyph unicode="R" horiz-adv-x="1056" d="M168 0v1393h438q158 0 249 -80t91 -248v-152q0 -133 -68.5 -200.5t-183.5 -94.5l281 -618h-164l-272 606h-215v-606h-156zM324 750h280q86 0 136.5 38.5t50.5 126.5v152q0 90 -48.5 136t-138.5 46h-280v-499z" />
<glyph unicode="S" horiz-adv-x="985" d="M70 233l125 91q41 -94 119.5 -146.5t183.5 -52.5q123 0 191.5 45t68.5 168q0 61 -36 107.5t-85 83t-101.5 65.5t-84.5 53q-41 31 -97.5 68t-106.5 86t-85 112.5t-35 149.5q0 176 109.5 263t287.5 87q111 0 210.5 -53t162.5 -139l-100 -115q-23 31 -54.5 59.5t-68.5 52 t-79 38t-83 14.5q-113 0 -171 -47t-58 -158q0 -55 38.5 -102.5t93 -87t112 -72.5t94.5 -58q43 -33 94 -66.5t95 -79.5t73.5 -108.5t29.5 -154.5q0 -90 -30.5 -156.5t-86 -110.5t-130 -65.5t-164.5 -21.5q-141 0 -257 61t-175 190z" />
<glyph unicode="T" horiz-adv-x="933" d="M25 1249v144h884v-144h-366v-1249h-156v1249h-362z" />
<glyph unicode="U" horiz-adv-x="1232" d="M168 399v994h156v-994q0 -74 23.5 -127t63.5 -85.5t93 -48t114 -15.5q125 0 208 69.5t83 206.5v994h156v-994q0 -109 -35 -187.5t-94 -130.5t-141 -76.5t-177 -24.5q-221 0 -335.5 112.5t-114.5 306.5z" />
<glyph unicode="V" horiz-adv-x="1071" d="M43 1393h156l331 -1153l340 1153h158l-412 -1393h-172z" />
<glyph unicode="W" horiz-adv-x="1505" d="M43 1393h158l227 -1108l244 1108h153l244 -1110l217 1110h160l-283 -1393h-178l-237 1081l-240 -1081h-174z" />
<glyph unicode="X" horiz-adv-x="1118" d="M84 0l395 698l-375 695h177l288 -545l299 545h179l-390 -695l387 -698h-176l-299 549l-309 -549h-176z" />
<glyph unicode="Y" horiz-adv-x="1099" d="M43 1393h172l324 -664l329 664h170l-424 -834v-559h-155v559z" />
<glyph unicode="Z" horiz-adv-x="1028" d="M96 0v72l625 1177h-604v144h801v-82l-611 -1168h621v-143h-832z" />
<glyph unicode="[" horiz-adv-x="526" d="M164 -336v1729h266v-121h-125v-1487h119v-121h-260z" />
<glyph unicode="\" horiz-adv-x="710" d="M61 1393h144l444 -1393h-143z" />
<glyph unicode="]" horiz-adv-x="522" d="M96 -203h119v1469h-117v127h260v-1717h-262v121z" />
<glyph unicode="^" horiz-adv-x="743" d="M96 879l283 538l268 -536l-117 -31l-153 293l-160 -293z" />
<glyph unicode="_" horiz-adv-x="960" d="M96 -61h768v-127h-768v127z" />
<glyph unicode="`" horiz-adv-x="479" d="M102 1382l111 86l164 -303l-88 -73z" />
<glyph unicode="a" horiz-adv-x="897" d="M98 242v258l516 108v107q0 96 -35.5 133t-129.5 37q-27 0 -63 -9.5t-74 -24.5t-72.5 -33.5t-59.5 -35.5l-57 121q29 20 71 42t88 39t93 28.5t86 11.5q160 0 232.5 -75t72.5 -234v-715h-127l-10 135q-39 -66 -101.5 -109.5t-146.5 -43.5q-131 0 -207 64.5t-76 195.5z M254 246q0 -70 45 -98.5t115 -28.5q41 0 76.5 15.5t63.5 42t43 62t15 78.5v170l-358 -75v-166z" />
<glyph unicode="b" horiz-adv-x="976" d="M150 0v1475h157v-586q43 61 108.5 98t143.5 37q160 0 241 -85t81 -245v-385q0 -160 -83 -244.5t-241 -84.5q-84 0 -150.5 31.5t-109.5 107.5l-8 -119h-139zM307 350q0 -100 57.5 -163.5t157.5 -63.5q92 0 147.5 47t55.5 139v379q0 98 -54.5 144.5t-152.5 46.5 q-45 0 -84 -18.5t-67.5 -50.5t-44 -74t-15.5 -87v-299z" />
<glyph unicode="c" horiz-adv-x="800" d="M96 311v377q0 74 24.5 135.5t70 106.5t107.5 69.5t138 24.5q190 0 305 -156l-104 -102q-37 51 -89.5 83t-111.5 32q-86 0 -136 -53.5t-50 -139.5v-377q0 -92 51 -140t143 -48q53 0 105.5 21.5t87.5 66.5l96 -105q-57 -66 -134 -96t-159 -30q-158 0 -251 87t-93 244z" />
<glyph unicode="d" horiz-adv-x="952" d="M96 307v391q0 158 88 242t248 84q74 0 129 -26.5t101 -92.5v570h157v-1475h-133l-16 94q-45 -57 -108.5 -84.5t-129.5 -27.5q-160 0 -248 82.5t-88 242.5zM254 309q0 -98 48 -141t147 -43q92 0 152.5 61.5t60.5 153.5v309q0 96 -57.5 164t-153.5 68q-92 0 -144.5 -45 t-52.5 -138v-389z" />
<glyph unicode="e" horiz-adv-x="878" d="M96 340v348q0 78 27 140.5t74 105.5t112.5 66.5t143.5 23.5q74 0 135 -23.5t105 -67.5t68.5 -106.5t24.5 -138.5v-151l-536 -97v-100q0 -104 65.5 -160.5t169.5 -56.5q61 0 115.5 20.5t114.5 75.5l86 -108q-70 -72 -149 -101.5t-173 -29.5q-178 0 -280.5 91t-102.5 269z M250 555l383 70l-4 88q-12 82 -52 125t-124 43q-86 0 -144.5 -52.5t-58.5 -140.5v-133z" />
<glyph unicode="f" horiz-adv-x="538" d="M16 885v119h168v221q0 74 21.5 127t59.5 87t89.5 49t110.5 15q47 0 96 -13t84 -28l-35 -123q-29 8 -67.5 18.5t-67.5 10.5q-80 0 -108.5 -40t-28.5 -126v-198h201v-119h-201v-885h-154v885h-168z" />
<glyph unicode="g" horiz-adv-x="917" d="M86 -190q0 170 162 227q-66 37 -85.5 87t-19.5 97q0 53 22.5 88t74.5 66q-59 49 -91 97t-32 128v133q0 72 25.5 128.5t71.5 95t108.5 59t136.5 20.5q53 0 98 -13t94 -40l197 84l37 -123l-140 -49q29 -43 41.5 -83t12.5 -87v-129q0 -158 -93.5 -224.5t-248.5 -66.5 q-37 0 -66 3t-57 14q-35 -8 -53.5 -32t-18.5 -54q0 -53 35 -82t76 -39l485 -140v-186q0 -74 -24.5 -124t-68.5 -80.5t-104.5 -44t-134.5 -13.5h-110q-147 0 -238.5 67.5t-91.5 215.5zM236 -193q0 -82 61 -115.5t145 -33.5h72q47 0 83 5t60.5 19.5t36.5 41.5q11 24 11 62v13 v101l-336 86q-72 -10 -102.5 -59.5t-30.5 -119.5zM264 590q0 -43 16.5 -73t44 -49t62.5 -28.5t74 -9.5q84 0 138 36t54 124v139v7q0 86 -50 124q-52 39 -144 39q-90 0 -142.5 -42t-52.5 -128v-139z" />
<glyph unicode="h" horiz-adv-x="999" d="M147 0v1475h158v-613q41 68 117 116t158 48q158 0 223 -86t65 -244v-696h-155v696q0 90 -39 138.5t-129 48.5q-47 0 -91 -23.5t-77 -62.5t-52.5 -86t-19.5 -95v-616h-158z" />
<glyph unicode="i" horiz-adv-x="503" d="M172 1212v181h164v-181h-164zM178 0v1004h156v-1004h-156z" />
<glyph unicode="j" horiz-adv-x="505" d="M-90 -346q92 51 144 91t78 83t33 100.5t7 147.5v928h154v-938q0 -125 -19.5 -208t-63.5 -140.5t-113 -97.5t-167 -79zM170 1212v181h170v-181h-170z" />
<glyph unicode="k" horiz-adv-x="825" d="M147 0v1454h158v-846h33l274 396h176l-317 -461l348 -543h-180l-305 471h-29v-471h-158z" />
<glyph unicode="l" horiz-adv-x="499" d="M172 0v1454h156v-1454h-156z" />
<glyph unicode="m" horiz-adv-x="1472" d="M150 0v1004h139l8 -144q41 74 102.5 119t149.5 45q98 0 156.5 -35t91.5 -127q35 74 105.5 118t156.5 44q154 0 218 -68.5t64 -222.5v-733h-155v713q0 86 -34 127t-122 41q-45 0 -84 -20.5t-65.5 -55.5t-42 -80t-15.5 -94v-631h-157v694q0 88 -31 139.5t-119 51.5 q-45 0 -84 -27t-66.5 -66.5t-43 -89t-15.5 -94.5v-608h-157z" />
<glyph unicode="n" horiz-adv-x="1001" d="M150 0v1004h143l10 -134q51 78 110.5 117t157.5 39q160 0 228.5 -85t68.5 -245v-696h-155v678q0 94 -37 150.5t-131 56.5q-47 0 -91 -23.5t-77 -62.5t-52.5 -86t-19.5 -95v-618h-155z" />
<glyph unicode="o" horiz-adv-x="913" d="M96 311v383q0 78 27 139.5t75 103.5t114.5 64.5t144.5 22.5t143.5 -22.5t113.5 -64.5t75.5 -103.5t27.5 -139.5v-383q0 -80 -26.5 -141t-73.5 -103t-113.5 -64.5t-144.5 -22.5q-160 0 -261.5 86t-101.5 245zM252 313q0 -100 53 -145t154 -45q94 0 148.5 46t54.5 142v383 q0 98 -53.5 142.5t-151.5 44.5q-94 0 -149.5 -47.5t-55.5 -139.5v-381z" />
<glyph unicode="p" horiz-adv-x="970" d="M147 -451v1455h129l15 -132q41 72 111.5 112t154.5 40q162 0 238.5 -82t76.5 -248v-379q0 -162 -80.5 -248.5t-238.5 -86.5q-76 0 -142.5 27.5t-105.5 94.5v-553h-158zM303 342q0 -98 59.5 -159.5t153.5 -61.5t147.5 48t53.5 146v375q0 96 -53.5 144.5t-149.5 48.5 q-92 0 -151.5 -61.5t-59.5 -155.5v-324z" />
<glyph unicode="q" horiz-adv-x="913" d="M96 313v392q0 166 90.5 241.5t237.5 75.5q88 0 156.5 -42t97.5 -103l14 127h125v-1455h-153v574q-43 -59 -105.5 -99t-134.5 -40q-166 0 -247 91t-81 238zM252 332q0 -109 54 -158t147 -49q100 0 154.5 61.5t54.5 153.5v326q0 96 -60.5 155.5t-146.5 59.5 q-203 0 -203 -181v-368z" />
<glyph unicode="r" horiz-adv-x="612" d="M158 0v1004h125l12 -150q41 96 96.5 132t106.5 36q37 0 61.5 -5t46.5 -13l-33 -156q-47 26 -91 26h-3q-70 0 -119 -75.5t-49 -202.5v-596h-153z" />
<glyph unicode="s" horiz-adv-x="778" d="M66 141l94 103q55 -76 116.5 -102.5t114.5 -26.5q82 0 127 27.5t45 111.5q0 35 -15.5 59.5t-42 44t-64.5 40t-81 46.5q-55 33 -101 62t-79 62.5t-51 76.5t-18 105q0 127 80.5 200.5t224.5 73.5q98 0 168.5 -42t111.5 -89l-86 -105q-35 37 -85 67t-103 30q-74 0 -116 -32 t-42 -103q0 -35 20.5 -60.5t51.5 -46t66.5 -39.5t66.5 -37q57 -33 103 -59.5t78 -58t48.5 -73.5t16.5 -104q0 -152 -92.5 -222t-233.5 -70q-109 0 -186.5 41.5t-136.5 119.5z" />
<glyph unicode="t" horiz-adv-x="663" d="M33 883v121h157v301h154v-301h219v-121h-219v-629q0 -59 26.5 -91t63.5 -32q41 0 79 9.5t91 33.5l35 -121q-47 -25 -104.5 -45t-112.5 -20q-129 0 -181.5 62.5t-52.5 189.5v643h-155z" />
<glyph unicode="u" horiz-adv-x="935" d="M147 311v693h158v-693q0 -94 38 -141t132 -47q92 0 133 47t41 141v693h156v-693q0 -160 -86 -245.5t-244 -85.5q-160 0 -244 86t-84 245z" />
<glyph unicode="v" horiz-adv-x="882" d="M43 1004h162l237 -785l238 785h160l-326 -1004h-143z" />
<glyph unicode="w" horiz-adv-x="1185" d="M43 1004h160l149 -811l164 811h154l168 -807l147 807h158l-225 -1006h-160l-162 760l-162 -760h-164z" />
<glyph unicode="x" horiz-adv-x="792" d="M41 0l268 522l-248 482h177l161 -361l160 361h180l-254 -482l267 -522h-177l-176 395l-178 -395h-180z" />
<glyph unicode="y" horiz-adv-x="806" d="M39 -332q100 4 166.5 61.5t97.5 153.5l25 88l-289 1033h160l209 -844l206 844h162l-330 -1147q-25 -86 -62.5 -146.5t-86.5 -97.5t-110.5 -53.5t-135.5 -18.5z" />
<glyph unicode="z" horiz-adv-x="806" d="M86 0v102l428 768h-422v134h598v-93l-424 -776h455v-135h-635z" />
<glyph unicode="{" horiz-adv-x="612" d="M150 602l77 111l-53 348q0 80 17.5 143.5t53.5 118.5t90 105.5t128 101.5l45 -96q-61 -43 -100 -88.5t-60.5 -92.5t-31 -94t-9.5 -94l45 -365l-59 -94l63 -80l-49 -422q6 -117 52.5 -209t156.5 -165l-49 -101q-90 63 -147.5 122t-89 117t-44 118.5t-12.5 128.5l51 395z " />
<glyph unicode="|" horiz-adv-x="460" d="M168 -301v1694h125v-1694h-125z" />
<glyph unicode="}" horiz-adv-x="608" d="M150 -270q106 74 152 164t52 210l-47 422l60 80l-58 94l45 365q0 49 -9 97t-30.5 94.5t-59.5 90.5t-97 87l45 98q72 -51 125 -101.5t89 -105.5t53 -119.5t17 -144.5l-53 -348l78 -111l-76 -92l51 -395q0 -70 -11 -130.5t-44 -119t-88 -116.5t-145 -122z" />
<glyph unicode="~" horiz-adv-x="747" d="M106 1270q39 76 74 109.5t90 33.5q33 0 64.5 -14.5t59.5 -31.5t51.5 -30.5t41.5 -13.5q29 2 42.5 24.5t27.5 51.5l84 -53q-23 -61 -59.5 -104.5t-90.5 -43.5q-41 0 -72.5 14.5t-57 31t-49 30.5t-48.5 14q-29 0 -48 -23.5t-32 -56.5z" />
<glyph unicode="&#xa1;" horiz-adv-x="493" d="M186 -403l21 950h139l23 -950h-183zM193 821v183h172v-183h-172z" />
<glyph unicode="&#xa2;" horiz-adv-x="856" d="M96 326v348q0 78 23.5 140.5t66.5 107.5t104.5 69.5t135.5 24.5h11t18 -2l37 282l133 -20l-35 -266q59 -23 98 -59t72 -83l-113 -102q-37 49 -78 83t-104 34q-98 0 -156.5 -54.5t-58.5 -154.5v-348q0 -111 55 -160t160 -49q117 0 199 90l84 -107q-53 -63 -116 -93 t-147 -34h-36l-39 -243l-134 24l39 242q-117 35 -168 120t-51 210z" />
<glyph unicode="&#xa3;" horiz-adv-x="968" d="M96 608v125h230l-15 252q0 117 37 198t102.5 130t153.5 70.5t193 21.5v-141q-180 0 -255 -83t-73 -231l14 -217h287v-125h-276q2 -37 4 -71.5t4 -62.5t3 -44t1 -14q0 -104 -31 -178t-72 -95h469v-143h-753v119q84 4 131 40t68.5 81t25.5 91t4 72l-12 205h-240z" />
<glyph unicode="&#xa5;" horiz-adv-x="1105" d="M43 1393h172l336 -578l344 578h170l-418 -705h334v-104h-354v-156h354v-100h-354v-328h-154v328h-338v100h338v156h-340v104h322z" />
<glyph unicode="&#xa6;" horiz-adv-x="325" d="M96 -225v674h133v-674h-133zM96 764v674h133v-674h-133z" />
<glyph unicode="&#xa7;" horiz-adv-x="1013" d="M111 592q0 51 11 87t29.5 61.5t42 45t46.5 37.5q-35 59 -43.5 122t-8.5 112q0 86 29 152.5t77 111.5t109.5 68.5t128.5 23.5q63 0 115.5 -17.5t93.5 -45t70 -64.5t45 -74l-94 -84q-49 92 -108.5 125t-123.5 33q-49 0 -84.5 -18.5t-59.5 -50t-34 -73.5t-10 -87 q0 -80 25.5 -133.5t64.5 -90t86 -60.5t88 -44q143 -72 230.5 -163t87.5 -216q0 -84 -34 -152.5t-108 -109.5q37 -51 50.5 -117.5t13.5 -109.5q0 -92 -37 -155.5t-90 -103.5t-115.5 -57.5t-111.5 -17.5q-59 0 -112.5 17.5t-96.5 46t-76 66.5t-49 79l96 92q18 -41 47 -71.5 t62.5 -52t69.5 -33t69 -11.5q53 0 90 18.5t60.5 49t34.5 69.5t11 80q0 74 -23.5 124t-61.5 86t-86 62.5t-97 51.5q-74 35 -132 72.5t-100 82.5t-64.5 102.5t-22.5 133.5zM246 590q0 -80 60.5 -139.5t156.5 -100.5q68 -29 132 -69.5t101 -73.5q43 12 58.5 51t15.5 76 q0 49 -17.5 89t-50 72.5t-77.5 61.5t-99 57q-68 35 -109.5 58.5t-84.5 62.5q-43 -23 -64.5 -60.5t-21.5 -84.5z" />
<glyph unicode="&#xa8;" horiz-adv-x="659" d="M102 1196v170h156v-170h-156zM403 1196v170h154v-170h-154z" />
<glyph unicode="&#xa9;" horiz-adv-x="1390" d="M96 715q0 154 36 286t110.5 230t187.5 153.5t266 55.5q152 0 263.5 -56.5t186.5 -155t111.5 -230.5t36.5 -283q0 -154 -36.5 -285t-110.5 -227.5t-186.5 -150.5t-264.5 -54q-150 0 -262 55.5t-188 152.5t-113 228t-37 281zM211 715q0 -127 28.5 -238.5t88 -193.5 t150.5 -129.5t218 -47.5q125 0 216.5 48.5t151.5 131.5t89 193.5t29 235.5q0 127 -28 238.5t-87 195.5t-150.5 132t-218.5 48q-125 0 -217 -49t-152.5 -133t-89 -195.5t-28.5 -236.5zM387 625v149q0 152 85 229.5t233 77.5q92 0 152.5 -35.5t113.5 -111.5l-90 -80 q-39 49 -78 73.5t-98 24.5q-86 0 -131.5 -44t-45.5 -134v-149q0 -94 46.5 -137.5t138.5 -41.5q55 0 100 23t86 66l74 -93q-53 -59 -121 -92t-143 -33q-154 0 -238 75t-84 233z" />
<glyph unicode="&#xaa;" horiz-adv-x="632" d="M96 977v117l305 55v57q0 61 -24.5 79t-67.5 18q-35 0 -74.5 -17.5t-60.5 -30.5l-43 97q37 23 87 40t93 19q61 0 103.5 -10t68 -36t36.5 -69t11 -108v-410h-100l-10 94q-20 -45 -58 -71.5t-75 -26.5q-55 0 -92 17.5t-58.5 45t-31 64.5t-9.5 76zM223 952q0 -29 23.5 -48 t54.5 -19q37 0 65.5 20.5t28.5 50.5v101l-172 -29v-76z" />
<glyph unicode="&#xab;" horiz-adv-x="823" d="M96 334l260 364l80 -71l-182 -291l180 -281l-76 -78zM389 334l258 364l82 -71l-182 -291l180 -281l-78 -78z" />
<glyph unicode="&#xac;" horiz-adv-x="802" d="M96 551v129h611v-322h-127v193h-484z" />
<glyph unicode="&#xad;" horiz-adv-x="606" d="M96 516v143h416v-143h-416z" />
<glyph unicode="&#xae;" horiz-adv-x="1390" d="M96 715q0 154 37 284.5t110.5 228t186.5 153t266 55.5q150 0 262.5 -56.5t187.5 -155t111.5 -229.5t36.5 -280q0 -152 -36.5 -283t-110.5 -227t-186.5 -151.5t-264.5 -55.5q-150 0 -262 56.5t-187 152.5t-113 227t-38 281zM211 715q0 -127 28.5 -237.5t88 -193.5 t150.5 -130.5t218 -47.5q125 0 216.5 48.5t151.5 131.5t89 193.5t29 235.5q0 127 -28 237.5t-87 193.5t-150.5 131t-218.5 48q-125 0 -217 -49t-151.5 -132t-89 -193.5t-29.5 -235.5zM465 324v780h285q98 0 154.5 -49t56.5 -150v-76q0 -74 -41 -118.5t-107 -63.5l164 -323 h-141l-158 309h-86v-309h-127zM590 733l168 6q41 4 57 29t16 68l-4 73q-6 84 -90 84h-147v-260z" />
<glyph unicode="&#xaf;" horiz-adv-x="819" d="M102 1305v98h615v-98h-615z" />
<glyph unicode="&#xb0;" horiz-adv-x="671" d="M96 1124v60q0 53 18.5 95t49.5 71.5t73 46t91 16.5q113 0 180 -65.5t67 -163.5v-60q0 -55 -19 -97t-52 -71.5t-77 -45t-93 -15.5q-111 0 -174.5 65.5t-63.5 163.5zM229 1120q-2 -55 29 -82.5t78 -27.5q53 0 79.5 31.5t26.5 78.5v68q0 53 -29.5 82.5t-78.5 29.5 q-53 0 -79 -32.5t-26 -79.5v-68z" />
<glyph unicode="&#xb1;" horiz-adv-x="966" d="M96 0v127h774v-127h-774zM111 627v135h290v338h148v-338h299v-135h-299v-363h-148v363h-290z" />
<glyph unicode="&#xb2;" horiz-adv-x="884" d="M180 1266q39 72 107.5 109.5t154.5 37.5q133 0 185.5 -54t52.5 -153q0 -82 -49 -134t-109 -87q-33 -18 -66.5 -33.5t-59 -34t-43 -42t-17.5 -60.5h342v-115h-483v64q0 68 18 116t49 83.5t73 62.5t91 49q55 29 90 54.5t35 70.5q0 35 -10.5 53.5t-26.5 28.5t-36.5 12 t-41.5 2q-66 0 -103.5 -29.5t-72.5 -78.5z" />
<glyph unicode="&#xb3;" horiz-adv-x="638" d="M88 811l98 51q10 -59 51.5 -78.5t94.5 -19.5q57 0 90 16.5t33 63.5v26q0 51 -35 83t-82 32h-121v107h113q53 0 86 27.5t33 66.5v20q0 31 -10.5 48.5t-26 26.5t-35 11t-39.5 2q-121 0 -145 -94l-93 41q8 45 32 77t56.5 51.5t72.5 28.5t81 9q115 0 175.5 -46t60.5 -151v-16 q0 -66 -41 -103.5t-95 -54.5q53 -12 98.5 -52t45.5 -114v-32q0 -94 -70 -140.5t-180 -46.5q-205 0 -248 160z" />
<glyph unicode="&#xb4;" horiz-adv-x="479" d="M102 1159l168 297l107 -78l-189 -286z" />
<glyph unicode="&#xb6;" horiz-adv-x="942" d="M96 1028v76q0 135 70 212t201 77h405v-1393h-119v1294h-112v-1294h-125v764h-49q-141 0 -206 67.5t-65 196.5z" />
<glyph unicode="&#xb7;" horiz-adv-x="405" d="M131 408v219h203v-219h-203z" />
<glyph unicode="&#xb8;" horiz-adv-x="458" d="M102 -444q41 23 78 49t37 80q0 45 -12 70.5t-29.5 38.5t-37 16.5t-34.5 7.5l33 182h121l-27 -115q14 -6 36 -18t41.5 -34.5t33.5 -56.5t14 -83q0 -90 -59 -141.5t-154 -86.5z" />
<glyph unicode="&#xb9;" horiz-adv-x="516" d="M61 1253v140h324v-693h-135v553h-189z" />
<glyph unicode="&#xba;" horiz-adv-x="671" d="M96 997v215q0 47 20.5 85t54.5 63.5t77 39t86 13.5q117 0 179 -58.5t62 -150.5v-209q0 -53 -19 -93t-53 -65.5t-77 -39t-92 -13.5q-111 0 -174.5 56.5t-63.5 156.5zM231 1008q-2 -43 20.5 -75t84.5 -32q57 0 80.5 28.5t23.5 82.5v188q2 51 -31.5 72.5t-72.5 21.5 q-49 0 -76 -25.5t-29 -70.5v-190z" />
<glyph unicode="&#xbb;" horiz-adv-x="813" d="M74 637l82 72l258 -365l-260 -356l-78 78l180 280zM367 66l182 280l-182 291l79 72l261 -365l-263 -356z" />
<glyph unicode="&#xbc;" horiz-adv-x="1325" d="M61 1253v140h324v-693h-135v553h-189zM166 0l750 1393h141l-741 -1393h-150zM669 187v88l265 461h186v-437h133v-112h-133v-187h-125v187h-326zM817 299h178v324h-16z" />
<glyph unicode="&#xbd;" horiz-adv-x="1298" d="M61 1253v140h324v-693h-135v553h-189zM100 0l750 1393h141l-741 -1393h-150zM682 570q39 72 107.5 109.5t154.5 37.5q133 0 185.5 -54t52.5 -153q0 -82 -49 -134t-109 -87q-33 -18 -66.5 -33.5t-59 -34t-43 -42t-17.5 -60.5h342v-115h-483v64q0 68 18 116t49 83.5 t73 62.5t91 49q55 29 90 54.5t35 70.5q0 35 -10.5 53.5t-26.5 28.5t-36.5 12t-41.5 2q-66 0 -103.5 -29.5t-72.5 -78.5z" />
<glyph unicode="&#xbe;" horiz-adv-x="1409" d="M88 811l98 51q10 -59 51.5 -78.5t94.5 -19.5q57 0 90 16.5t33 63.5v26q0 51 -35 83t-82 32h-121v107h113q53 0 86 27.5t33 66.5v20q0 31 -10.5 48.5t-26 26.5t-35 11t-39.5 2q-121 0 -145 -94l-93 41q8 45 32 77t56.5 51.5t72.5 28.5t81 9q115 0 175.5 -46t60.5 -151v-16 q0 -66 -41 -103.5t-95 -54.5q53 -12 98.5 -52t45.5 -114v-32q0 -94 -70 -140.5t-180 -46.5q-205 0 -248 160zM295 0l750 1393h141l-741 -1393h-150zM759 185v88l265 461h186v-437h133v-112h-133v-187h-125v187h-326zM907 297h178v324h-16z" />
<glyph unicode="&#xbf;" horiz-adv-x="737" d="M90 -37q0 49 22.5 101.5t57.5 91.5q37 41 67.5 76.5t52 74.5t33 84t11.5 101v86h149v-148q0 -41 -13 -83t-33.5 -83t-47.5 -77.5t-55 -67.5q-37 -41 -63.5 -77t-26.5 -87v-113q0 -37 4 -63.5t17.5 -43t40 -24.5t71.5 -8q29 0 58.5 12.5t58 30.5t53 41t43.5 43l90 -100 q-63 -78 -146 -123t-167 -45q-139 0 -208 58t-69 202v141zM299 784v222h203v-222h-203z" />
<glyph unicode="&#xc0;" d="M45 0l412 1407h174l399 -1407h-160l-120 420h-420l-123 -420h-162zM344 1808l111 86l164 -303l-88 -73zM367 553h348l-172 657z" />
<glyph unicode="&#xc1;" d="M45 0l412 1407h174l399 -1407h-160l-120 420h-420l-123 -420h-162zM367 553h348l-172 657zM444 1589l168 297l107 -78l-189 -286z" />
<glyph unicode="&#xc2;" d="M45 0l412 1407h174l399 -1407h-160l-120 420h-420l-123 -420h-162zM309 1605l222 183l219 -187l-60 -90l-159 127l-160 -125zM367 553h348l-172 657z" />
<glyph unicode="&#xc3;" d="M45 0l412 1407h174l399 -1407h-160l-120 420h-420l-123 -420h-162zM264 1618q39 76 74 109.5t90 33.5q33 0 64.5 -14.5t59.5 -31.5t51.5 -30.5t41.5 -13.5q29 2 42.5 24.5t27.5 51.5l84 -53q-23 -61 -59.5 -104.5t-90.5 -43.5q-41 0 -72.5 14.5t-57 31t-49 30.5t-48.5 14 q-29 0 -48 -23.5t-32 -56.5zM367 553h348l-172 657z" />
<glyph unicode="&#xc4;" d="M45 0l412 1407h174l399 -1407h-160l-120 420h-420l-123 -420h-162zM303 1542v170h156v-170h-156zM367 553h348l-172 657zM604 1542v170h154v-170h-154z" />
<glyph unicode="&#xc5;" d="M45 0l412 1407h174l399 -1407h-160l-120 420h-420l-123 -420h-162zM367 553h348l-172 657zM391 1691q0 86 47 123t104 37q76 0 114 -45t38 -115q0 -82 -46.5 -120.5t-105.5 -38.5q-72 0 -111.5 46t-39.5 113zM477 1689q0 -51 22.5 -64t44.5 -13q29 0 48.5 17t19.5 60 q0 53 -22.5 69.5t-45.5 16.5q-29 0 -48 -21.5t-19 -64.5z" />
<glyph unicode="&#xc6;" horiz-adv-x="1554" d="M41 0l682 1393h715v-144h-463v-458h387v-134h-389v-514h504v-143h-660v383h-407l-197 -383h-172zM471 516h346v746z" />
<glyph unicode="&#xc7;" horiz-adv-x="1017" d="M115 377v635q0 98 31.5 173t88 125t134 76.5t168.5 26.5q137 0 229 -52t152 -142l-105 -105q-45 68 -116.5 112t-159.5 44q-68 0 -118 -19.5t-83 -54.5t-49.5 -82t-16.5 -102v-635q0 -137 72 -195.5t195 -58.5q100 0 165.5 33.5t118.5 93.5l94 -113q-78 -82 -173 -119.5 t-205 -37.5q-215 0 -318.5 107.5t-103.5 289.5zM477 -444q41 23 78 49t37 80q0 45 -12 70.5t-29.5 38.5t-37 16.5t-34.5 7.5l33 182h121l-27 -115q14 -6 36 -18t41.5 -34.5t33.5 -56.5t14 -83q0 -90 -59 -141.5t-154 -86.5z" />
<glyph unicode="&#xc8;" horiz-adv-x="919" d="M168 0v1393h616v-144h-465v-469h392v-139h-392v-498h504v-143h-655zM282 1792l111 86l164 -303l-88 -73z" />
<glyph unicode="&#xc9;" horiz-adv-x="919" d="M168 0v1393h616v-144h-465v-469h392v-139h-392v-498h504v-143h-655zM383 1589l168 297l107 -78l-189 -286z" />
<glyph unicode="&#xca;" horiz-adv-x="919" d="M168 0v1393h616v-144h-465v-469h392v-139h-392v-498h504v-143h-655zM247 1605l222 183l219 -187l-60 -90l-159 127l-160 -125z" />
<glyph unicode="&#xcb;" horiz-adv-x="919" d="M168 0v1393h616v-144h-465v-469h392v-139h-392v-498h504v-143h-655zM241 1542v170h156v-170h-156zM542 1542v170h154v-170h-154z" />
<glyph unicode="&#xcc;" horiz-adv-x="602" d="M102 1812l111 86l164 -303l-88 -73zM244 0v1393h156v-1393h-156z" />
<glyph unicode="&#xcd;" horiz-adv-x="602" d="M194 1589l168 297l107 -78l-189 -286zM239 0v1393h156v-1393h-156z" />
<glyph unicode="&#xce;" horiz-adv-x="602" d="M63 1607l222 183l219 -187l-60 -90l-159 127l-160 -125zM237 0v1393h156v-1393h-156z" />
<glyph unicode="&#xcf;" horiz-adv-x="602" d="M77 1538v170h156v-170h-156zM260 0v1393h156v-1393h-156zM378 1538v170h154v-170h-154z" />
<glyph unicode="&#xd0;" horiz-adv-x="1177" d="M49 637v125h221v624h359q231 0 341.5 -108.5t110.5 -290.5v-592q0 -111 -35.5 -186.5t-97 -121.5t-144.5 -66.5t-177 -20.5h-357v637h-221zM426 143h201q160 0 229.5 66.5t69.5 185.5v594q0 74 -22.5 122t-61.5 78t-93.5 42t-119.5 12h-203v-481h254v-125h-254v-494z" />
<glyph unicode="&#xd1;" horiz-adv-x="1259" d="M168 0v1393h219l563 -1211v1211h144v-1393h-232l-553 1196v-1196h-141zM338 1598q39 76 74 109.5t90 33.5q33 0 64.5 -14.5t59.5 -31.5t51.5 -30.5t41.5 -13.5q29 2 42.5 24.5t27.5 51.5l84 -53q-23 -61 -59.5 -104.5t-90.5 -43.5q-41 0 -72.5 14.5t-57 31t-49 30.5 t-48.5 14q-29 0 -48 -23.5t-32 -56.5z" />
<glyph unicode="&#xd2;" horiz-adv-x="1161" d="M115 391v610q0 92 34.5 169t96 130.5t143.5 83t176 29.5h27q96 0 178 -28.5t143.5 -83t96 -130t34.5 -170.5v-610q0 -98 -34.5 -174t-95 -129t-143.5 -80.5t-179 -27.5h-25q-98 0 -182 27.5t-143.5 79.5t-93 129t-33.5 175zM270 391q0 -131 83 -199.5t214 -68.5h25 q131 0 214 67.5t83 200.5v608q0 59 -23.5 109.5t-64.5 86.5t-94.5 55.5t-114.5 19.5h-27q-61 0 -114.5 -19.5t-93.5 -54.5t-63.5 -84t-23.5 -111v-610zM370 1812l111 86l164 -303l-88 -73z" />
<glyph unicode="&#xd3;" horiz-adv-x="1161" d="M115 391v610q0 92 34.5 169t96 130.5t143.5 83t176 29.5h27q96 0 178 -28.5t143.5 -83t96 -130t34.5 -170.5v-610q0 -98 -34.5 -174t-95 -129t-143.5 -80.5t-179 -27.5h-25q-98 0 -182 27.5t-143.5 79.5t-93 129t-33.5 175zM270 391q0 -131 83 -199.5t214 -68.5h25 q131 0 214 67.5t83 200.5v608q0 59 -23.5 109.5t-64.5 86.5t-94.5 55.5t-114.5 19.5h-27q-61 0 -114.5 -19.5t-93.5 -54.5t-63.5 -84t-23.5 -111v-610zM471 1589l168 297l107 -78l-189 -286z" />
<glyph unicode="&#xd4;" horiz-adv-x="1161" d="M115 391v610q0 92 34.5 169t96 130.5t143.5 83t176 29.5h27q96 0 178 -28.5t143.5 -83t96 -130t34.5 -170.5v-610q0 -98 -34.5 -174t-95 -129t-143.5 -80.5t-179 -27.5h-25q-98 0 -182 27.5t-143.5 79.5t-93 129t-33.5 175zM270 391q0 -131 83 -199.5t214 -68.5h25 q131 0 214 67.5t83 200.5v608q0 59 -23.5 109.5t-64.5 86.5t-94.5 55.5t-114.5 19.5h-27q-61 0 -114.5 -19.5t-93.5 -54.5t-63.5 -84t-23.5 -111v-610zM335 1626l222 183l219 -187l-60 -90l-159 127l-160 -125z" />
<glyph unicode="&#xd5;" horiz-adv-x="1161" d="M115 391v610q0 92 34.5 169t96 130.5t143.5 83t176 29.5h27q96 0 178 -28.5t143.5 -83t96 -130t34.5 -170.5v-610q0 -98 -34.5 -174t-95 -129t-143.5 -80.5t-179 -27.5h-25q-98 0 -182 27.5t-143.5 79.5t-93 129t-33.5 175zM270 391q0 -131 83 -199.5t214 -68.5h25 q131 0 214 67.5t83 200.5v608q0 59 -23.5 109.5t-64.5 86.5t-94.5 55.5t-114.5 19.5h-27q-61 0 -114.5 -19.5t-93.5 -54.5t-63.5 -84t-23.5 -111v-610zM288 1618q39 76 74 109.5t90 33.5q33 0 64.5 -14.5t59.5 -31.5t51.5 -30.5t41.5 -13.5q29 2 42.5 24.5t27.5 51.5l84 -53 q-23 -61 -59.5 -104.5t-90.5 -43.5q-41 0 -72.5 14.5t-57 31t-49 30.5t-48.5 14q-29 0 -48 -23.5t-32 -56.5z" />
<glyph unicode="&#xd6;" horiz-adv-x="1161" d="M115 391v610q0 92 34.5 169t96 130.5t143.5 83t176 29.5h27q96 0 178 -28.5t143.5 -83t96 -130t34.5 -170.5v-610q0 -98 -34.5 -174t-95 -129t-143.5 -80.5t-179 -27.5h-25q-98 0 -182 27.5t-143.5 79.5t-93 129t-33.5 175zM270 391q0 -131 83 -199.5t214 -68.5h25 q131 0 214 67.5t83 200.5v608q0 59 -23.5 109.5t-64.5 86.5t-94.5 55.5t-114.5 19.5h-27q-61 0 -114.5 -19.5t-93.5 -54.5t-63.5 -84t-23.5 -111v-610zM329 1542v170h156v-170h-156zM630 1542v170h154v-170h-154z" />
<glyph unicode="&#xd7;" horiz-adv-x="980" d="M96 0l322 516l-305 488h141l235 -375l238 375h141l-305 -488l322 -516h-148l-248 401l-245 -401h-148z" />
<glyph unicode="&#xd8;" horiz-adv-x="1105" d="M115 391v610q0 92 34.5 169t96 130.5t143.5 83t176 29.5h27q100 0 188 -33l70 181h121l-88 -238q74 -53 117.5 -135t43.5 -187v-610q0 -98 -34.5 -174t-95 -129t-143.5 -80.5t-179 -27.5h-25q-47 0 -90 7t-82 17l-57 -156h-127l76 203q-82 53 -127 138t-45 202zM270 391 q0 -59 20.5 -105t57.5 -77l379 1032q-63 29 -135 29h-27q-61 0 -114.5 -19.5t-93.5 -54.5t-63.5 -84t-23.5 -111v-610zM446 139q27 -10 58 -13t63 -3h25q131 0 214 67.5t83 200.5v608q0 47 -19.5 88t-54.5 70z" />
<glyph unicode="&#xd9;" horiz-adv-x="1232" d="M168 399v994h156v-994q0 -74 23.5 -127t63.5 -85.5t93 -48t114 -15.5q125 0 208 69.5t83 206.5v994h156v-994q0 -109 -35 -187.5t-94 -130.5t-141 -76.5t-177 -24.5q-221 0 -335.5 112.5t-114.5 306.5zM397 1751l111 86l164 -303l-88 -73z" />
<glyph unicode="&#xda;" horiz-adv-x="1232" d="M168 399v994h156v-994q0 -74 23.5 -127t63.5 -85.5t93 -48t114 -15.5q125 0 208 69.5t83 206.5v994h156v-994q0 -109 -35 -187.5t-94 -130.5t-141 -76.5t-177 -24.5q-221 0 -335.5 112.5t-114.5 306.5zM497 1528l168 297l107 -78l-189 -286z" />
<glyph unicode="&#xdb;" horiz-adv-x="1232" d="M168 399v994h156v-994q0 -74 23.5 -127t63.5 -85.5t93 -48t114 -15.5q125 0 208 69.5t83 206.5v994h156v-994q0 -109 -35 -187.5t-94 -130.5t-141 -76.5t-177 -24.5q-221 0 -335.5 112.5t-114.5 306.5zM364 1611l222 183l219 -187l-60 -90l-159 127l-160 -125z" />
<glyph unicode="&#xdc;" horiz-adv-x="1232" d="M168 399v994h156v-994q0 -74 23.5 -127t63.5 -85.5t93 -48t114 -15.5q125 0 208 69.5t83 206.5v994h156v-994q0 -109 -35 -187.5t-94 -130.5t-141 -76.5t-177 -24.5q-221 0 -335.5 112.5t-114.5 306.5zM356 1544v170h156v-170h-156zM657 1544v170h154v-170h-154z" />
<glyph unicode="&#xdd;" horiz-adv-x="1099" d="M43 1393h172l324 -664l329 664h170l-424 -834v-559h-155v559zM446 1530l168 297l107 -78l-189 -286z" />
<glyph unicode="&#xde;" horiz-adv-x="899" d="M96 0v1391h156v-277h231q84 0 144.5 -25.5t99.5 -72.5t57.5 -111.5t18.5 -142.5v-62q0 -170 -84 -246.5t-236 -76.5h-231v-377h-156zM252 518h227q92 0 130 51.5t38 130.5v62q0 94 -43 152.5t-127 58.5h-225v-455z" />
<glyph unicode="&#xe0;" horiz-adv-x="897" d="M98 242v258l516 108v107q0 96 -35.5 133t-129.5 37q-27 0 -63 -9.5t-74 -24.5t-72.5 -33.5t-59.5 -35.5l-57 121q29 20 71 42t88 39t93 28.5t86 11.5q160 0 232.5 -75t72.5 -234v-715h-127l-10 135q-39 -66 -101.5 -109.5t-146.5 -43.5q-131 0 -207 64.5t-76 195.5z M225 1405l111 86l164 -303l-88 -73zM254 246q0 -70 45 -98.5t115 -28.5q41 0 76.5 15.5t63.5 42t43 62t15 78.5v170l-358 -75v-166z" />
<glyph unicode="&#xe1;" horiz-adv-x="897" d="M98 242v258l516 108v107q0 96 -35.5 133t-129.5 37q-27 0 -63 -9.5t-74 -24.5t-72.5 -33.5t-59.5 -35.5l-57 121q29 20 71 42t88 39t93 28.5t86 11.5q160 0 232.5 -75t72.5 -234v-715h-127l-10 135q-39 -66 -101.5 -109.5t-146.5 -43.5q-131 0 -207 64.5t-76 195.5z M254 246q0 -70 45 -98.5t115 -28.5q41 0 76.5 15.5t63.5 42t43 62t15 78.5v170l-358 -75v-166zM325 1179l168 297l107 -78l-189 -286z" />
<glyph unicode="&#xe2;" horiz-adv-x="897" d="M98 242v258l516 108v107q0 96 -35.5 133t-129.5 37q-27 0 -63 -9.5t-74 -24.5t-72.5 -33.5t-59.5 -35.5l-57 121q29 20 71 42t88 39t93 28.5t86 11.5q160 0 232.5 -75t72.5 -234v-715h-127l-10 135q-39 -66 -101.5 -109.5t-146.5 -43.5q-131 0 -207 64.5t-76 195.5z M194 1241l222 183l219 -187l-60 -90l-159 127l-160 -125zM254 246q0 -70 45 -98.5t115 -28.5q41 0 76.5 15.5t63.5 42t43 62t15 78.5v170l-358 -75v-166z" />
<glyph unicode="&#xe3;" horiz-adv-x="897" d="M98 242v258l516 108v107q0 96 -35.5 133t-129.5 37q-27 0 -63 -9.5t-74 -24.5t-72.5 -33.5t-59.5 -35.5l-57 121q29 20 71 42t88 39t93 28.5t86 11.5q160 0 232.5 -75t72.5 -234v-715h-127l-10 135q-39 -66 -101.5 -109.5t-146.5 -43.5q-131 0 -207 64.5t-76 195.5z M147 1270q39 76 74 109.5t90 33.5q33 0 64.5 -14.5t59.5 -31.5t51.5 -30.5t41.5 -13.5q29 2 42.5 24.5t27.5 51.5l84 -53q-23 -61 -59.5 -104.5t-90.5 -43.5q-41 0 -72.5 14.5t-57 31t-49 30.5t-48.5 14q-29 0 -48 -23.5t-32 -56.5zM254 246q0 -70 45 -98.5t115 -28.5 q41 0 76.5 15.5t63.5 42t43 62t15 78.5v170l-358 -75v-166z" />
<glyph unicode="&#xe4;" horiz-adv-x="897" d="M98 242v258l516 108v107q0 96 -35.5 133t-129.5 37q-27 0 -63 -9.5t-74 -24.5t-72.5 -33.5t-59.5 -35.5l-57 121q29 20 71 42t88 39t93 28.5t86 11.5q160 0 232.5 -75t72.5 -234v-715h-127l-10 135q-39 -66 -101.5 -109.5t-146.5 -43.5q-131 0 -207 64.5t-76 195.5z M184 1178v170h156v-170h-156zM254 246q0 -70 45 -98.5t115 -28.5q41 0 76.5 15.5t63.5 42t43 62t15 78.5v170l-358 -75v-166zM485 1178v170h154v-170h-154z" />
<glyph unicode="&#xe5;" horiz-adv-x="897" d="M98 242v258l516 108v107q0 96 -35.5 133t-129.5 37q-27 0 -63 -9.5t-74 -24.5t-72.5 -33.5t-59.5 -35.5l-57 121q29 20 71 42t88 39t93 28.5t86 11.5q160 0 232.5 -75t72.5 -234v-715h-127l-10 135q-39 -66 -101.5 -109.5t-146.5 -43.5q-131 0 -207 64.5t-76 195.5z M254 246q0 -70 45 -98.5t115 -28.5q41 0 76.5 15.5t63.5 42t43 62t15 78.5v170l-358 -75v-166zM275 1300q0 86 47 123t104 37q76 0 114 -45t38 -115q0 -82 -46.5 -120.5t-105.5 -38.5q-72 0 -111.5 46t-39.5 113zM361 1298q0 -51 22.5 -64t44.5 -13q29 0 48.5 17t19.5 60 q0 53 -22.5 69.5t-45.5 16.5q-29 0 -48 -21.5t-19 -64.5z" />
<glyph unicode="&#xe6;" horiz-adv-x="1411" d="M96 242v250l514 83v142q0 96 -37.5 134t-132.5 38q-27 0 -62.5 -9.5t-72.5 -24.5t-71.5 -33.5t-57.5 -35.5l-59 121q31 23 73.5 45.5t90 39t93.5 26.5t83 10q190 0 248 -133q41 59 107.5 93t154.5 34q150 0 241.5 -79t91.5 -251v-143l-536 -78v-131q0 -104 65.5 -162.5 t169.5 -58.5q61 0 115.5 23.5t114.5 76.5l86 -108q-70 -70 -149 -100.5t-173 -30.5q-125 0 -212 43t-128 133q-47 -102 -121.5 -138t-156.5 -36q-131 0 -205 64.5t-74 195.5zM250 248q0 -70 45 -98.5t115 -28.5q82 0 142 47t60 133v156l-362 -58v-151zM764 588l383 51v76 q0 78 -48 121t-132 43q-86 0 -144.5 -57.5t-58.5 -145.5v-88z" />
<glyph unicode="&#xe7;" horiz-adv-x="858" d="M96 311v377q0 74 24.5 135.5t70 106.5t107.5 69.5t138 24.5q190 0 305 -156l-104 -102q-37 51 -89.5 83t-111.5 32q-86 0 -136 -53.5t-50 -139.5v-377q0 -92 51 -140t143 -48q53 0 105.5 21.5t87.5 66.5l96 -105q-57 -66 -134 -96t-159 -30q-158 0 -251 87t-93 244z M360 -415q41 23 78 49t37 80q0 45 -12 70.5t-29.5 38.5t-37 16.5t-34.5 7.5l33 182h121l-27 -115q14 -6 36 -18t41.5 -34.5t33.5 -56.5t14 -83q0 -90 -59 -141.5t-154 -86.5z" />
<glyph unicode="&#xe8;" horiz-adv-x="878" d="M96 340v348q0 78 27 140.5t74 105.5t112.5 66.5t143.5 23.5q74 0 135 -23.5t105 -67.5t68.5 -106.5t24.5 -138.5v-151l-536 -97v-100q0 -104 65.5 -160.5t169.5 -56.5q61 0 115.5 20.5t114.5 75.5l86 -108q-70 -72 -149 -101.5t-173 -29.5q-178 0 -280.5 91t-102.5 269z M243 1382l111 86l164 -303l-88 -73zM250 555l383 70l-4 88q-12 82 -52 125t-124 43q-86 0 -144.5 -52.5t-58.5 -140.5v-133z" />
<glyph unicode="&#xe9;" horiz-adv-x="878" d="M96 340v348q0 78 27 140.5t74 105.5t112.5 66.5t143.5 23.5q74 0 135 -23.5t105 -67.5t68.5 -106.5t24.5 -138.5v-151l-536 -97v-100q0 -104 65.5 -160.5t169.5 -56.5q61 0 115.5 20.5t114.5 75.5l86 -108q-70 -72 -149 -101.5t-173 -29.5q-178 0 -280.5 91t-102.5 269z M250 555l383 70l-4 88q-12 82 -52 125t-124 43q-86 0 -144.5 -52.5t-58.5 -140.5v-133zM344 1179l168 297l107 -78l-189 -286z" />
<glyph unicode="&#xea;" horiz-adv-x="878" d="M96 340v348q0 78 27 140.5t74 105.5t112.5 66.5t143.5 23.5q74 0 135 -23.5t105 -67.5t68.5 -106.5t24.5 -138.5v-151l-536 -97v-100q0 -104 65.5 -160.5t169.5 -56.5q61 0 115.5 20.5t114.5 75.5l86 -108q-70 -72 -149 -101.5t-173 -29.5q-178 0 -280.5 91t-102.5 269z M211 1239l222 183l219 -187l-60 -90l-159 127l-160 -125zM250 555l383 70l-4 88q-12 82 -52 125t-124 43q-86 0 -144.5 -52.5t-58.5 -140.5v-133z" />
<glyph unicode="&#xeb;" horiz-adv-x="878" d="M96 340v348q0 78 27 140.5t74 105.5t112.5 66.5t143.5 23.5q74 0 135 -23.5t105 -67.5t68.5 -106.5t24.5 -138.5v-151l-536 -97v-100q0 -104 65.5 -160.5t169.5 -56.5q61 0 115.5 20.5t114.5 75.5l86 -108q-70 -72 -149 -101.5t-173 -29.5q-178 0 -280.5 91t-102.5 269z M202 1161v170h156v-170h-156zM250 555l383 70l-4 88q-12 82 -52 125t-124 43q-86 0 -144.5 -52.5t-58.5 -140.5v-133zM503 1161v170h154v-170h-154z" />
<glyph unicode="&#xec;" horiz-adv-x="503" d="M36 1402l111 86l164 -303l-88 -73zM172 0v1004h151v-1004h-151z" />
<glyph unicode="&#xed;" horiz-adv-x="503" d="M135 1179l168 297l107 -78l-189 -286zM174 0v1004h151v-1004h-151z" />
<glyph unicode="&#xee;" horiz-adv-x="503" d="M18 1257l222 183l219 -187l-60 -90l-159 127l-160 -125zM166 0v1004h151v-1004h-151z" />
<glyph unicode="&#xef;" horiz-adv-x="503" d="M26 1178v170h156v-170h-156zM191 0v1004h151v-1004h-151zM327 1178v170h154v-170h-154z" />
<glyph unicode="&#xf0;" horiz-adv-x="919" d="M96 313v340q0 141 72 228.5t240 89.5q72 0 124 -19.5t99 -62.5q-25 98 -65 171t-93 138l-242 -131l-45 100l205 113q-59 55 -108.5 83t-110.5 42l49 137q55 -16 97 -34.5t79 -41t70 -49t68 -61.5l225 127l45 -103l-195 -108q106 -139 154.5 -285.5t48.5 -310.5v-363 q0 -88 -29.5 -150.5t-80 -102.5t-118 -59t-143.5 -19q-174 0 -260 87t-86 244zM252 313q0 -106 52 -147t138 -41q106 0 158.5 48t56.5 140v295q0 115 -61 167t-156 52q-102 0 -145 -48t-43 -138v-328z" />
<glyph unicode="&#xf1;" horiz-adv-x="1001" d="M150 0v1004h143l10 -134q51 78 110.5 117t157.5 39q160 0 228.5 -85t68.5 -245v-696h-155v678q0 94 -37 150.5t-131 56.5q-47 0 -91 -23.5t-77 -62.5t-52.5 -86t-19.5 -95v-618h-155zM213 1270q39 76 74 109.5t90 33.5q33 0 64.5 -14.5t59.5 -31.5t51.5 -30.5t41.5 -13.5 q29 2 42.5 24.5t27.5 51.5l84 -53q-23 -61 -59.5 -104.5t-90.5 -43.5q-41 0 -72.5 14.5t-57 31t-49 30.5t-48.5 14q-29 0 -48 -23.5t-32 -56.5z" />
<glyph unicode="&#xf2;" horiz-adv-x="913" d="M96 311v383q0 78 27 139.5t75 103.5t114.5 64.5t144.5 22.5t143.5 -22.5t113.5 -64.5t75.5 -103.5t27.5 -139.5v-383q0 -80 -26.5 -141t-73.5 -103t-113.5 -64.5t-144.5 -22.5q-160 0 -261.5 86t-101.5 245zM249 1382l111 86l164 -303l-88 -73zM252 313q0 -100 53 -145 t154 -45q94 0 148.5 46t54.5 142v383q0 98 -53.5 142.5t-151.5 44.5q-94 0 -149.5 -47.5t-55.5 -139.5v-381z" />
<glyph unicode="&#xf3;" horiz-adv-x="913" d="M96 311v383q0 78 27 139.5t75 103.5t114.5 64.5t144.5 22.5t143.5 -22.5t113.5 -64.5t75.5 -103.5t27.5 -139.5v-383q0 -80 -26.5 -141t-73.5 -103t-113.5 -64.5t-144.5 -22.5q-160 0 -261.5 86t-101.5 245zM252 313q0 -100 53 -145t154 -45q94 0 148.5 46t54.5 142v383 q0 98 -53.5 142.5t-151.5 44.5q-94 0 -149.5 -47.5t-55.5 -139.5v-381zM350 1179l168 297l107 -78l-189 -286z" />
<glyph unicode="&#xf4;" horiz-adv-x="913" d="M96 311v383q0 78 27 139.5t75 103.5t114.5 64.5t144.5 22.5t143.5 -22.5t113.5 -64.5t75.5 -103.5t27.5 -139.5v-383q0 -80 -26.5 -141t-73.5 -103t-113.5 -64.5t-144.5 -22.5q-160 0 -261.5 86t-101.5 245zM215 1239l222 183l219 -187l-60 -90l-159 127l-160 -125z M252 313q0 -100 53 -145t154 -45q94 0 148.5 46t54.5 142v383q0 98 -53.5 142.5t-151.5 44.5q-94 0 -149.5 -47.5t-55.5 -139.5v-381z" />
<glyph unicode="&#xf5;" horiz-adv-x="913" d="M96 311v383q0 78 27 139.5t75 103.5t114.5 64.5t144.5 22.5t143.5 -22.5t113.5 -64.5t75.5 -103.5t27.5 -139.5v-383q0 -80 -26.5 -141t-73.5 -103t-113.5 -64.5t-144.5 -22.5q-160 0 -261.5 86t-101.5 245zM170 1231q39 76 74 109.5t90 33.5q33 0 64.5 -14.5t59.5 -31.5 t51.5 -30.5t41.5 -13.5q29 2 42.5 24.5t27.5 51.5l84 -53q-23 -61 -59.5 -104.5t-90.5 -43.5q-41 0 -72.5 14.5t-57 31t-49 30.5t-48.5 14q-29 0 -48 -23.5t-32 -56.5zM252 313q0 -100 53 -145t154 -45q94 0 148.5 46t54.5 142v383q0 98 -53.5 142.5t-151.5 44.5 q-94 0 -149.5 -47.5t-55.5 -139.5v-381z" />
<glyph unicode="&#xf6;" horiz-adv-x="913" d="M96 311v383q0 78 27 139.5t75 103.5t114.5 64.5t144.5 22.5t143.5 -22.5t113.5 -64.5t75.5 -103.5t27.5 -139.5v-383q0 -80 -26.5 -141t-73.5 -103t-113.5 -64.5t-144.5 -22.5q-160 0 -261.5 86t-101.5 245zM208 1157v170h156v-170h-156zM252 313q0 -100 53 -145t154 -45 q94 0 148.5 46t54.5 142v383q0 98 -53.5 142.5t-151.5 44.5q-94 0 -149.5 -47.5t-55.5 -139.5v-381zM509 1157v170h154v-170h-154z" />
<glyph unicode="&#xf7;" horiz-adv-x="1183" d="M96 514v125h991v-125h-991zM492 145v211h198v-211h-198zM492 788v211h198v-211h-198z" />
<glyph unicode="&#xf8;" horiz-adv-x="886" d="M63 311v383q0 78 27 139.5t75 104.5t114.5 65.5t146.5 22.5q100 0 174 -43l62 135h98l-80 -182q47 -41 75.5 -102.5t28.5 -139.5v-383q0 -80 -26.5 -141t-73.5 -103t-113.5 -64.5t-144.5 -22.5q-86 0 -154 24l-59 -139h-107l80 184q-57 43 -90 107.5t-33 154.5zM219 313 q0 -68 35 -108l291 647q-23 14 -53.5 22.5t-65.5 8.5q-96 0 -151.5 -48.5t-55.5 -140.5v-381zM330 137q37 -14 96 -14q94 0 148.5 46t54.5 142v385q0 47 -15 78z" />
<glyph unicode="&#xf9;" horiz-adv-x="935" d="M147 311v693h158v-693q0 -94 38 -141t132 -47q92 0 133 47t41 141v693h156v-693q0 -160 -86 -245.5t-244 -85.5q-160 0 -244 86t-84 245zM262 1382l111 86l164 -303l-88 -73z" />
<glyph unicode="&#xfa;" horiz-adv-x="935" d="M147 311v693h158v-693q0 -94 38 -141t132 -47q92 0 133 47t41 141v693h156v-693q0 -160 -86 -245.5t-244 -85.5q-160 0 -244 86t-84 245zM362 1159l168 297l107 -78l-189 -286z" />
<glyph unicode="&#xfb;" horiz-adv-x="935" d="M147 311v693h158v-693q0 -94 38 -141t132 -47q92 0 133 47t41 141v693h156v-693q0 -160 -86 -245.5t-244 -85.5q-160 0 -244 86t-84 245zM227 1257l222 183l219 -187l-60 -90l-159 127l-160 -125z" />
<glyph unicode="&#xfc;" horiz-adv-x="935" d="M147 311v693h158v-693q0 -94 38 -141t132 -47q92 0 133 47t41 141v693h156v-693q0 -160 -86 -245.5t-244 -85.5q-160 0 -244 86t-84 245zM221 1196v170h156v-170h-156zM522 1196v170h154v-170h-154z" />
<glyph unicode="&#xfd;" horiz-adv-x="806" d="M39 -332q100 4 166.5 61.5t97.5 153.5l25 88l-289 1033h160l209 -844l206 844h162l-330 -1147q-25 -86 -62.5 -146.5t-86.5 -97.5t-110.5 -53.5t-135.5 -18.5zM307 1159l168 297l107 -78l-189 -286z" />
<glyph unicode="&#xfe;" horiz-adv-x="970" d="M150 -483v1968h151v-559q53 59 112.5 78.5t133.5 19.5q174 0 250.5 -83t76.5 -241v-391q0 -178 -88 -255t-241 -77q-88 0 -144.5 28t-99.5 85v-573h-151zM305 377q0 -256 221 -256q102 0 148.5 44t46.5 136v377q0 115 -52.5 159t-142.5 44q-109 0 -165 -58.5t-56 -148.5 v-297z" />
<glyph unicode="&#xff;" horiz-adv-x="806" d="M39 -332q100 4 166.5 61.5t97.5 153.5l25 88l-289 1033h160l209 -844l206 844h162l-330 -1147q-25 -86 -62.5 -146.5t-86.5 -97.5t-110.5 -53.5t-135.5 -18.5zM165 1196v170h156v-170h-156zM466 1196v170h154v-170h-154z" />
<glyph unicode="&#x152;" horiz-adv-x="1552" d="M115 414v567q0 102 36.5 179t99 128t144.5 78t170 27h850v-144h-465v-461h391v-139h-391v-506h506v-143h-889q-213 0 -332.5 110.5t-119.5 303.5zM270 414q2 -76 25.5 -128.5t64.5 -84t94.5 -45t112.5 -13.5h228v1106h-230q-63 0 -116.5 -21.5t-93.5 -59.5t-62.5 -90 t-22.5 -113v-551z" />
<glyph unicode="&#x153;" horiz-adv-x="1454" d="M96 317v385q0 84 25.5 145.5t71 102.5t107.5 60.5t136 19.5q98 0 173 -43t116 -108q45 74 119 112.5t170 38.5q72 0 133 -22.5t106 -64.5t70 -102.5t25 -138.5v-167l-537 -95v-82q0 -55 20.5 -98t54.5 -72.5t76 -46t85 -16.5q70 0 131 34t100 77l80 -109 q-63 -70 -151.5 -103.5t-166.5 -33.5q-109 0 -188.5 38t-130.5 119q-47 -84 -122 -122.5t-161 -38.5q-168 0 -255 90t-87 241zM250 317q0 -102 59.5 -145t143.5 -43q96 0 148 60.5t54 144.5v358q-2 96 -62.5 147.5t-139.5 51.5q-100 0 -151.5 -51.5t-51.5 -137.5v-385z M811 563l381 70l2 78q0 92 -53 136t-127 44q-45 0 -83 -16.5t-64.5 -43t-41 -62.5t-14.5 -77v-129z" />
<glyph unicode="&#x178;" horiz-adv-x="1099" d="M43 1393h172l324 -664l329 664h170l-424 -834v-559h-155v559zM305 1503v170h156v-170h-156zM606 1503v170h154v-170h-154z" />
<glyph unicode="&#x2c6;" horiz-adv-x="645" d="M102 1257l222 183l219 -187l-60 -90l-159 127l-160 -125z" />
<glyph unicode="&#x2dc;" horiz-adv-x="739" d="M102 1270q39 76 74 109.5t90 33.5q33 0 64.5 -14.5t59.5 -31.5t51.5 -30.5t41.5 -13.5q29 2 42.5 24.5t27.5 51.5l84 -53q-23 -61 -59.5 -104.5t-90.5 -43.5q-41 0 -72.5 14.5t-57 31t-49 30.5t-48.5 14q-29 0 -48 -23.5t-32 -56.5z" />
<glyph unicode="&#x2000;" horiz-adv-x="949" />
<glyph unicode="&#x2001;" horiz-adv-x="1898" />
<glyph unicode="&#x2002;" horiz-adv-x="949" />
<glyph unicode="&#x2003;" horiz-adv-x="1898" />
<glyph unicode="&#x2004;" horiz-adv-x="632" />
<glyph unicode="&#x2005;" horiz-adv-x="474" />
<glyph unicode="&#x2006;" horiz-adv-x="316" />
<glyph unicode="&#x2007;" horiz-adv-x="316" />
<glyph unicode="&#x2008;" horiz-adv-x="237" />
<glyph unicode="&#x2009;" horiz-adv-x="379" />
<glyph unicode="&#x200a;" horiz-adv-x="105" />
<glyph unicode="&#x2010;" horiz-adv-x="606" d="M96 516v143h416v-143h-416z" />
<glyph unicode="&#x2011;" horiz-adv-x="606" d="M96 516v143h416v-143h-416z" />
<glyph unicode="&#x2012;" horiz-adv-x="606" d="M96 516v143h416v-143h-416z" />
<glyph unicode="&#x2013;" horiz-adv-x="974" d="M4 537v127h959v-127h-959z" />
<glyph unicode="&#x2014;" horiz-adv-x="1329" d="M6 537v127h1315v-127h-1315z" />
<glyph unicode="&#x2018;" horiz-adv-x="268" d="M61 981v57q0 137 29 227.5t86 147.5l82 -51q-33 -47 -44 -109.5t-11 -138.5v-133h-142z" />
<glyph unicode="&#x2019;" horiz-adv-x="278" d="M10 1007q35 47 55.5 102.5t20.5 143.5v131h141v-53q0 -76 -11 -134.5t-30.5 -102.5t-45.5 -77.5t-54 -62.5z" />
<glyph unicode="&#x201a;" horiz-adv-x="452" d="M156 -207q35 47 55.5 102.5t20.5 143.5v131h141v-53q0 -76 -11 -134.5t-30.5 -102.5t-45.5 -77.5t-54 -62.5z" />
<glyph unicode="&#x201c;" horiz-adv-x="569" d="M61 981v57q0 137 29 227.5t86 147.5l82 -51q-33 -47 -44 -109.5t-11 -138.5v-133h-142zM350 981v57q0 137 29 227.5t86 147.5l82 -51q-33 -47 -44 -109.5t-11 -138.5v-133h-142z" />
<glyph unicode="&#x201d;" horiz-adv-x="542" d="M10 1014q35 47 55.5 102.5t20.5 143.5v131h141v-53q0 -76 -11 -134.5t-30.5 -102.5t-45.5 -77.5t-54 -62.5zM274 1014q35 47 55.5 102.5t20.5 143.5v131h141v-53q0 -76 -11 -134.5t-30.5 -102.5t-45.5 -77.5t-54 -62.5z" />
<glyph unicode="&#x201e;" horiz-adv-x="776" d="M156 -205q35 47 55.5 102.5t20.5 143.5v131h141v-53q0 -76 -11 -134.5t-30.5 -102.5t-45.5 -77.5t-54 -62.5zM487 -203q35 47 55.5 102.5t20.5 143.5v131h141v-53q0 -76 -11 -134.5t-30.5 -102.5t-45.5 -77.5t-54 -62.5z" />
<glyph unicode="&#x2022;" horiz-adv-x="647" d="M150 344v377h348v-377h-348z" />
<glyph unicode="&#x2026;" horiz-adv-x="1325" d="M150 0v223h196v-223h-196zM563 0v223h199v-223h-199zM975 0v223h201v-223h-201z" />
<glyph unicode="&#x202f;" horiz-adv-x="379" />
<glyph unicode="&#x2039;" horiz-adv-x="532" d="M86 348l262 365l88 -72l-182 -291l180 -280l-84 -78z" />
<glyph unicode="&#x203a;" horiz-adv-x="532" d="M96 70l183 276l-183 295l88 72l260 -365l-262 -356z" />
<glyph unicode="&#x205f;" horiz-adv-x="474" />
<glyph unicode="&#x20ac;" horiz-adv-x="1165" d="M74 535v106h245v178h-245v107h245v155q0 180 101.5 267.5t281.5 87.5q100 0 181.5 -37t152.5 -109l-80 -119q-53 53 -117.5 87t-136.5 34q-123 0 -176 -58t-53 -181v-127h401v-107h-401v-178h401v-106h-399v-166q0 -117 59.5 -178.5t176.5 -61.5q72 0 132 32t118 87 l88 -113q-143 -150 -338 -149q-193 0 -292.5 96t-99.5 293v160h-245z" />
<glyph unicode="&#x2122;" horiz-adv-x="970" d="M74 1350v84h338v-84h-123v-349h-96v349h-119zM457 1004v430h94l96 -174l86 174h94v-430h-96v227l-59 -121h-58l-61 125v-231h-96z" />
<glyph unicode="&#xe000;" horiz-adv-x="1003" d="M0 0v1004h1004v-1004h-1004z" />
<glyph unicode="&#xfb03;" horiz-adv-x="1447" d="M-20 883v121h165v184q0 154 80 228.5t215 76.5q92 0 169 -33t141 -74q35 45 96 82t151 37q41 0 91.5 -15t96.5 -34.5t85 -38t57 -24.5l-47 -133q-20 10 -56 27.5t-76 32.5t-82 26.5t-77 11.5q-78 0 -113.5 -48t-35.5 -120v-186h178v-121h-180v-883h-154v883h-166v121h166 v161q0 43 10 88q-61 41 -129.5 70t-124.5 29q-78 0 -109.5 -43t-31.5 -115v-190h152v-121h-152v-883h-154v883h-165zM1159 0v1004h154v-1004h-154z" />
<glyph unicode="&#xfb04;" horiz-adv-x="1482" d="M-2 883v121h168v184q0 154 80 228.5t215 76.5q78 0 150.5 -27.5t136.5 -68.5q45 59 101 81.5t126 22.5q35 0 73.5 -8t77.5 -20.5t76 -27.5t68 -32h55v-1413h-154v1311q-49 27 -103 41t-93 14q-78 0 -114 -49t-36 -125v-188h189v-121h-189v-883h-149v883h-152v121h152v176 q0 29 3 56.5t11 49.5q-63 33 -122.5 49.5t-106.5 16.5q-80 0 -112 -43t-32 -115v-190h154v-121h-154v-883h-151v883h-168z" />
</font>
</defs>
</svg>
